999
dxfrw 0.6.3
  0
SECTION
  2
HEADER
  9
$ACADVER
  1
AC1021
  9
$DWGCODEPAGE
  3
ANSI_1252
  9
$INSBASE
 10
0
 20
0
 30
0
  9
$EXTMIN
 10
0.090159
 20
0.09016
 30
0
  9
$EXTMAX
 10
276.706053
 20
215.90002
 30
0
  9
$LIMMIN
 10
0
 20
0
  9
$LIMMAX
 10
420
 20
297
  9
$ORTHOMODE
 70
    0
  9
$REGENMODE
 70
    1
  9
$FILLMODE
 70
    1
  9
$QTEXTMODE
 70
    0
  9
$MIRRTEXT
 70
    0
  9
$LTSCALE
 40
1
  9
$ATTMODE
 70
    0
  9
$TEXTSIZE
 40
2.5
  9
$TRACEWID
 40
15.68
  9
$TEXTSTYLE
  7
STANDARD
  9
$CLAYER
  8
dim
  9
$CELTYPE
  6
BYLAYER
  9
$CECOLOR
 62
  256
  9
$CELTSCALE
 40
1
  9
$DISPSILH
 70
    0
  9
$DIMSCALE
 40
2.5
  9
$DIMASZ
 40
0.35
  9
$DIMEXO
 40
0.2
  9
$DIMDLI
 40
3.75
  9
$DIMRND
 40
0
  9
$DIMDLE
 40
0
  9
$DIMEXE
 40
0.65
  9
$DIMTP
 40
0
  9
$DIMTM
 40
0
  9
$DIMTXT
 40
0.35
  9
$DIMCEN
 40
2.5
  9
$DIMTSZ
 40
0
  9
$DIMTOL
 70
    0
  9
$DIMLIM
 70
    0
  9
$DIMTIH
 70
    0
  9
$DIMTOH
 70
    0
  9
$DIMSE1
 70
    0
  9
$DIMSE2
 70
    0
  9
$DIMTAD
 70
    1
  9
$DIMZIN
 70
    8
  9
$DIMBLK
  1

  9
$DIMASO
 70
    1
  9
$DIMSHO
 70
    1
  9
$DIMPOST
  1

  9
$DIMAPOST
  1

  9
$DIMALT
 70
    0
  9
$DIMALTD
 70
    3
  9
$DIMALTF
 40
0.03937
  9
$DIMLFAC
 40
1
  9
$DIMTOFL
 70
    1
  9
$DIMTVP
 40
0
  9
$DIMTIX
 70
    0
  9
$DIMSOXD
 70
    0
  9
$DIMSAH
 70
    0
  9
$DIMBLK1
  1

  9
$DIMBLK2
  1

  9
$DIMSTYLE
  2
Standard
  9
$DIMCLRD
 70
    0
  9
$DIMCLRE
 70
    0
  9
$DIMCLRT
 70
    0
  9
$DIMTFAC
 40
1
  9
$DIMGAP
 40
0.2
  9
$DIMJUST
 70
    0
  9
$DIMSD1
 70
    0
  9
$DIMSD2
 70
    0
  9
$DIMTOLJ
 70
    0
  9
$DIMTZIN
 70
    8
  9
$DIMALTZ
 70
    0
  9
$DIMALTTZ
 70
    0
  9
$DIMUPT
 70
    0
  9
$DIMDEC
 70
    1
  9
$DIMTDEC
 70
    2
  9
$DIMALTU
 70
    2
  9
$DIMALTTD
 70
    3
  9
$DIMTXSTY
  7
cursive
  9
$DIMAUNIT
 70
    0
  9
$DIMADEC
 70
    0
  9
$DIMALTRND
 40
0
  9
$DIMAZIN
 70
    0
  9
$DIMDSEP
 70
    0
  9
$DIMATFIT
 70
    3
  9
$DIMFRAC
 70
    0
  9
$DIMLDRBLK
  1
STANDARD
  9
$DIMLUNIT
 70
    2
  9
$DIMLWD
 70
   -2
  9
$DIMLWE
 70
   -2
  9
$DIMTMOVE
 70
    0
  9
$DIMFXL
 40
1
  9
$DIMFXLON
 70
    0
  9
$DIMJOGANG
 40
0.7854
  9
$DIMTFILL
 70
    0
  9
$DIMTFILLCLR
 70
    0
  9
$DIMARCSYM
 70
    0
  9
$DIMLTYPE
  6

  9
$DIMLTEX1
  6

  9
$DIMLTEX2
  6

  9
$LUNITS
 70
    2
  9
$LUPREC
 70
    1
  9
$SKETCHINC
 40
1
  9
$FILLETRAD
 40
0
  9
$AUNITS
 70
    0
  9
$AUPREC
 70
    1
  9
$MENU
  1
.
  9
$ELEVATION
 40
0
  9
$PELEVATION
 40
0
  9
$THICKNESS
 40
0
  9
$LIMCHECK
 70
    0
  9
$CHAMFERA
 40
0
  9
$CHAMFERB
 40
0
  9
$CHAMFERC
 40
0
  9
$CHAMFERD
 40
0
  9
$SKPOLY
 70
    0
  9
$USRTIMER
 70
    1
  9
$ANGBASE
 50
0
  9
$ANGDIR
 70
    0
  9
$PDMODE
 70
   34
  9
$PDSIZE
 40
0
  9
$PLINEWID
 40
0
  9
$SPLFRAME
 70
    0
  9
$SPLINETYPE
 70
    2
  9
$SPLINESEGS
 70
    8
  9
$HANDSEED
  5
20000
  9
$SURFTAB1
 70
    6
  9
$SURFTAB2
 70
    6
  9
$SURFTYPE
 70
    6
  9
$SURFU
 70
    6
  9
$SURFV
 70
    6
  9
$UCSBASE
  2

  9
$UCSNAME
  2

  9
$UCSORG
 10
0
 20
0
 30
0
  9
$UCSXDIR
 10
1
 20
0
 30
0
  9
$UCSYDIR
 10
0
 20
1
 30
0
  9
$UCSORTHOREF
  2

  9
$UCSORTHOVIEW
 70
    0
  9
$UCSORGTOP
 10
0
 20
0
 30
0
  9
$UCSORGBOTTOM
 10
0
 20
0
 30
0
  9
$UCSORGLEFT
 10
0
 20
0
 30
0
  9
$UCSORGRIGHT
 10
0
 20
0
 30
0
  9
$UCSORGFRONT
 10
0
 20
0
 30
0
  9
$UCSORGBACK
 10
0
 20
0
 30
0
  9
$PUCSBASE
  2

  9
$PUCSNAME
  2

  9
$PUCSORG
 10
0
 20
0
 30
0
  9
$PUCSXDIR
 10
1
 20
0
 30
0
  9
$PUCSYDIR
 10
0
 20
1
 30
0
  9
$PUCSORTHOREF
  2

  9
$PUCSORTHOVIEW
 70
    0
  9
$PUCSORGTOP
 10
0
 20
0
 30
0
  9
$PUCSORGBOTTOM
 10
0
 20
0
 30
0
  9
$PUCSORGLEFT
 10
0
 20
0
 30
0
  9
$PUCSORGRIGHT
 10
0
 20
0
 30
0
  9
$PUCSORGFRONT
 10
0
 20
0
 30
0
  9
$PUCSORGBACK
 10
0
 20
0
 30
0
  9
$USERI1
 70
    0
  9
$USERI2
 70
    0
  9
$USERI3
 70
    0
  9
$USERI4
 70
    0
  9
$USERI5
 70
    0
  9
$USERR1
 40
0
  9
$USERR2
 40
0
  9
$USERR3
 40
0
  9
$USERR4
 40
0
  9
$USERR5
 40
0
  9
$WORLDVIEW
 70
    1
  9
$SHADEDGE
 70
    3
  9
$SHADEDIF
 70
   70
  9
$TILEMODE
 70
    1
  9
$MAXACTVP
 70
   64
  9
$PINSBASE
 10
0
 20
0
 30
0
  9
$PLIMCHECK
 70
    0
  9
$PEXTMIN
 10
0
 20
0
 30
0
  9
$PEXTMAX
 10
0
 20
0
 30
0
  9
$GRIDMODE
 70
    1
  9
$SNAPSTYLE
 70
    0
  9
$GRIDUNIT
 10
0.001
 20
0.001
  9
$PLIMMIN
 10
0
 20
0
  9
$PLIMMAX
 10
279.4
 20
215.9
  9
$UNITMODE
 70
    0
  9
$VISRETAIN
 70
    1
  9
$PLINEGEN
 70
    0
  9
$PSLTSCALE
 70
    1
  9
$TREEDEPTH
 70
 3020
  9
$CMLSTYLE
  2
Standard
  9
$CMLJUST
 70
    0
  9
$CMLSCALE
 40
20
  9
$PROXYGRAPHICS
 70
    1
  9
$MEASUREMENT
 70
    1
  9
$CELWEIGHT
370
   -1
  9
$ENDCAPS
280
    0
  9
$JOINSTYLE
280
    0
  9
$LWDISPLAY
290
    0
  9
$INSUNITS
 70
    4
  9
$HYPERLINKBASE
  1

  9
$STYLESHEET
  1

  9
$XEDIT
290
    1
  9
$CEPSNTYPE
380
    0
  9
$PSTYLEMODE
290
    1
  9
$EXTNAMES
290
    1
  9
$PSVPSCALE
 40
1
  9
$OLESTARTUP
290
    0
  9
$SORTENTS
280
  127
  9
$INDEXCTL
280
    0
  9
$HIDETEXT
280
    1
  9
$XCLIPFRAME
290
    0
  9
$HALOGAP
280
    0
  9
$OBSCOLOR
 70
  257
  9
$OBSLTYPE
280
    0
  9
$INTERSECTIONDISPLAY
280
    0
  9
$INTERSECTIONCOLOR
 70
  257
  9
$DIMASSOC
280
    1
  9
$PROJECTNAME
  1

  9
$CAMERADISPLAY
290
    0
  9
$LENSLENGTH
 40
50
  9
$CAMERAHEIGHT
 40
0
  9
$STEPSPERSEC
 40
2
  9
$STEPSIZE
 40
50
  9
$3DDWFPREC
 40
2
  9
$PSOLWIDTH
 40
5
  9
$PSOLHEIGHT
 40
80
  9
$LOFTANG1
 40
1.570796326794897
  9
$LOFTANG2
 40
1.570796326794897
  9
$LOFTMAG1
 40
0
  9
$LOFTMAG2
 40
0
  9
$LOFTPARAM
 70
    7
  9
$LOFTNORMALS
280
    1
  9
$LATITUDE
 40
1
  9
$LONGITUDE
 40
1
  9
$NORTHDIRECTION
 40
0
  9
$TIMEZONE
 70
-8000
  9
$LIGHTGLYPHDISPLAY
280
    1
  9
$TILEMODELIGHTSYNCH
280
    1
  9
$SOLIDHIST
280
    1
  9
$SHOWHIST
280
    1
  9
$DWFFRAME
280
    2
  9
$DGNFRAME
280
    0
  9
$REALWORLDSCALE
290
    1
  9
$INTERFERECOLOR
 62
    1
  9
$CSHADOW
280
    0
  9
$SHADOWPLANELOCATION
 40
0
  0
ENDSEC
  0
SECTION
  2
CLASSES
  0
ENDSEC
  0
SECTION
  2
TABLES
  0
TABLE
  2
VPORT
  5
8
330
0
100
AcDbSymbolTable
 70
    1
  0
VPORT
  5
31
330
2
100
AcDbSymbolTableRecord
100
AcDbViewportTableRecord
  2
*ACTIVE
 70
    0
 10
0
 20
0
 11
1
 21
1
 12
108.6028428949911
 22
81.73027183980814
 13
0
 23
0
 14
10
 24
10
 15
0.001
 25
0.001
 16
0
 26
0
 36
1
 17
0
 27
0
 37
0
 40
145.3172791455437
 41
0.7926972909305064
 42
50
 43
0
 44
0
 50
0
 51
0
 71
    0
 72
  100
 73
    1
 74
    3
 75
    0
 76
    1
 77
    0
 78
    0
281
    0
 65
    1
110
0
120
0
130
0
111
1
121
0
131
0
112
0
122
1
132
0
 79
    0
146
0
348
10020
 60
    3
 61
    5
292
1
282
    1
141
0
142
0
 63
  250
421
3358443
  0
ENDTAB
  0
TABLE
  2
LTYPE
  5
5
330
0
100
AcDbSymbolTable
 70
    4
  0
LTYPE
  5
14
330
5
100
AcDbSymbolTableRecord
100
AcDbLinetypeTableRecord
  2
ByBlock
 70
    0
  3

 72
   65
 73
    0
 40
0
  0
LTYPE
  5
15
330
5
100
AcDbSymbolTableRecord
100
AcDbLinetypeTableRecord
  2
ByLayer
 70
    0
  3

 72
   65
 73
    0
 40
0
  0
LTYPE
  5
16
330
5
100
AcDbSymbolTableRecord
100
AcDbLinetypeTableRecord
  2
Continuous
 70
    0
  3
Solid line
 72
   65
 73
    0
 40
0
  0
LTYPE
  5
32
330
5
100
AcDbSymbolTableRecord
100
AcDbLinetypeTableRecord
  2
DOT
 70
    0
  3
Dot . . . . . . . . . . . . . . . . . . . . . .
 72
   65
 73
    2
 40
6.35
 49
0
 74
    0
 49
-6.35
 74
    0
  0
LTYPE
  5
33
330
5
100
AcDbSymbolTableRecord
100
AcDbLinetypeTableRecord
  2
DOTTINY
 70
    0
  3
Dot (.15x) .....................................
 72
   65
 73
    2
 40
0.9525
 49
0
 74
    0
 49
-0.9525
 74
    0
  0
LTYPE
  5
34
330
5
100
AcDbSymbolTableRecord
100
AcDbLinetypeTableRecord
  2
DOT2
 70
    0
  3
Dot (.5x) .....................................
 72
   65
 73
    2
 40
3.175
 49
0
 74
    0
 49
-3.175
 74
    0
  0
LTYPE
  5
35
330
5
100
AcDbSymbolTableRecord
100
AcDbLinetypeTableRecord
  2
DOTX2
 70
    0
  3
Dot (2x) .  .  .  .  .  .  .  .  .  .  .  .  .
 72
   65
 73
    2
 40
12.7
 49
0
 74
    0
 49
-12.7
 74
    0
  0
LTYPE
  5
36
330
5
100
AcDbSymbolTableRecord
100
AcDbLinetypeTableRecord
  2
DASHED
 70
    0
  3
Dashed _ _ _ _ _ _ _ _ _ _ _ _ _ _ _ _ _
 72
   65
 73
    2
 40
19.05
 49
12.7
 74
    0
 49
-6.35
 74
    0
  0
LTYPE
  5
37
330
5
100
AcDbSymbolTableRecord
100
AcDbLinetypeTableRecord
  2
DASHEDTINY
 70
    0
  3
Dashed (.15x) _ _ _ _ _ _ _ _ _ _ _ _ _ _ _ _ _
 72
   65
 73
    2
 40
2.8575
 49
1.905
 74
    0
 49
-0.9525
 74
    0
  0
LTYPE
  5
38
330
5
100
AcDbSymbolTableRecord
100
AcDbLinetypeTableRecord
  2
DASHED2
 70
    0
  3
Dashed (.5x) _ _ _ _ _ _ _ _ _ _ _ _ _ _ _ _ _
 72
   65
 73
    2
 40
9.524999999999999
 49
6.35
 74
    0
 49
-3.175
 74
    0
  0
LTYPE
  5
39
330
5
100
AcDbSymbolTableRecord
100
AcDbLinetypeTableRecord
  2
DASHEDX2
 70
    0
  3
Dashed (2x) ____  ____  ____  ____  ____  ___
 72
   65
 73
    2
 40
38.09999999999999
 49
25.4
 74
    0
 49
-12.7
 74
    0
  0
LTYPE
  5
3A
330
5
100
AcDbSymbolTableRecord
100
AcDbLinetypeTableRecord
  2
DASHDOT
 70
    0
  3
Dash dot __ . __ . __ . __ . __ . __ . __ . __
 72
   65
 73
    4
 40
25.4
 49
12.7
 74
    0
 49
-6.35
 74
    0
 49
0
 74
    0
 49
-6.35
 74
    0
  0
LTYPE
  5
3B
330
5
100
AcDbSymbolTableRecord
100
AcDbLinetypeTableRecord
  2
DASHDOTTINY
 70
    0
  3
Dash dot (.15x) _._._._._._._._._._._._._._._.
 72
   65
 73
    4
 40
3.81
 49
1.905
 74
    0
 49
-0.9525
 74
    0
 49
0
 74
    0
 49
-0.9525
 74
    0
  0
LTYPE
  5
3C
330
5
100
AcDbSymbolTableRecord
100
AcDbLinetypeTableRecord
  2
DASHDOT2
 70
    0
  3
Dash dot (.5x) _._._._._._._._._._._._._._._.
 72
   65
 73
    4
 40
12.7
 49
6.35
 74
    0
 49
-3.175
 74
    0
 49
0
 74
    0
 49
-3.175
 74
    0
  0
LTYPE
  5
3D
330
5
100
AcDbSymbolTableRecord
100
AcDbLinetypeTableRecord
  2
DASHDOTX2
 70
    0
  3
Dash dot (2x) ____  .  ____  .  ____  .  ___
 72
   65
 73
    4
 40
50.8
 49
25.4
 74
    0
 49
-12.7
 74
    0
 49
0
 74
    0
 49
-12.7
 74
    0
  0
LTYPE
  5
3E
330
5
100
AcDbSymbolTableRecord
100
AcDbLinetypeTableRecord
  2
DIVIDE
 70
    0
  3
Divide ____ . . ____ . . ____ . . ____ . . ____
 72
   65
 73
    6
 40
31.75
 49
12.7
 74
    0
 49
-6.35
 74
    0
 49
0
 74
    0
 49
-6.35
 74
    0
 49
0
 74
    0
 49
-6.35
 74
    0
  0
LTYPE
  5
3F
330
5
100
AcDbSymbolTableRecord
100
AcDbLinetypeTableRecord
  2
DIVIDETINY
 70
    0
  3
Divide (.15x) __..__..__..__..__..__..__..__.._
 72
   65
 73
    6
 40
4.7625
 49
1.905
 74
    0
 49
-0.9525
 74
    0
 49
0
 74
    0
 49
-0.9525
 74
    0
 49
0
 74
    0
 49
-0.9525
 74
    0
  0
LTYPE
  5
40
330
5
100
AcDbSymbolTableRecord
100
AcDbLinetypeTableRecord
  2
DIVIDE2
 70
    0
  3
Divide (.5x) __..__..__..__..__..__..__..__.._
 72
   65
 73
    6
 40
15.875
 49
6.35
 74
    0
 49
-3.175
 74
    0
 49
0
 74
    0
 49
-3.175
 74
    0
 49
0
 74
    0
 49
-3.175
 74
    0
  0
LTYPE
  5
41
330
5
100
AcDbSymbolTableRecord
100
AcDbLinetypeTableRecord
  2
DIVIDEX2
 70
    0
  3
Divide (2x) ________  .  .  ________  .  .  _
 72
   65
 73
    6
 40
63.5
 49
25.4
 74
    0
 49
-12.7
 74
    0
 49
0
 74
    0
 49
-12.7
 74
    0
 49
0
 74
    0
 49
-12.7
 74
    0
  0
LTYPE
  5
42
330
5
100
AcDbSymbolTableRecord
100
AcDbLinetypeTableRecord
  2
BORDER
 70
    0
  3
Border __ __ . __ __ . __ __ . __ __ . __ __ .
 72
   65
 73
    6
 40
44.45
 49
12.7
 74
    0
 49
-6.35
 74
    0
 49
12.7
 74
    0
 49
-6.35
 74
    0
 49
0
 74
    0
 49
-6.35
 74
    0
  0
LTYPE
  5
43
330
5
100
AcDbSymbolTableRecord
100
AcDbLinetypeTableRecord
  2
BORDERTINY
 70
    0
  3
Border (.15x) __.__.__.__.__.__.__.__.__.__.__.
 72
   65
 73
    6
 40
6.6675
 49
1.905
 74
    0
 49
-0.9525
 74
    0
 49
1.905
 74
    0
 49
-0.9525
 74
    0
 49
0
 74
    0
 49
-0.9525
 74
    0
  0
LTYPE
  5
44
330
5
100
AcDbSymbolTableRecord
100
AcDbLinetypeTableRecord
  2
BORDER2
 70
    0
  3
Border (.5x) __.__.__.__.__.__.__.__.__.__.__.
 72
   65
 73
    6
 40
22.225
 49
6.35
 74
    0
 49
-3.175
 74
    0
 49
6.35
 74
    0
 49
-3.175
 74
    0
 49
0
 74
    0
 49
-3.175
 74
    0
  0
LTYPE
  5
45
330
5
100
AcDbSymbolTableRecord
100
AcDbLinetypeTableRecord
  2
BORDERX2
 70
    0
  3
Border (2x) ____  ____  .  ____  ____  .  ___
 72
   65
 73
    6
 40
88.89999999999999
 49
25.4
 74
    0
 49
-12.7
 74
    0
 49
25.4
 74
    0
 49
-12.7
 74
    0
 49
0
 74
    0
 49
-12.7
 74
    0
  0
LTYPE
  5
46
330
5
100
AcDbSymbolTableRecord
100
AcDbLinetypeTableRecord
  2
CENTER
 70
    0
  3
Center ____ _ ____ _ ____ _ ____ _ ____ _ ____
 72
   65
 73
    4
 40
50.8
 49
31.75
 74
    0
 49
-6.35
 74
    0
 49
6.35
 74
    0
 49
-6.35
 74
    0
  0
LTYPE
  5
47
330
5
100
AcDbSymbolTableRecord
100
AcDbLinetypeTableRecord
  2
CENTERTINY
 70
    0
  3
Center (.15x) ___ _ ___ _ ___ _ ___ _ ___ _ ___
 72
   65
 73
    4
 40
7.619999999999999
 49
4.7625
 74
    0
 49
-0.9525
 74
    0
 49
0.9525
 74
    0
 49
-0.9525
 74
    0
  0
LTYPE
  5
48
330
5
100
AcDbSymbolTableRecord
100
AcDbLinetypeTableRecord
  2
CENTER2
 70
    0
  3
Center (.5x) ___ _ ___ _ ___ _ ___ _ ___ _ ___
 72
   65
 73
    4
 40
28.575
 49
19.05
 74
    0
 49
-3.175
 74
    0
 49
3.175
 74
    0
 49
-3.175
 74
    0
  0
LTYPE
  5
49
330
5
100
AcDbSymbolTableRecord
100
AcDbLinetypeTableRecord
  2
CENTERX2
 70
    0
  3
Center (2x) ________  __  ________  __  _____
 72
   65
 73
    4
 40
101.6
 49
63.5
 74
    0
 49
-12.7
 74
    0
 49
12.7
 74
    0
 49
-12.7
 74
    0
  0
ENDTAB
  0
TABLE
  2
LAYER
  5
2
330
0
100
AcDbSymbolTable
 70
    1
  0
LAYER
  5
10
330
2
100
AcDbSymbolTableRecord
100
AcDbLayerTableRecord
  2
0
 70
    0
 62
    7
  6
CONTINUOUS
370
    9
390
F
  0
LAYER
  5
4A
330
2
100
AcDbSymbolTableRecord
100
AcDbLayerTableRecord
  2
ProjItem
 70
    0
 62
    7
  6
CONTINUOUS
370
    9
390
F
  0
LAYER
  5
4B
330
2
100
AcDbSymbolTableRecord
100
AcDbLayerTableRecord
  2
ProjItem001
 70
    0
 62
    7
  6
CONTINUOUS
370
    9
390
F
  0
LAYER
  5
4C
330
2
100
AcDbSymbolTableRecord
100
AcDbLayerTableRecord
  2
ProjItem002
 70
    0
 62
    7
  6
CONTINUOUS
370
    9
390
F
  0
LAYER
  5
4D
330
2
100
AcDbSymbolTableRecord
100
AcDbLayerTableRecord
  2
dim
 70
    0
 62
    7
  6
CONTINUOUS
370
    9
390
F
  0
LAYER
  5
4E
330
2
100
AcDbSymbolTableRecord
100
AcDbLayerTableRecord
  2
leader
 70
    0
 62
    7
  6
DASHDOTTINY
370
    5
390
F
  0
ENDTAB
  0
TABLE
  2
STYLE
  5
3
330
0
100
AcDbSymbolTable
 70
    3
  0
STYLE
  5
4F
330
2
100
AcDbSymbolTableRecord
100
AcDbTextStyleTableRecord
  2
standard
 70
    0
 40
0
 41
1
 50
0
 71
    0
 42
1
  3
standard
  4

  0
ENDTAB
  0
TABLE
  2
VIEW
  5
6
330
0
100
AcDbSymbolTable
 70
    0
  0
ENDTAB
  0
TABLE
  2
UCS
  5
7
330
0
100
AcDbSymbolTable
 70
    0
  0
ENDTAB
  0
TABLE
  2
APPID
  5
9
330
0
100
AcDbSymbolTable
 70
    1
  0
APPID
  5
12
330
9
100
AcDbSymbolTableRecord
100
AcDbRegAppTableRecord
  2
ACAD
 70
    0
  0
APPID
  5
50
330
9
100
AcDbSymbolTableRecord
100
AcDbRegAppTableRecord
  2
LibreCad
 70
    0
  0
ENDTAB
  0
TABLE
  2
DIMSTYLE
  5
A
330
0
100
AcDbSymbolTable
 70
    1
100
AcDbDimStyleTable
 71
    1
  0
DIMSTYLE
105
51
330
A
100
AcDbSymbolTableRecord
100
AcDbDimStyleTableRecord
  2
Standard
 70
    0
 40
2.5
 41
0.35
 42
0.2
 43
0.38
 44
0.65
 45
0
 46
0
 47
0
 48
0
 49
1
140
0.35
141
0.09
142
0
143
25.4
144
1
145
0
146
1
147
0.2
148
0
 71
    0
 72
    0
 73
    0
 74
    1
 75
    0
 76
    0
 77
    0
 78
    8
 79
    0
170
    0
171
    2
172
    0
173
    0
174
    0
175
    0
176
    0
177
    0
178
    0
179
    0
271
    1
272
    4
273
    2
274
    2
275
    0
276
    0
277
    2
278
    0
279
    0
280
    0
281
    0
282
    0
283
    1
284
    0
285
    0
286
    0
288
    0
289
    3
340
cursive
341

371
   -2
372
   -2
  0
ENDTAB
  0
TABLE
  2
BLOCK_RECORD
  5
1
330
0
100
AcDbSymbolTable
 70
    2
  0
BLOCK_RECORD
  5
1F
330
1
100
AcDbSymbolTableRecord
100
AcDbBlockTableRecord
  2
*Model_Space
 70
    0
280
    1
281
    0
  0
BLOCK_RECORD
  5
1E
330
1
100
AcDbSymbolTableRecord
100
AcDbBlockTableRecord
  2
*Paper_Space
 70
    0
280
    1
281
    0
  0
BLOCK_RECORD
  5
52
330
1
100
AcDbSymbolTableRecord
100
AcDbBlockTableRecord
  2
*D6
 70
    0
280
    1
281
    0
  0
BLOCK_RECORD
  5
55
330
1
100
AcDbSymbolTableRecord
100
AcDbBlockTableRecord
  2
*D20
 70
    0
280
    1
281
    0
  0
BLOCK_RECORD
  5
58
330
1
100
AcDbSymbolTableRecord
100
AcDbBlockTableRecord
  2
*D3
 70
    0
280
    1
281
    0
  0
BLOCK_RECORD
  5
5B
330
1
100
AcDbSymbolTableRecord
100
AcDbBlockTableRecord
  2
*D10
 70
    0
280
    1
281
    0
  0
BLOCK_RECORD
  5
5E
330
1
100
AcDbSymbolTableRecord
100
AcDbBlockTableRecord
  2
*D15
 70
    0
280
    1
281
    0
  0
BLOCK_RECORD
  5
61
330
1
100
AcDbSymbolTableRecord
100
AcDbBlockTableRecord
  2
*D4
 70
    0
280
    1
281
    0
  0
BLOCK_RECORD
  5
64
330
1
100
AcDbSymbolTableRecord
100
AcDbBlockTableRecord
  2
*D8
 70
    0
280
    1
281
    0
  0
BLOCK_RECORD
  5
67
330
1
100
AcDbSymbolTableRecord
100
AcDbBlockTableRecord
  2
*D13
 70
    0
280
    1
281
    0
  0
BLOCK_RECORD
  5
6A
330
1
100
AcDbSymbolTableRecord
100
AcDbBlockTableRecord
  2
*D11
 70
    0
280
    1
281
    0
  0
BLOCK_RECORD
  5
6D
330
1
100
AcDbSymbolTableRecord
100
AcDbBlockTableRecord
  2
*D2
 70
    0
280
    1
281
    0
  0
BLOCK_RECORD
  5
70
330
1
100
AcDbSymbolTableRecord
100
AcDbBlockTableRecord
  2
*D16
 70
    0
280
    1
281
    0
  0
BLOCK_RECORD
  5
73
330
1
100
AcDbSymbolTableRecord
100
AcDbBlockTableRecord
  2
*D12
 70
    0
280
    1
281
    0
  0
BLOCK_RECORD
  5
76
330
1
100
AcDbSymbolTableRecord
100
AcDbBlockTableRecord
  2
*D17
 70
    0
280
    1
281
    0
  0
BLOCK_RECORD
  5
79
330
1
100
AcDbSymbolTableRecord
100
AcDbBlockTableRecord
  2
*D1
 70
    0
280
    1
281
    0
  0
BLOCK_RECORD
  5
7C
330
1
100
AcDbSymbolTableRecord
100
AcDbBlockTableRecord
  2
*D7
 70
    0
280
    1
281
    0
  0
BLOCK_RECORD
  5
7F
330
1
100
AcDbSymbolTableRecord
100
AcDbBlockTableRecord
  2
*D18
 70
    0
280
    1
281
    0
  0
BLOCK_RECORD
  5
82
330
1
100
AcDbSymbolTableRecord
100
AcDbBlockTableRecord
  2
*D14
 70
    0
280
    1
281
    0
  0
BLOCK_RECORD
  5
85
330
1
100
AcDbSymbolTableRecord
100
AcDbBlockTableRecord
  2
*D9
 70
    0
280
    1
281
    0
  0
BLOCK_RECORD
  5
88
330
1
100
AcDbSymbolTableRecord
100
AcDbBlockTableRecord
  2
*D5
 70
    0
280
    1
281
    0
  0
BLOCK_RECORD
  5
8B
330
1
100
AcDbSymbolTableRecord
100
AcDbBlockTableRecord
  2
*D19
 70
    0
280
    1
281
    0
  0
BLOCK_RECORD
  5
8E
330
1
100
AcDbSymbolTableRecord
100
AcDbBlockTableRecord
  2
Wireling_Accelerometer_AST1001_REV1-DETAILED_DRAWING-DXF
 70
    0
280
    1
281
    0
  0
BLOCK_RECORD
  5
91
330
1
100
AcDbSymbolTableRecord
100
AcDbBlockTableRecord
  2
Wireling_JOYSTICK_AST1028_REV2-DETAILED_DRAWING-DXF
 70
    0
280
    1
281
    0
  0
ENDTAB
  0
ENDSEC
  0
SECTION
  2
BLOCKS
  0
BLOCK
  5
20
330
1F
100
AcDbEntity
  8
0
100
AcDbBlockBegin
  2
*Model_Space
 70
    0
 10
0
 20
0
 30
0
  3
*Model_Space
  1

  0
ENDBLK
  5
21
330
1F
100
AcDbEntity
  8
0
100
AcDbBlockEnd
  0
BLOCK
  5
1C
330
1B
100
AcDbEntity
  8
0
100
AcDbBlockBegin
  2
*Paper_Space
 70
    0
 10
0
 20
0
 30
0
  3
*Paper_Space
  1

  0
ENDBLK
  5
1D
330
1F
100
AcDbEntity
  8
0
100
AcDbBlockEnd
  0
BLOCK
  5
53
330
52
100
AcDbEntity
  8
0
100
AcDbBlockBegin
  2
*D6
 70
    1
 10
0
 20
0
  3
*D6
  1

  0
LINE
  5
94
100
AcDbEntity
  8
dim
  6
ByBlock
 62
    0
370
   -2
100
AcDbLine
 10
121.790159
 20
119
 11
127.790159
 21
119
  0
MTEXT
  5
95
100
AcDbEntity
  8
dim
  6
CONTINUOUS
 62
    0
370
   -2
100
AcDbMText
 10
124.790159
 20
119.9375
 30
0
 40
0.875
 41
0.471177295323248
 71
    5
 72
    1
  1
6
  7
cursive
210
0
220
0
230
1
 50
0
 73
    2
 44
1
  0
SOLID
  5
96
100
AcDbEntity
  8
dim
  6
ByBlock
 62
    0
370
   -2
100
AcDbTrace
 10
121.790159
 20
119
 30
0
 11
122.665159
 21
119.1456996302205
 31
0
 12
122.665159
 22
118.8543003697795
 32
0
 13
122.665159
 23
118.8543003697795
 33
0
  0
SOLID
  5
97
100
AcDbEntity
  8
dim
  6
ByBlock
 62
    0
370
   -2
100
AcDbTrace
 10
127.790159
 20
119
 30
0
 11
126.915159
 21
118.8543003697795
 31
0
 12
126.915159
 22
119.1456996302205
 32
0
 13
126.915159
 23
119.1456996302205
 33
0
  0
LINE
  5
98
100
AcDbEntity
  8
dim
  6
ByBlock
 62
    0
370
   -2
100
AcDbLine
 10
121.790159
 20
117.2259699602637
 11
121.790159
 21
120.625
  0
LINE
  5
99
100
AcDbEntity
  8
dim
  6
ByBlock
 62
    0
370
   -2
100
AcDbLine
 10
127.790159
 20
114.04016
 11
127.790159
 21
120.625
  0
ENDBLK
  5
54
330
52
100
AcDbEntity
  8
0
100
AcDbBlockEnd
  0
BLOCK
  5
56
330
55
100
AcDbEntity
  8
0
100
AcDbBlockBegin
  2
*D20
 70
    1
 10
0
 20
0
  3
*D20
  1

  0
LINE
  5
9A
100
AcDbEntity
  8
dim
  6
ByBlock
 62
    0
370
   -2
100
AcDbLine
 10
136.390159
 20
115
 11
140.190159
 21
115
  0
MTEXT
  5
9B
100
AcDbEntity
  8
dim
  6
CONTINUOUS
 62
    0
370
   -2
100
AcDbMText
 10
138.290159
 20
115.9375
 30
0
 40
0.875
 41
1.706172518047972
 71
    5
 72
    1
  1
3.8
  7
cursive
210
0
220
0
230
1
 50
0
 73
    2
 44
1
  0
SOLID
  5
9C
100
AcDbEntity
  8
dim
  6
ByBlock
 62
    0
370
   -2
100
AcDbTrace
 10
136.390159
 20
115
 30
0
 11
137.265159
 21
115.1456996302205
 31
0
 12
137.265159
 22
114.8543003697795
 32
0
 13
137.265159
 23
114.8543003697795
 33
0
  0
SOLID
  5
9D
100
AcDbEntity
  8
dim
  6
ByBlock
 62
    0
370
   -2
100
AcDbTrace
 10
140.190159
 20
115
 30
0
 11
139.315159
 21
114.8543003697795
 31
0
 12
139.315159
 22
115.1456996302205
 32
0
 13
139.315159
 23
115.1456996302205
 33
0
  0
LINE
  5
9E
100
AcDbEntity
  8
dim
  6
ByBlock
 62
    0
370
   -2
100
AcDbLine
 10
136.390159
 20
114.54016
 11
136.390159
 21
116.625
  0
LINE
  5
9F
100
AcDbEntity
  8
dim
  6
ByBlock
 62
    0
370
   -2
100
AcDbLine
 10
140.190159
 20
114.14016
 11
140.190159
 21
116.625
  0
ENDBLK
  5
57
330
55
100
AcDbEntity
  8
0
100
AcDbBlockEnd
  0
BLOCK
  5
59
330
58
100
AcDbEntity
  8
0
100
AcDbBlockBegin
  2
*D3
 70
    1
 10
0
 20
0
  3
*D3
  1

  0
LINE
  5
A0
100
AcDbEntity
  8
dim
  6
ByBlock
 62
    0
370
   -2
100
AcDbLine
 10
118
 20
106.44016
 11
118
 21
102.19016
  0
MTEXT
  5
A1
100
AcDbEntity
  8
dim
  6
CONTINUOUS
 62
    0
370
   -2
100
AcDbMText
 10
117.0625
 20
104.31516
 30
0
 40
0.875
 41
1.660008093039595
 71
    5
 72
    1
  1
4.3
  7
cursive
210
0
220
0
230
1
 50
90
 73
    2
 44
1
  0
SOLID
  5
A2
100
AcDbEntity
  8
dim
  6
ByBlock
 62
    0
370
   -2
100
AcDbTrace
 10
118
 20
106.44016
 30
0
 11
118.1456996302205
 21
105.56516
 31
0
 12
117.8543003697795
 22
105.56516
 32
0
 13
117.8543003697795
 23
105.56516
 33
0
  0
SOLID
  5
A3
100
AcDbEntity
  8
dim
  6
ByBlock
 62
    0
370
   -2
100
AcDbTrace
 10
118
 20
102.19016
 30
0
 11
117.8543003697795
 21
103.06516
 31
0
 12
118.1456996302205
 22
103.06516
 32
0
 13
118.1456996302205
 23
103.06516
 33
0
  0
LINE
  5
A4
100
AcDbEntity
  8
dim
  6
ByBlock
 62
    0
370
   -2
100
AcDbLine
 10
120.790159
 20
106.44016
 11
116.375
 21
106.44016
  0
LINE
  5
A5
100
AcDbEntity
  8
dim
  6
ByBlock
 62
    0
370
   -2
100
AcDbLine
 10
120.790159
 20
102.19016
 11
116.375
 21
102.19016
  0
ENDBLK
  5
5A
330
58
100
AcDbEntity
  8
0
100
AcDbBlockEnd
  0
BLOCK
  5
5C
330
5B
100
AcDbEntity
  8
0
100
AcDbBlockBegin
  2
*D10
 70
    1
 10
0
 20
0
  3
*D10
  1

  0
LINE
  5
A6
100
AcDbEntity
  8
dim
  6
ByBlock
 62
    0
370
   -2
100
AcDbLine
 10
136.390159
 20
100
 11
139.285159
 21
100
  0
MTEXT
  5
A7
100
AcDbEntity
  8
dim
  6
CONTINUOUS
 62
    0
370
   -2
100
AcDbMText
 10
137.837659
 20
100.9375
 30
0
 40
0.875
 41
1.646688588909285
 71
    5
 72
    1
  1
2.9
  7
cursive
210
0
220
0
230
1
 50
0
 73
    2
 44
1
  0
SOLID
  5
A8
100
AcDbEntity
  8
dim
  6
ByBlock
 62
    0
370
   -2
100
AcDbTrace
 10
136.390159
 20
100
 30
0
 11
137.265159
 21
100.1456996302205
 31
0
 12
137.265159
 22
99.85430036977951
 32
0
 13
137.265159
 23
99.85430036977951
 33
0
  0
SOLID
  5
A9
100
AcDbEntity
  8
dim
  6
ByBlock
 62
    0
370
   -2
100
AcDbTrace
 10
139.285159
 20
100
 30
0
 11
138.410159
 21
99.85430036977951
 31
0
 12
138.410159
 22
100.1456996302205
 32
0
 13
138.410159
 23
100.1456996302205
 33
0
  0
LINE
  5
AA
100
AcDbEntity
  8
dim
  6
ByBlock
 62
    0
370
   -2
100
AcDbLine
 10
136.390159
 20
101.54016
 11
136.390159
 21
98.375
  0
LINE
  5
AB
100
AcDbEntity
  8
dim
  6
ByBlock
 62
    0
370
   -2
100
AcDbLine
 10
139.285159
 20
101.69016
 11
139.285159
 21
98.375
  0
ENDBLK
  5
5D
330
5B
100
AcDbEntity
  8
0
100
AcDbBlockEnd
  0
BLOCK
  5
5F
330
5E
100
AcDbEntity
  8
0
100
AcDbBlockBegin
  2
*D15
 70
    1
 10
0
 20
0
  3
*D15
  1

  0
LINE
  5
AC
100
AcDbEntity
  8
dim
  6
ByBlock
 62
    0
370
   -2
100
AcDbLine
 10
169
 20
114
 11
169
 21
102
  0
MTEXT
  5
AD
100
AcDbEntity
  8
dim
  6
CONTINUOUS
 62
    0
370
   -2
100
AcDbMText
 10
168.0625
 20
108
 30
0
 40
0.875
 41
1.117380853535371
 71
    5
 72
    1
  1
12
  7
cursive
210
0
220
0
230
1
 50
90
 73
    2
 44
1
  0
SOLID
  5
AE
100
AcDbEntity
  8
dim
  6
ByBlock
 62
    0
370
   -2
100
AcDbTrace
 10
169
 20
114
 30
0
 11
169.1456996302205
 21
113.125
 31
0
 12
168.8543003697795
 22
113.125
 32
0
 13
168.8543003697795
 23
113.125
 33
0
  0
SOLID
  5
AF
100
AcDbEntity
  8
dim
  6
ByBlock
 62
    0
370
   -2
100
AcDbTrace
 10
169
 20
102
 30
0
 11
168.8543003697795
 21
102.875
 31
0
 12
169.1456996302205
 22
102.875
 32
0
 13
169.1456996302205
 23
102.875
 33
0
  0
LINE
  5
B0
100
AcDbEntity
  8
dim
  6
ByBlock
 62
    0
370
   -2
100
AcDbLine
 10
164.5
 20
114
 11
170.625
 21
114
  0
LINE
  5
B1
100
AcDbEntity
  8
dim
  6
ByBlock
 62
    0
370
   -2
100
AcDbLine
 10
164.5
 20
102
 11
170.625
 21
102
  0
ENDBLK
  5
60
330
5E
100
AcDbEntity
  8
0
100
AcDbBlockEnd
  0
BLOCK
  5
62
330
61
100
AcDbEntity
  8
0
100
AcDbBlockBegin
  2
*D4
 70
    1
 10
0
 20
0
  3
*D4
  1

  0
LINE
  5
B2
100
AcDbEntity
  8
dim
  6
ByBlock
 62
    0
370
   -2
100
AcDbLine
 10
123.040159
 20
117
 11
126.540159
 21
117
  0
MTEXT
  5
B3
100
AcDbEntity
  8
dim
  6
CONTINUOUS
 62
    0
370
   -2
100
AcDbMText
 10
124.790159
 20
117.9375
 30
0
 40
0.875
 41
1.797383093039595
 71
    5
 72
    1
  1
3.5
  7
cursive
210
0
220
0
230
1
 50
0
 73
    2
 44
1
  0
SOLID
  5
B4
100
AcDbEntity
  8
dim
  6
ByBlock
 62
    0
370
   -2
100
AcDbTrace
 10
123.040159
 20
117
 30
0
 11
123.915159
 21
117.1456996302205
 31
0
 12
123.915159
 22
116.8543003697795
 32
0
 13
123.915159
 23
116.8543003697795
 33
0
  0
SOLID
  5
B5
100
AcDbEntity
  8
dim
  6
ByBlock
 62
    0
370
   -2
100
AcDbTrace
 10
126.540159
 20
117
 30
0
 11
125.665159
 21
116.8543003697795
 31
0
 12
125.665159
 22
117.1456996302205
 32
0
 13
125.665159
 23
117.1456996302205
 33
0
  0
LINE
  5
B6
100
AcDbEntity
  8
dim
  6
ByBlock
 62
    0
370
   -2
100
AcDbLine
 10
123.040159
 20
111.14016
 11
123.040159
 21
118.625
  0
LINE
  5
B7
100
AcDbEntity
  8
dim
  6
ByBlock
 62
    0
370
   -2
100
AcDbLine
 10
126.540159
 20
111.14016
 11
126.540159
 21
118.625
  0
ENDBLK
  5
63
330
61
100
AcDbEntity
  8
0
100
AcDbBlockEnd
  0
BLOCK
  5
65
330
64
100
AcDbEntity
  8
0
100
AcDbBlockBegin
  2
*D8
 70
    1
 10
0
 20
0
  3
*D8
  1

  0
LINE
  5
B8
100
AcDbEntity
  8
dim
  6
ByBlock
 62
    0
370
   -2
100
AcDbLine
 10
148
 20
112.29016
 11
148
 21
108.99016
  0
MTEXT
  5
B9
100
AcDbEntity
  8
dim
  6
CONTINUOUS
 62
    0
370
   -2
100
AcDbMText
 10
147.0625
 20
110.64016
 30
0
 40
0.875
 41
1.751448408301412
 71
    5
 72
    1
  1
3.3
  7
cursive
210
0
220
0
230
1
 50
90
 73
    2
 44
1
  0
SOLID
  5
BA
100
AcDbEntity
  8
dim
  6
ByBlock
 62
    0
370
   -2
100
AcDbTrace
 10
148
 20
112.29016
 30
0
 11
148.1456996302205
 21
111.41516
 31
0
 12
147.8543003697795
 22
111.41516
 32
0
 13
147.8543003697795
 23
111.41516
 33
0
  0
SOLID
  5
BB
100
AcDbEntity
  8
dim
  6
ByBlock
 62
    0
370
   -2
100
AcDbTrace
 10
148
 20
108.99016
 30
0
 11
147.8543003697795
 21
109.86516
 31
0
 12
148.1456996302205
 22
109.86516
 32
0
 13
148.1456996302205
 23
109.86516
 33
0
  0
LINE
  5
BC
100
AcDbEntity
  8
dim
  6
ByBlock
 62
    0
370
   -2
100
AcDbLine
 10
146.620159
 20
112.29016
 11
149.625
 21
112.29016
  0
LINE
  5
BD
100
AcDbEntity
  8
dim
  6
ByBlock
 62
    0
370
   -2
100
AcDbLine
 10
146.620159
 20
108.99016
 11
149.625
 21
108.99016
  0
ENDBLK
  5
66
330
64
100
AcDbEntity
  8
0
100
AcDbBlockEnd
  0
BLOCK
  5
68
330
67
100
AcDbEntity
  8
0
100
AcDbBlockBegin
  2
*D13
 70
    1
 10
0
 20
0
  3
*D13
  1

  0
SOLID
  5
BE
100
AcDbEntity
  8
dim
  6
ByBlock
 62
    0
370
   -2
100
AcDbTrace
 10
154.0976550485659
 20
110.1513157798074
 30
0
 11
154.9216743582738
 21
109.8229173031438
 31
0
 12
154.7707969705363
 22
109.5736192027599
 32
0
 13
154.7707969705363
 23
109.5736192027599
 33
0
  0
LINE
  5
BF
100
AcDbEntity
  8
dim
  6
ByBlock
 62
    0
370
   -2
100
AcDbLine
 10
153.455159
 20
110.54016
 11
159.7779610779243
 21
106.713544958693
  0
MTEXT
  5
C0
100
AcDbEntity
  8
dim
  6
CONTINUOUS
 62
    0
370
   -2
100
AcDbMText
 10
157.4232161277331
 20
109.2344810290776
 30
0
 40
0.875
 41
4.889589204587161
 71
    5
 72
    1
  1
2x R0.8
  7
cursive
210
0
220
0
230
1
 50
328.8173075866144
 73
    2
 44
1
  0
ENDBLK
  5
69
330
67
100
AcDbEntity
  8
0
100
AcDbBlockEnd
  0
BLOCK
  5
6B
330
6A
100
AcDbEntity
  8
0
100
AcDbBlockBegin
  2
*D11
 70
    1
 10
0
 20
0
  3
*D11
  1

  0
LINE
  5
C1
100
AcDbEntity
  8
dim
  6
ByBlock
 62
    0
370
   -2
100
AcDbLine
 10
141
 20
102.04016
 11
141
 21
104.31516
  0
MTEXT
  5
C2
100
AcDbEntity
  8
dim
  6
CONTINUOUS
 62
    0
370
   -2
100
AcDbMText
 10
140.0625
 20
103.17766
 30
0
 40
0.875
 41
1.7530585299083
 71
    5
 72
    1
  1
2.3
  7
cursive
210
0
220
0
230
1
 50
90
 73
    2
 44
1
  0
SOLID
  5
C3
100
AcDbEntity
  8
dim
  6
ByBlock
 62
    0
370
   -2
100
AcDbTrace
 10
141
 20
102.04016
 30
0
 11
140.8543003697795
 21
102.91516
 31
0
 12
141.1456996302205
 22
102.91516
 32
0
 13
141.1456996302205
 23
102.91516
 33
0
  0
SOLID
  5
C4
100
AcDbEntity
  8
dim
  6
ByBlock
 62
    0
370
   -2
100
AcDbTrace
 10
141
 20
104.31516
 30
0
 11
141.1456996302205
 21
103.44016
 31
0
 12
140.8543003697795
 22
103.44016
 32
0
 13
140.8543003697795
 23
103.44016
 33
0
  0
LINE
  5
C5
100
AcDbEntity
  8
dim
  6
ByBlock
 62
    0
370
   -2
100
AcDbLine
 10
136.890159
 20
102.04016
 11
142.625
 21
102.04016
  0
LINE
  5
C6
100
AcDbEntity
  8
dim
  6
ByBlock
 62
    0
370
   -2
100
AcDbLine
 10
139.785159
 20
104.31516
 11
142.625
 21
104.31516
  0
ENDBLK
  5
6C
330
6A
100
AcDbEntity
  8
0
100
AcDbBlockEnd
  0
BLOCK
  5
6E
330
6D
100
AcDbEntity
  8
0
100
AcDbBlockBegin
  2
*D2
 70
    1
 10
0
 20
0
  3
*D2
  1

  0
LINE
  5
C7
100
AcDbEntity
  8
dim
  6
ByBlock
 62
    0
370
   -2
100
AcDbLine
 10
121.290159
 20
96
 11
128.290159
 21
96
  0
MTEXT
  5
C8
100
AcDbEntity
  8
dim
  6
CONTINUOUS
 62
    0
370
   -2
100
AcDbMText
 10
124.790159
 20
96.9375
 30
0
 40
0.875
 41
0.4289006944444445
 71
    5
 72
    1
  1
7
  7
cursive
210
0
220
0
230
1
 50
0
 73
    2
 44
1
  0
SOLID
  5
C9
100
AcDbEntity
  8
dim
  6
ByBlock
 62
    0
370
   -2
100
AcDbTrace
 10
121.290159
 20
96
 30
0
 11
122.165159
 21
96.14569963022049
 31
0
 12
122.165159
 22
95.85430036977951
 32
0
 13
122.165159
 23
95.85430036977951
 33
0
  0
SOLID
  5
CA
100
AcDbEntity
  8
dim
  6
ByBlock
 62
    0
370
   -2
100
AcDbTrace
 10
128.290159
 20
96
 30
0
 11
127.415159
 21
95.85430036977951
 31
0
 12
127.415159
 22
96.14569963022049
 32
0
 13
127.415159
 23
96.14569963022049
 33
0
  0
LINE
  5
CB
100
AcDbEntity
  8
dim
  6
ByBlock
 62
    0
370
   -2
100
AcDbLine
 10
121.290159
 20
101.69016
 11
121.290159
 21
94.375
  0
LINE
  5
CC
100
AcDbEntity
  8
dim
  6
ByBlock
 62
    0
370
   -2
100
AcDbLine
 10
128.290159
 20
101.69016
 11
128.290159
 21
94.375
  0
ENDBLK
  5
6F
330
6D
100
AcDbEntity
  8
0
100
AcDbBlockEnd
  0
BLOCK
  5
71
330
70
100
AcDbEntity
  8
0
100
AcDbBlockBegin
  2
*D16
 70
    1
 10
0
 20
0
  3
*D16
  1

  0
LINE
  5
CD
100
AcDbEntity
  8
dim
  6
ByBlock
 62
    0
370
   -2
100
AcDbLine
 10
162.455159
 20
114.04016
 11
162.455159
 21
110.54016
  0
MTEXT
  5
CE
100
AcDbEntity
  8
dim
  6
CONTINUOUS
 62
    0
370
   -2
100
AcDbMText
 10
161.517659
 20
116.6208263482875
 30
0
 40
0.875
 41
4.161332696574966
 71
    5
 72
    1
  1
2x 3.5
  7
cursive
210
0
220
0
230
1
 50
90
 73
    2
 44
1
  0
SOLID
  5
CF
100
AcDbEntity
  8
dim
  6
ByBlock
 62
    0
370
   -2
100
AcDbTrace
 10
162.455159
 20
114.04016
 30
0
 11
162.6008586302205
 21
113.16516
 31
0
 12
162.3094593697795
 22
113.16516
 32
0
 13
162.3094593697795
 23
113.16516
 33
0
  0
SOLID
  5
D0
100
AcDbEntity
  8
dim
  6
ByBlock
 62
    0
370
   -2
100
AcDbTrace
 10
162.455159
 20
110.54016
 30
0
 11
162.3094593697795
 21
111.41516
 31
0
 12
162.6008586302205
 22
111.41516
 32
0
 13
162.6008586302205
 23
111.41516
 33
0
  0
LINE
  5
D1
100
AcDbEntity
  8
dim
  6
ByBlock
 62
    0
370
   -2
100
AcDbLine
 10
163.455159
 20
114.04016
 11
160.830159
 21
114.04016
  0
LINE
  5
D2
100
AcDbEntity
  8
dim
  6
ByBlock
 62
    0
370
   -2
100
AcDbLine
 10
161.955159
 20
110.54016
 11
160.830159
 21
110.54016
  0
ENDBLK
  5
72
330
70
100
AcDbEntity
  8
0
100
AcDbBlockEnd
  0
BLOCK
  5
74
330
73
100
AcDbEntity
  8
0
100
AcDbBlockBegin
  2
*D12
 70
    1
 10
0
 20
0
  3
*D12
  1

  0
LINE
  5
D3
100
AcDbEntity
  8
dim
  6
ByBlock
 62
    0
370
   -2
100
AcDbLine
 10
134.040159
 20
100
 11
138.140159
 21
100
  0
MTEXT
  5
D4
100
AcDbEntity
  8
dim
  6
CONTINUOUS
 62
    0
370
   -2
100
AcDbMText
 10
134.5531421055086
 20
101
 30
0
 40
0.875
 41
1.506284211017288
 71
    5
 72
    1
  1
0.6
  7
cursive
210
0
220
0
230
1
 50
0
 73
    2
 44
1
  0
SOLID
  5
D5
100
AcDbEntity
  8
dim
  6
ByBlock
 62
    0
370
   -2
100
AcDbTrace
 10
135.790159
 20
100
 30
0
 11
134.915159
 21
99.85430036977951
 31
0
 12
134.915159
 22
100.1456996302205
 32
0
 13
134.915159
 23
100.1456996302205
 33
0
  0
SOLID
  5
D6
100
AcDbEntity
  8
dim
  6
ByBlock
 62
    0
370
   -2
100
AcDbTrace
 10
136.390159
 20
100
 30
0
 11
137.265159
 21
100.1456996302205
 31
0
 12
137.265159
 22
99.85430036977951
 32
0
 13
137.265159
 23
99.85430036977951
 33
0
  0
LINE
  5
D7
100
AcDbEntity
  8
dim
  6
ByBlock
 62
    0
370
   -2
100
AcDbLine
 10
135.790159
 20
101.54016
 11
135.790159
 21
98.375
  0
LINE
  5
D8
100
AcDbEntity
  8
dim
  6
ByBlock
 62
    0
370
   -2
100
AcDbLine
 10
136.390159
 20
101.54016
 11
136.390159
 21
98.375
  0
ENDBLK
  5
75
330
73
100
AcDbEntity
  8
0
100
AcDbBlockEnd
  0
BLOCK
  5
77
330
76
100
AcDbEntity
  8
0
100
AcDbBlockBegin
  2
*D17
 70
    1
 10
0
 20
0
  3
*D17
  1

  0
LINE
  5
D9
100
AcDbEntity
  8
dim
  6
ByBlock
 62
    0
370
   -2
100
AcDbLine
 10
165.705159
 20
110.54016
 11
160.705159
 21
110.54016
  0
MTEXT
  5
DA
100
AcDbEntity
  8
dim
  6
CONTINUOUS
 62
    0
370
   -2
100
AcDbMText
 10
166.3703259545455
 20
111.47766
 30
0
 40
0.875
 41
3.830333909090927
 71
    5
 72
    1
  1
2x 1.5
  7
cursive
210
0
220
0
230
1
 50
0
 73
    2
 44
1
  0
SOLID
  5
DB
100
AcDbEntity
  8
dim
  6
ByBlock
 62
    0
370
   -2
100
AcDbTrace
 10
163.955159
 20
110.54016
 30
0
 11
164.830159
 21
110.6858596302205
 31
0
 12
164.830159
 22
110.3944603697795
 32
0
 13
164.830159
 23
110.3944603697795
 33
0
  0
SOLID
  5
DC
100
AcDbEntity
  8
dim
  6
ByBlock
 62
    0
370
   -2
100
AcDbTrace
 10
162.455159
 20
110.54016
 30
0
 11
161.580159
 21
110.3944603697795
 31
0
 12
161.580159
 22
110.6858596302205
 32
0
 13
161.580159
 23
110.6858596302205
 33
0
  0
LINE
  5
DD
100
AcDbEntity
  8
dim
  6
ByBlock
 62
    0
370
   -2
100
AcDbLine
 10
163.955159
 20
113.54016
 11
163.955159
 21
108.91516
  0
LINE
  5
DE
100
AcDbEntity
  8
dim
  6
ByBlock
 62
    0
370
   -2
100
AcDbLine
 10
162.455159
 20
110.04016
 11
162.455159
 21
108.91516
  0
ENDBLK
  5
78
330
76
100
AcDbEntity
  8
0
100
AcDbBlockEnd
  0
BLOCK
  5
7A
330
79
100
AcDbEntity
  8
0
100
AcDbBlockBegin
  2
*D1
 70
    1
 10
0
 20
0
  3
*D1
  1

  0
LINE
  5
DF
100
AcDbEntity
  8
dim
  6
ByBlock
 62
    0
370
   -2
100
AcDbLine
 10
118.790159
 20
100
 11
124.790159
 21
100
  0
MTEXT
  5
E0
100
AcDbEntity
  8
dim
  6
CONTINUOUS
 62
    0
370
   -2
100
AcDbMText
 10
121.790159
 20
100.9375
 30
0
 40
0.875
 41
0.471177295323248
 71
    5
 72
    1
  1
6
  7
cursive
210
0
220
0
230
1
 50
0
 73
    2
 44
1
  0
SOLID
  5
E1
100
AcDbEntity
  8
dim
  6
ByBlock
 62
    0
370
   -2
100
AcDbTrace
 10
118.790159
 20
100
 30
0
 11
119.665159
 21
100.1456996302205
 31
0
 12
119.665159
 22
99.85430036977951
 32
0
 13
119.665159
 23
99.85430036977951
 33
0
  0
SOLID
  5
E2
100
AcDbEntity
  8
dim
  6
ByBlock
 62
    0
370
   -2
100
AcDbTrace
 10
124.790159
 20
100
 30
0
 11
123.915159
 21
99.85430036977951
 31
0
 12
123.915159
 22
100.1456996302205
 32
0
 13
123.915159
 23
100.1456996302205
 33
0
  0
LINE
  5
E3
100
AcDbEntity
  8
dim
  6
ByBlock
 62
    0
370
   -2
100
AcDbLine
 10
118.790159
 20
101.54016
 11
118.790159
 21
98.375
  0
LINE
  5
E4
100
AcDbEntity
  8
dim
  6
ByBlock
 62
    0
370
   -2
100
AcDbLine
 10
124.790159
 20
101.69016
 11
124.790159
 21
98.375
  0
ENDBLK
  5
7B
330
79
100
AcDbEntity
  8
0
100
AcDbBlockEnd
  0
BLOCK
  5
7D
330
7C
100
AcDbEntity
  8
0
100
AcDbBlockBegin
  2
*D7
 70
    1
 10
0
 20
0
  3
*D7
  1

  0
LINE
  5
E5
100
AcDbEntity
  8
dim
  6
ByBlock
 62
    0
370
   -2
100
AcDbLine
 10
139
 20
108.89016
 11
139
 21
112.39016
  0
MTEXT
  5
E6
100
AcDbEntity
  8
dim
  6
CONTINUOUS
 62
    0
370
   -2
100
AcDbMText
 10
138.0625
 20
110.64016
 30
0
 40
0.875
 41
1.797383093039595
 71
    5
 72
    1
  1
3.5
  7
cursive
210
0
220
0
230
1
 50
90
 73
    2
 44
1
  0
SOLID
  5
E7
100
AcDbEntity
  8
dim
  6
ByBlock
 62
    0
370
   -2
100
AcDbTrace
 10
139
 20
108.89016
 30
0
 11
138.8543003697795
 21
109.76516
 31
0
 12
139.1456996302205
 22
109.76516
 32
0
 13
139.1456996302205
 23
109.76516
 33
0
  0
SOLID
  5
E8
100
AcDbEntity
  8
dim
  6
ByBlock
 62
    0
370
   -2
100
AcDbTrace
 10
139
 20
112.39016
 30
0
 11
139.1456996302205
 21
111.51516
 31
0
 12
138.8543003697795
 22
111.51516
 32
0
 13
138.8543003697795
 23
111.51516
 33
0
  0
LINE
  5
E9
100
AcDbEntity
  8
dim
  6
ByBlock
 62
    0
370
   -2
100
AcDbLine
 10
139.690159
 20
108.89016
 11
137.375
 21
108.89016
  0
LINE
  5
EA
100
AcDbEntity
  8
dim
  6
ByBlock
 62
    0
370
   -2
100
AcDbLine
 10
139.690159
 20
112.39016
 11
137.375
 21
112.39016
  0
ENDBLK
  5
7E
330
7C
100
AcDbEntity
  8
0
100
AcDbBlockEnd
  0
BLOCK
  5
80
330
7F
100
AcDbEntity
  8
0
100
AcDbBlockBegin
  2
*D18
 70
    1
 10
0
 20
0
  3
*D18
  1

  0
LINE
  5
EB
100
AcDbEntity
  8
dim
  6
ByBlock
 62
    0
370
   -2
100
AcDbLine
 10
136.390159
 20
118
 11
146.120159
 21
118
  0
MTEXT
  5
EC
100
AcDbEntity
  8
dim
  6
CONTINUOUS
 62
    0
370
   -2
100
AcDbMText
 10
141.255159
 20
118.9375
 30
0
 40
0.875
 41
1.496427735373914
 71
    5
 72
    1
  1
9.7
  7
cursive
210
0
220
0
230
1
 50
0
 73
    2
 44
1
  0
SOLID
  5
ED
100
AcDbEntity
  8
dim
  6
ByBlock
 62
    0
370
   -2
100
AcDbTrace
 10
136.390159
 20
118
 30
0
 11
137.265159
 21
118.1456996302205
 31
0
 12
137.265159
 22
117.8543003697795
 32
0
 13
137.265159
 23
117.8543003697795
 33
0
  0
SOLID
  5
EE
100
AcDbEntity
  8
dim
  6
ByBlock
 62
    0
370
   -2
100
AcDbTrace
 10
146.120159
 20
118
 30
0
 11
145.245159
 21
117.8543003697795
 31
0
 12
145.245159
 22
118.1456996302205
 32
0
 13
145.245159
 23
118.1456996302205
 33
0
  0
LINE
  5
EF
100
AcDbEntity
  8
dim
  6
ByBlock
 62
    0
370
   -2
100
AcDbLine
 10
136.390159
 20
114.54016
 11
136.390159
 21
119.625
  0
LINE
  5
F0
100
AcDbEntity
  8
dim
  6
ByBlock
 62
    0
370
   -2
100
AcDbLine
 10
146.120159
 20
112.79016
 11
146.120159
 21
119.625
  0
ENDBLK
  5
81
330
7F
100
AcDbEntity
  8
0
100
AcDbBlockEnd
  0
BLOCK
  5
83
330
82
100
AcDbEntity
  8
0
100
AcDbBlockBegin
  2
*D14
 70
    1
 10
0
 20
0
  3
*D14
  1

  0
LINE
  5
F1
100
AcDbEntity
  8
dim
  6
ByBlock
 62
    0
370
   -2
100
AcDbLine
 10
152
 20
119
 11
163.955159
 21
119
  0
MTEXT
  5
F2
100
AcDbEntity
  8
dim
  6
CONTINUOUS
 62
    0
370
   -2
100
AcDbMText
 10
157.9775795
 20
119.9375
 30
0
 40
0.875
 41
1.117380853535371
 71
    5
 72
    1
  1
12
  7
cursive
210
0
220
0
230
1
 50
0
 73
    2
 44
1
  0
SOLID
  5
F3
100
AcDbEntity
  8
dim
  6
ByBlock
 62
    0
370
   -2
100
AcDbTrace
 10
152
 20
119
 30
0
 11
152.875
 21
119.1456996302205
 31
0
 12
152.875
 22
118.8543003697795
 32
0
 13
152.875
 23
118.8543003697795
 33
0
  0
SOLID
  5
F4
100
AcDbEntity
  8
dim
  6
ByBlock
 62
    0
370
   -2
100
AcDbTrace
 10
163.955159
 20
119
 30
0
 11
163.080159
 21
118.8543003697795
 31
0
 12
163.080159
 22
119.1456996302205
 32
0
 13
163.080159
 23
119.1456996302205
 33
0
  0
LINE
  5
F5
100
AcDbEntity
  8
dim
  6
ByBlock
 62
    0
370
   -2
100
AcDbLine
 10
152
 20
114.5
 11
152
 21
120.625
  0
LINE
  5
F6
100
AcDbEntity
  8
dim
  6
ByBlock
 62
    0
370
   -2
100
AcDbLine
 10
163.955159
 20
114.54016
 11
163.955159
 21
120.625
  0
ENDBLK
  5
84
330
82
100
AcDbEntity
  8
0
100
AcDbBlockEnd
  0
BLOCK
  5
86
330
85
100
AcDbEntity
  8
0
100
AcDbBlockBegin
  2
*D9
 70
    1
 10
0
 20
0
  3
*D9
  1

  0
LINE
  5
F7
100
AcDbEntity
  8
dim
  6
ByBlock
 62
    0
370
   -2
100
AcDbLine
 10
135
 20
114.04016
 11
135
 21
110.64016
  0
MTEXT
  5
F8
100
AcDbEntity
  8
dim
  6
CONTINUOUS
 62
    0
370
   -2
100
AcDbMText
 10
134.0625
 20
112.34016
 30
0
 40
0.875
 41
1.660008093039595
 71
    5
 72
    1
  1
3.4
  7
cursive
210
0
220
0
230
1
 50
90
 73
    2
 44
1
  0
SOLID
  5
F9
100
AcDbEntity
  8
dim
  6
ByBlock
 62
    0
370
   -2
100
AcDbTrace
 10
135
 20
114.04016
 30
0
 11
135.1456996302205
 21
113.16516
 31
0
 12
134.8543003697795
 22
113.16516
 32
0
 13
134.8543003697795
 23
113.16516
 33
0
  0
SOLID
  5
FA
100
AcDbEntity
  8
dim
  6
ByBlock
 62
    0
370
   -2
100
AcDbTrace
 10
135
 20
110.64016
 30
0
 11
134.8543003697795
 21
111.51516
 31
0
 12
135.1456996302205
 22
111.51516
 32
0
 13
135.1456996302205
 23
111.51516
 33
0
  0
LINE
  5
FB
100
AcDbEntity
  8
dim
  6
ByBlock
 62
    0
370
   -2
100
AcDbLine
 10
135.290159
 20
114.04016
 11
133.375
 21
114.04016
  0
LINE
  5
FC
100
AcDbEntity
  8
dim
  6
ByBlock
 62
    0
370
   -2
100
AcDbLine
 10
135.890159
 20
110.64016
 11
133.375
 21
110.64016
  0
ENDBLK
  5
87
330
85
100
AcDbEntity
  8
0
100
AcDbBlockEnd
  0
BLOCK
  5
89
330
88
100
AcDbEntity
  8
0
100
AcDbBlockBegin
  2
*D5
 70
    1
 10
0
 20
0
  3
*D5
  1

  0
LINE
  5
FD
100
AcDbEntity
  8
dim
  6
ByBlock
 62
    0
370
   -2
100
AcDbLine
 10
118.790159
 20
115
 11
124.790159
 21
115
  0
MTEXT
  5
FE
100
AcDbEntity
  8
dim
  6
CONTINUOUS
 62
    0
370
   -2
100
AcDbMText
 10
121.790159
 20
115.9375
 30
0
 40
0.875
 41
0.471177295323248
 71
    5
 72
    1
  1
6
  7
cursive
210
0
220
0
230
1
 50
0
 73
    2
 44
1
  0
SOLID
  5
FF
100
AcDbEntity
  8
dim
  6
ByBlock
 62
    0
370
   -2
100
AcDbTrace
 10
118.790159
 20
115
 30
0
 11
119.665159
 21
115.1456996302205
 31
0
 12
119.665159
 22
114.8543003697795
 32
0
 13
119.665159
 23
114.8543003697795
 33
0
  0
SOLID
  5
100
100
AcDbEntity
  8
dim
  6
ByBlock
 62
    0
370
   -2
100
AcDbTrace
 10
124.790159
 20
115
 30
0
 11
123.915159
 21
114.8543003697795
 31
0
 12
123.915159
 22
115.1456996302205
 32
0
 13
123.915159
 23
115.1456996302205
 33
0
  0
LINE
  5
101
100
AcDbEntity
  8
dim
  6
ByBlock
 62
    0
370
   -2
100
AcDbLine
 10
118.790159
 20
114.54016
 11
118.790159
 21
116.625
  0
LINE
  5
102
100
AcDbEntity
  8
dim
  6
ByBlock
 62
    0
370
   -2
100
AcDbLine
 10
124.790159
 20
114.14016
 11
124.790159
 21
116.625
  0
ENDBLK
  5
8A
330
88
100
AcDbEntity
  8
0
100
AcDbBlockEnd
  0
BLOCK
  5
8C
330
8B
100
AcDbEntity
  8
0
100
AcDbBlockBegin
  2
*D19
 70
    1
 10
0
 20
0
  3
*D19
  1

  0
LINE
  5
103
100
AcDbEntity
  8
dim
  6
ByBlock
 62
    0
370
   -2
100
AcDbLine
 10
135.790159
 20
121
 11
146.120159
 21
121
  0
MTEXT
  5
104
100
AcDbEntity
  8
dim
  6
CONTINUOUS
 62
    0
370
   -2
100
AcDbMText
 10
140.955159
 20
121.9375
 30
0
 40
0.875
 41
2.150870879398108
 71
    5
 72
    1
  1
10.3
  7
cursive
210
0
220
0
230
1
 50
0
 73
    2
 44
1
  0
SOLID
  5
105
100
AcDbEntity
  8
dim
  6
ByBlock
 62
    0
370
   -2
100
AcDbTrace
 10
135.790159
 20
121
 30
0
 11
136.665159
 21
121.1456996302205
 31
0
 12
136.665159
 22
120.8543003697795
 32
0
 13
136.665159
 23
120.8543003697795
 33
0
  0
SOLID
  5
106
100
AcDbEntity
  8
dim
  6
ByBlock
 62
    0
370
   -2
100
AcDbTrace
 10
146.120159
 20
121
 30
0
 11
145.245159
 21
120.8543003697795
 31
0
 12
145.245159
 22
121.1456996302205
 32
0
 13
145.245159
 23
121.1456996302205
 33
0
  0
LINE
  5
107
100
AcDbEntity
  8
dim
  6
ByBlock
 62
    0
370
   -2
100
AcDbLine
 10
135.790159
 20
114.54016
 11
135.790159
 21
122.625
  0
LINE
  5
108
100
AcDbEntity
  8
dim
  6
ByBlock
 62
    0
370
   -2
100
AcDbLine
 10
146.120159
 20
112.79016
 11
146.120159
 21
122.625
  0
ENDBLK
  5
8D
330
8B
100
AcDbEntity
  8
0
100
AcDbBlockEnd
  0
BLOCK
  5
8F
330
8E
100
AcDbEntity
  8
0
100
AcDbBlockBegin
  2
Wireling_Accelerometer_AST1001_REV1-DETAILED_DRAWING-DXF
 70
    0
 10
0
 20
0
  3
Wireling_Accelerometer_AST1001_REV1-DETAILED_DRAWING-DXF
  1

  0
ENDBLK
  5
90
330
8E
100
AcDbEntity
  8
0
100
AcDbBlockEnd
  0
BLOCK
  5
92
330
91
100
AcDbEntity
  8
0
100
AcDbBlockBegin
  2
Wireling_JOYSTICK_AST1028_REV2-DETAILED_DRAWING-DXF
 70
    0
 10
0
 20
0
  3
Wireling_JOYSTICK_AST1028_REV2-DETAILED_DRAWING-DXF
  1

  0
LINE
  5
109
100
AcDbEntity
  8
ProjItem
  6
ByLayer
 62
  256
370
   -1
100
AcDbLine
 10
118.7
 20
101.95
 11
130.7
 21
101.95
  0
LINE
  5
10A
100
AcDbEntity
  8
ProjItem
  6
ByLayer
 62
  256
370
   -1
100
AcDbLine
 10
118.7
 20
113.95
 11
118.7
 21
101.95
  0
LINE
  5
10B
100
AcDbEntity
  8
ProjItem
  6
ByLayer
 62
  256
370
   -1
100
AcDbLine
 10
130.7
 20
101.95
 11
130.7
 21
113.95
  0
LINE
  5
10C
100
AcDbEntity
  8
ProjItem
  6
ByLayer
 62
  256
370
   -1
100
AcDbLine
 10
130.7
 20
113.95
 11
118.7
 21
113.95
  0
CIRCLE
  5
10D
100
AcDbEntity
  8
ProjItem
  6
ByLayer
 62
  256
370
   -1
100
AcDbCircle
 10
120.2
 20
110.45
 40
0.751
  0
CIRCLE
  5
10E
100
AcDbEntity
  8
ProjItem
  6
ByLayer
 62
  256
370
   -1
100
AcDbCircle
 10
129.2
 20
110.45
 40
0.751
  0
LINE
  5
10F
100
AcDbEntity
  8
ProjItem
  6
ByLayer
 62
  256
370
   -1
100
AcDbLine
 10
118.7
 20
101.95
 11
130.7
 21
101.95
  0
LINE
  5
110
100
AcDbEntity
  8
ProjItem
  6
ByLayer
 62
  256
370
   -1
100
AcDbLine
 10
118.7
 20
113.95
 11
118.7
 21
101.95
  0
LINE
  5
111
100
AcDbEntity
  8
ProjItem
  6
ByLayer
 62
  256
370
   -1
100
AcDbLine
 10
130.7
 20
101.95
 11
130.7
 21
113.95
  0
LINE
  5
112
100
AcDbEntity
  8
ProjItem
  6
ByLayer
 62
  256
370
   -1
100
AcDbLine
 10
130.7
 20
113.95
 11
118.7
 21
113.95
  0
CIRCLE
  5
113
100
AcDbEntity
  8
ProjItem
  6
ByLayer
 62
  256
370
   -1
100
AcDbCircle
 10
120.2
 20
110.45
 40
0.751
  0
CIRCLE
  5
114
100
AcDbEntity
  8
ProjItem
  6
ByLayer
 62
  256
370
   -1
100
AcDbCircle
 10
129.2
 20
110.45
 40
0.751
  0
LINE
  5
115
100
AcDbEntity
  8
ProjItem
  6
ByLayer
 62
  256
370
   -1
100
AcDbLine
 10
128.2
 20
102.1
 11
121.2
 21
102.1
  0
LINE
  5
116
100
AcDbEntity
  8
ProjItem
  6
ByLayer
 62
  256
370
   -1
100
AcDbLine
 10
121.2
 20
105.151
 11
121.2
 21
102.1
  0
LINE
  5
117
100
AcDbEntity
  8
ProjItem
  6
ByLayer
 62
  256
370
   -1
100
AcDbLine
 10
121.7
 20
105.151
 11
121.2
 21
105.151
  0
LINE
  5
118
100
AcDbEntity
  8
ProjItem
  6
ByLayer
 62
  256
370
   -1
100
AcDbLine
 10
121.7
 20
105.151
 11
121.7
 21
105.8
  0
LINE
  5
119
100
AcDbEntity
  8
ProjItem
  6
ByLayer
 62
  256
370
   -1
100
AcDbLine
 10
127.7
 20
105.8
 11
121.7
 21
105.8
  0
LINE
  5
11A
100
AcDbEntity
  8
ProjItem
  6
ByLayer
 62
  256
370
   -1
100
AcDbLine
 10
127.7
 20
105.151
 11
127.7
 21
105.8
  0
LINE
  5
11B
100
AcDbEntity
  8
ProjItem
  6
ByLayer
 62
  256
370
   -1
100
AcDbLine
 10
128.2
 20
105.151
 11
127.7
 21
105.151
  0
LINE
  5
11C
100
AcDbEntity
  8
ProjItem
  6
ByLayer
 62
  256
370
   -1
100
AcDbLine
 10
128.2
 20
102.1
 11
128.2
 21
105.151
  0
LINE
  5
11D
100
AcDbEntity
  8
ProjItem
  6
ByLayer
 62
  256
370
   -1
100
AcDbLine
 10
128.2
 20
105.151
 11
128.2
 21
105.8
  0
LINE
  5
11E
100
AcDbEntity
  8
ProjItem
  6
ByLayer
 62
  256
370
   -1
100
AcDbLine
 10
128.2
 20
105.8
 11
128.2
 21
106.35
  0
LINE
  5
11F
100
AcDbEntity
  8
ProjItem
  6
ByLayer
 62
  256
370
   -1
100
AcDbLine
 10
121.2
 20
105.8
 11
121.2
 21
106.35
  0
LINE
  5
120
100
AcDbEntity
  8
ProjItem
  6
ByLayer
 62
  256
370
   -1
100
AcDbLine
 10
121.2
 20
105.151
 11
121.2
 21
105.8
  0
LINE
  5
121
100
AcDbEntity
  8
ProjItem
  6
ByLayer
 62
  256
370
   -1
100
AcDbLine
 10
127.7
 20
105.8
 11
128.2
 21
105.8
  0
LINE
  5
122
100
AcDbEntity
  8
ProjItem
  6
ByLayer
 62
  256
370
   -1
100
AcDbLine
 10
127.7
 20
106.35
 11
128.2
 21
106.35
  0
LINE
  5
123
100
AcDbEntity
  8
ProjItem
  6
ByLayer
 62
  256
370
   -1
100
AcDbLine
 10
121.7
 20
106.35
 11
127.7
 21
106.35
  0
LINE
  5
124
100
AcDbEntity
  8
ProjItem
  6
ByLayer
 62
  256
370
   -1
100
AcDbLine
 10
121.7
 20
106.35
 11
121.2
 21
106.35
  0
LINE
  5
125
100
AcDbEntity
  8
ProjItem
  6
ByLayer
 62
  256
370
   -1
100
AcDbLine
 10
121.7
 20
105.8
 11
121.2
 21
105.8
  0
LINE
  5
126
100
AcDbEntity
  8
ProjItem
  6
ByLayer
 62
  256
370
   -1
100
AcDbLine
 10
121.7
 20
106.35
 11
121.7
 21
105.8
  0
LINE
  5
127
100
AcDbEntity
  8
ProjItem
  6
ByLayer
 62
  256
370
   -1
100
AcDbLine
 10
127.7
 20
106.35
 11
127.7
 21
105.8
  0
LINE
  5
128
100
AcDbEntity
  8
ProjItem
  6
ByLayer
 62
  256
370
   -1
100
AcDbLine
 10
122.8
 20
106.35
 11
122.8
 21
107.05
  0
LINE
  5
129
100
AcDbEntity
  8
ProjItem
  6
ByLayer
 62
  256
370
   -1
100
AcDbLine
 10
122.6
 20
107.05
 11
122.8
 21
107.05
  0
LINE
  5
12A
100
AcDbEntity
  8
ProjItem
  6
ByLayer
 62
  256
370
   -1
100
AcDbLine
 10
122.6
 20
106.35
 11
122.6
 21
107.05
  0
LINE
  5
12B
100
AcDbEntity
  8
ProjItem
  6
ByLayer
 62
  256
370
   -1
100
AcDbLine
 10
126.8
 20
106.35
 11
126.8
 21
107.05
  0
LINE
  5
12C
100
AcDbEntity
  8
ProjItem
  6
ByLayer
 62
  256
370
   -1
100
AcDbLine
 10
126.6
 20
107.05
 11
126.8
 21
107.05
  0
LINE
  5
12D
100
AcDbEntity
  8
ProjItem
  6
ByLayer
 62
  256
370
   -1
100
AcDbLine
 10
126.6
 20
106.35
 11
126.6
 21
107.05
  0
LINE
  5
12E
100
AcDbEntity
  8
ProjItem
  6
ByLayer
 62
  256
370
   -1
100
AcDbLine
 10
125.8
 20
106.35
 11
125.8
 21
107.05
  0
LINE
  5
12F
100
AcDbEntity
  8
ProjItem
  6
ByLayer
 62
  256
370
   -1
100
AcDbLine
 10
125.8
 20
107.05
 11
125.6
 21
107.05
  0
LINE
  5
130
100
AcDbEntity
  8
ProjItem
  6
ByLayer
 62
  256
370
   -1
100
AcDbLine
 10
125.6
 20
107.05
 11
125.6
 21
106.35
  0
LINE
  5
131
100
AcDbEntity
  8
ProjItem
  6
ByLayer
 62
  256
370
   -1
100
AcDbLine
 10
124.8
 20
106.35
 11
124.8
 21
107.05
  0
LINE
  5
132
100
AcDbEntity
  8
ProjItem
  6
ByLayer
 62
  256
370
   -1
100
AcDbLine
 10
124.8
 20
107.05
 11
124.6
 21
107.05
  0
LINE
  5
133
100
AcDbEntity
  8
ProjItem
  6
ByLayer
 62
  256
370
   -1
100
AcDbLine
 10
124.6
 20
107.05
 11
124.6
 21
106.35
  0
LINE
  5
134
100
AcDbEntity
  8
ProjItem
  6
ByLayer
 62
  256
370
   -1
100
AcDbLine
 10
123.8
 20
106.35
 11
123.8
 21
107.05
  0
LINE
  5
135
100
AcDbEntity
  8
ProjItem
  6
ByLayer
 62
  256
370
   -1
100
AcDbLine
 10
123.8
 20
107.05
 11
123.6
 21
107.05
  0
LINE
  5
136
100
AcDbEntity
  8
ProjItem
  6
ByLayer
 62
  256
370
   -1
100
AcDbLine
 10
123.6
 20
107.05
 11
123.6
 21
106.35
  0
LINE
  5
137
100
AcDbEntity
  8
ProjItem
  6
ByLayer
 62
  256
370
   -1
100
AcDbLine
 10
129.25
 20
105.55
 11
128.75
 21
105.55
  0
LINE
  5
138
100
AcDbEntity
  8
ProjItem
  6
ByLayer
 62
  256
370
   -1
100
AcDbLine
 10
128.75
 20
105.55
 11
128.75
 21
105.35
  0
LINE
  5
139
100
AcDbEntity
  8
ProjItem
  6
ByLayer
 62
  256
370
   -1
100
AcDbLine
 10
129.25
 20
105.35
 11
128.75
 21
105.35
  0
LINE
  5
13A
100
AcDbEntity
  8
ProjItem
  6
ByLayer
 62
  256
370
   -1
100
AcDbLine
 10
129.25
 20
105.55
 11
129.25
 21
105.35
  0
LINE
  5
13B
100
AcDbEntity
  8
ProjItem
  6
ByLayer
 62
  256
370
   -1
100
AcDbLine
 10
129.25
 20
106.15
 11
128.75
 21
106.15
  0
LINE
  5
13C
100
AcDbEntity
  8
ProjItem
  6
ByLayer
 62
  256
370
   -1
100
AcDbLine
 10
128.75
 20
106.15
 11
128.75
 21
106.35
  0
LINE
  5
13D
100
AcDbEntity
  8
ProjItem
  6
ByLayer
 62
  256
370
   -1
100
AcDbLine
 10
129.25
 20
106.35
 11
128.75
 21
106.35
  0
LINE
  5
13E
100
AcDbEntity
  8
ProjItem
  6
ByLayer
 62
  256
370
   -1
100
AcDbLine
 10
129.25
 20
106.15
 11
129.25
 21
106.35
  0
LINE
  5
13F
100
AcDbEntity
  8
ProjItem
  6
ByLayer
 62
  256
370
   -1
100
AcDbLine
 10
129.25
 20
106.15
 11
128.75
 21
106.15
  0
LINE
  5
140
100
AcDbEntity
  8
ProjItem
  6
ByLayer
 62
  256
370
   -1
100
AcDbLine
 10
128.75
 20
106.15
 11
128.75
 21
105.55
  0
LINE
  5
141
100
AcDbEntity
  8
ProjItem
  6
ByLayer
 62
  256
370
   -1
100
AcDbLine
 10
129.25
 20
105.55
 11
128.75
 21
105.55
  0
LINE
  5
142
100
AcDbEntity
  8
ProjItem
  6
ByLayer
 62
  256
370
   -1
100
AcDbLine
 10
129.25
 20
106.15
 11
129.25
 21
105.55
  0
LINE
  5
143
100
AcDbEntity
  8
ProjItem
  6
ByLayer
 62
  256
370
   -1
100
AcDbLine
 10
127.7
 20
113.15
 11
128.475
 21
113.15
  0
SPLINE
  5
144
100
AcDbEntity
  8
ProjItem
  6
ByLayer
 62
  256
370
   -1
100
AcDbSpline
210
0
220
0
230
0
 70
    8
 71
    2
 72
    6
 73
    3
 74
    0
 42
1e-07
 43
1e-07
 40
0
 40
0
 40
0
 40
1
 40
1
 40
1
 10
128.475
 20
113.15
 30
0
 10
128.578
 20
113.15
 30
0
 10
128.652
 20
113.15
 30
0
  0
SPLINE
  5
145
100
AcDbEntity
  8
ProjItem
  6
ByLayer
 62
  256
370
   -1
100
AcDbSpline
210
0
220
0
230
0
 70
    8
 71
    2
 72
    6
 73
    3
 74
    0
 42
1e-07
 43
1e-07
 40
0
 40
0
 40
0
 40
1
 40
1
 40
1
 10
128.652
 20
113.15
 30
0
 10
128.723
 20
113.15
 30
0
 10
128.725
 20
113.15
 30
0
  0
SPLINE
  5
146
100
AcDbEntity
  8
ProjItem
  6
ByLayer
 62
  256
370
   -1
100
AcDbSpline
210
0
220
0
230
0
 70
    8
 71
    2
 72
    6
 73
    3
 74
    0
 42
1e-07
 43
1e-07
 40
0
 40
0
 40
0
 40
1
 40
1
 40
1
 10
128.725
 20
113.15
 30
0
 10
128.727
 20
113.15
 30
0
 10
128.798
 20
113.15
 30
0
  0
SPLINE
  5
147
100
AcDbEntity
  8
ProjItem
  6
ByLayer
 62
  256
370
   -1
100
AcDbSpline
210
0
220
0
230
0
 70
    8
 71
    2
 72
    6
 73
    3
 74
    0
 42
1e-07
 43
1e-07
 40
0
 40
0
 40
0
 40
1
 40
1
 40
1
 10
128.475
 20
112.45
 30
0
 10
128.578
 20
112.45
 30
0
 10
128.652
 20
112.45
 30
0
  0
SPLINE
  5
148
100
AcDbEntity
  8
ProjItem
  6
ByLayer
 62
  256
370
   -1
100
AcDbSpline
210
0
220
0
230
0
 70
    8
 71
    2
 72
    6
 73
    3
 74
    0
 42
1e-07
 43
1e-07
 40
0
 40
0
 40
0
 40
1
 40
1
 40
1
 10
128.652
 20
112.45
 30
0
 10
128.723
 20
112.45
 30
0
 10
128.725
 20
112.45
 30
0
  0
LINE
  5
149
100
AcDbEntity
  8
ProjItem
  6
ByLayer
 62
  256
370
   -1
100
AcDbLine
 10
128.725
 20
113.15
 11
128.725
 21
112.45
  0
LINE
  5
14A
100
AcDbEntity
  8
ProjItem
  6
ByLayer
 62
  256
370
   -1
100
AcDbLine
 10
127.7
 20
112.45
 11
128.475
 21
112.45
  0
LINE
  5
14B
100
AcDbEntity
  8
ProjItem
  6
ByLayer
 62
  256
370
   -1
100
AcDbLine
 10
128.725
 20
112.45
 11
128.725
 21
113.15
  0
SPLINE
  5
14C
100
AcDbEntity
  8
ProjItem
  6
ByLayer
 62
  256
370
   -1
100
AcDbSpline
210
0
220
0
230
0
 70
    8
 71
    2
 72
    6
 73
    3
 74
    0
 42
1e-07
 43
1e-07
 40
0
 40
0
 40
0
 40
1
 40
1
 40
1
 10
128.798
 20
113.15
 30
0
 10
128.872
 20
113.15
 30
0
 10
128.975
 20
113.15
 30
0
  0
SPLINE
  5
14D
100
AcDbEntity
  8
ProjItem
  6
ByLayer
 62
  256
370
   -1
100
AcDbSpline
210
0
220
0
230
0
 70
    8
 71
    2
 72
    6
 73
    3
 74
    0
 42
1e-07
 43
1e-07
 40
0
 40
0
 40
0
 40
1
 40
1
 40
1
 10
128.798
 20
112.45
 30
0
 10
128.872
 20
112.45
 30
0
 10
128.975
 20
112.45
 30
0
  0
SPLINE
  5
14E
100
AcDbEntity
  8
ProjItem
  6
ByLayer
 62
  256
370
   -1
100
AcDbSpline
210
0
220
0
230
0
 70
    8
 71
    2
 72
    6
 73
    3
 74
    0
 42
1e-07
 43
1e-07
 40
0
 40
0
 40
0
 40
1
 40
1
 40
1
 10
128.725
 20
112.45
 30
0
 10
128.727
 20
112.45
 30
0
 10
128.798
 20
112.45
 30
0
  0
LINE
  5
14F
100
AcDbEntity
  8
ProjItem
  6
ByLayer
 62
  256
370
   -1
100
AcDbLine
 10
128.975
 20
113.15
 11
129.7
 21
113.15
  0
LINE
  5
150
100
AcDbEntity
  8
ProjItem
  6
ByLayer
 62
  256
370
   -1
100
AcDbLine
 10
127.7
 20
113.45
 11
127.7
 21
107.65
  0
LINE
  5
151
100
AcDbEntity
  8
ProjItem
  6
ByLayer
 62
  256
370
   -1
100
AcDbLine
 10
127.7
 20
107.95
 11
128.475
 21
107.95
  0
SPLINE
  5
152
100
AcDbEntity
  8
ProjItem
  6
ByLayer
 62
  256
370
   -1
100
AcDbSpline
210
0
220
0
230
0
 70
    8
 71
    2
 72
    6
 73
    3
 74
    0
 42
1e-07
 43
1e-07
 40
0
 40
0
 40
0
 40
1
 40
1
 40
1
 10
128.475
 20
107.95
 30
0
 10
128.578
 20
107.95
 30
0
 10
128.652
 20
107.95
 30
0
  0
SPLINE
  5
153
100
AcDbEntity
  8
ProjItem
  6
ByLayer
 62
  256
370
   -1
100
AcDbSpline
210
0
220
0
230
0
 70
    8
 71
    2
 72
    6
 73
    3
 74
    0
 42
1e-07
 43
1e-07
 40
0
 40
0
 40
0
 40
1
 40
1
 40
1
 10
128.475
 20
108.65
 30
0
 10
128.578
 20
108.65
 30
0
 10
128.652
 20
108.65
 30
0
  0
LINE
  5
154
100
AcDbEntity
  8
ProjItem
  6
ByLayer
 62
  256
370
   -1
100
AcDbLine
 10
127.7
 20
108.65
 11
128.475
 21
108.65
  0
LINE
  5
155
100
AcDbEntity
  8
ProjItem
  6
ByLayer
 62
  256
370
   -1
100
AcDbLine
 10
128.975
 20
112.45
 11
129.7
 21
112.45
  0
LINE
  5
156
100
AcDbEntity
  8
ProjItem
  6
ByLayer
 62
  256
370
   -1
100
AcDbLine
 10
129.7
 20
113.15
 11
129.7
 21
112.45
  0
ARC
  5
157
100
AcDbEntity
  8
ProjItem
  6
ByLayer
 62
  256
370
   -1
100
AcDbCircle
 10
127.6
 20
113.45
 40
0.1
100
AcDbArc
 50
0
 51
90
  0
ARC
  5
158
100
AcDbEntity
  8
ProjItem
  6
ByLayer
 62
  256
370
   -1
100
AcDbCircle
 10
127.6
 20
107.65
 40
0.1
100
AcDbArc
 50
-90
 51
0
  0
LINE
  5
159
100
AcDbEntity
  8
ProjItem
  6
ByLayer
 62
  256
370
   -1
100
AcDbLine
 10
127.6
 20
107.55
 11
121.8
 21
107.55
  0
ARC
  5
15A
100
AcDbEntity
  8
ProjItem
  6
ByLayer
 62
  256
370
   -1
100
AcDbCircle
 10
121.8
 20
107.65
 40
0.1
100
AcDbArc
 50
180
 51
-90
  0
LINE
  5
15B
100
AcDbEntity
  8
ProjItem
  6
ByLayer
 62
  256
370
   -1
100
AcDbLine
 10
121.7
 20
107.65
 11
121.7
 21
113.45
  0
ARC
  5
15C
100
AcDbEntity
  8
ProjItem
  6
ByLayer
 62
  256
370
   -1
100
AcDbCircle
 10
121.8
 20
113.45
 40
0.1
100
AcDbArc
 50
90
 51
180
  0
LINE
  5
15D
100
AcDbEntity
  8
ProjItem
  6
ByLayer
 62
  256
370
   -1
100
AcDbLine
 10
121.8
 20
113.55
 11
127.6
 21
113.55
  0
CIRCLE
  5
15E
100
AcDbEntity
  8
ProjItem
  6
ByLayer
 62
  256
370
   -1
100
AcDbCircle
 10
124.7
 20
110.55
 40
1.75
  0
SPLINE
  5
15F
100
AcDbEntity
  8
ProjItem
  6
ByLayer
 62
  256
370
   -1
100
AcDbSpline
210
0
220
0
230
0
 70
    8
 71
    2
 72
    6
 73
    3
 74
    0
 42
1e-07
 43
1e-07
 40
0
 40
0
 40
0
 40
1
 40
1
 40
1
 10
128.652
 20
107.95
 30
0
 10
128.723
 20
107.95
 30
0
 10
128.725
 20
107.95
 30
0
  0
SPLINE
  5
160
100
AcDbEntity
  8
ProjItem
  6
ByLayer
 62
  256
370
   -1
100
AcDbSpline
210
0
220
0
230
0
 70
    8
 71
    2
 72
    6
 73
    3
 74
    0
 42
1e-07
 43
1e-07
 40
0
 40
0
 40
0
 40
1
 40
1
 40
1
 10
128.725
 20
107.95
 30
0
 10
128.727
 20
107.95
 30
0
 10
128.798
 20
107.95
 30
0
  0
LINE
  5
161
100
AcDbEntity
  8
ProjItem
  6
ByLayer
 62
  256
370
   -1
100
AcDbLine
 10
128.725
 20
107.95
 11
128.725
 21
108.65
  0
SPLINE
  5
162
100
AcDbEntity
  8
ProjItem
  6
ByLayer
 62
  256
370
   -1
100
AcDbSpline
210
0
220
0
230
0
 70
    8
 71
    2
 72
    6
 73
    3
 74
    0
 42
1e-07
 43
1e-07
 40
0
 40
0
 40
0
 40
1
 40
1
 40
1
 10
128.652
 20
108.65
 30
0
 10
128.723
 20
108.65
 30
0
 10
128.725
 20
108.65
 30
0
  0
SPLINE
  5
163
100
AcDbEntity
  8
ProjItem
  6
ByLayer
 62
  256
370
   -1
100
AcDbSpline
210
0
220
0
230
0
 70
    8
 71
    2
 72
    6
 73
    3
 74
    0
 42
1e-07
 43
1e-07
 40
0
 40
0
 40
0
 40
1
 40
1
 40
1
 10
128.725
 20
108.65
 30
0
 10
128.727
 20
108.65
 30
0
 10
128.798
 20
108.65
 30
0
  0
LINE
  5
164
100
AcDbEntity
  8
ProjItem
  6
ByLayer
 62
  256
370
   -1
100
AcDbLine
 10
121.7
 20
107.95
 11
120.925
 21
107.95
  0
LINE
  5
165
100
AcDbEntity
  8
ProjItem
  6
ByLayer
 62
  256
370
   -1
100
AcDbLine
 10
121.7
 20
108.65
 11
120.925
 21
108.65
  0
SPLINE
  5
166
100
AcDbEntity
  8
ProjItem
  6
ByLayer
 62
  256
370
   -1
100
AcDbSpline
210
0
220
0
230
0
 70
    8
 71
    2
 72
    6
 73
    3
 74
    0
 42
1e-07
 43
1e-07
 40
0
 40
0
 40
0
 40
1
 40
1
 40
1
 10
120.925
 20
108.65
 30
0
 10
120.822
 20
108.65
 30
0
 10
120.748
 20
108.65
 30
0
  0
SPLINE
  5
167
100
AcDbEntity
  8
ProjItem
  6
ByLayer
 62
  256
370
   -1
100
AcDbSpline
210
0
220
0
230
0
 70
    8
 71
    2
 72
    6
 73
    3
 74
    0
 42
1e-07
 43
1e-07
 40
0
 40
0
 40
0
 40
1
 40
1
 40
1
 10
120.925
 20
107.95
 30
0
 10
120.822
 20
107.95
 30
0
 10
120.748
 20
107.95
 30
0
  0
LINE
  5
168
100
AcDbEntity
  8
ProjItem
  6
ByLayer
 62
  256
370
   -1
100
AcDbLine
 10
121.7
 20
113.15
 11
120.925
 21
113.15
  0
SPLINE
  5
169
100
AcDbEntity
  8
ProjItem
  6
ByLayer
 62
  256
370
   -1
100
AcDbSpline
210
0
220
0
230
0
 70
    8
 71
    2
 72
    6
 73
    3
 74
    0
 42
1e-07
 43
1e-07
 40
0
 40
0
 40
0
 40
1
 40
1
 40
1
 10
120.925
 20
113.15
 30
0
 10
120.822
 20
113.15
 30
0
 10
120.748
 20
113.15
 30
0
  0
LINE
  5
16A
100
AcDbEntity
  8
ProjItem
  6
ByLayer
 62
  256
370
   -1
100
AcDbLine
 10
121.7
 20
112.45
 11
120.925
 21
112.45
  0
SPLINE
  5
16B
100
AcDbEntity
  8
ProjItem
  6
ByLayer
 62
  256
370
   -1
100
AcDbSpline
210
0
220
0
230
0
 70
    8
 71
    2
 72
    6
 73
    3
 74
    0
 42
1e-07
 43
1e-07
 40
0
 40
0
 40
0
 40
1
 40
1
 40
1
 10
120.925
 20
112.45
 30
0
 10
120.822
 20
112.45
 30
0
 10
120.748
 20
112.45
 30
0
  0
CIRCLE
  5
16C
100
AcDbEntity
  8
ProjItem
  6
ByLayer
 62
  256
370
   -1
100
AcDbCircle
 10
124.7
 20
110.55
 40
1.65
  0
SPLINE
  5
16D
100
AcDbEntity
  8
ProjItem
  6
ByLayer
 62
  256
370
   -1
100
AcDbSpline
210
0
220
0
230
0
 70
    8
 71
    2
 72
    6
 73
    3
 74
    0
 42
1e-07
 43
1e-07
 40
0
 40
0
 40
0
 40
1
 40
1
 40
1
 10
128.798
 20
108.65
 30
0
 10
128.872
 20
108.65
 30
0
 10
128.975
 20
108.65
 30
0
  0
SPLINE
  5
16E
100
AcDbEntity
  8
ProjItem
  6
ByLayer
 62
  256
370
   -1
100
AcDbSpline
210
0
220
0
230
0
 70
    8
 71
    2
 72
    6
 73
    3
 74
    0
 42
1e-07
 43
1e-07
 40
0
 40
0
 40
0
 40
1
 40
1
 40
1
 10
128.798
 20
107.95
 30
0
 10
128.872
 20
107.95
 30
0
 10
128.975
 20
107.95
 30
0
  0
LINE
  5
16F
100
AcDbEntity
  8
ProjItem
  6
ByLayer
 62
  256
370
   -1
100
AcDbLine
 10
128.975
 20
107.95
 11
129.7
 21
107.95
  0
LINE
  5
170
100
AcDbEntity
  8
ProjItem
  6
ByLayer
 62
  256
370
   -1
100
AcDbLine
 10
128.975
 20
108.65
 11
129.7
 21
108.65
  0
SPLINE
  5
171
100
AcDbEntity
  8
ProjItem
  6
ByLayer
 62
  256
370
   -1
100
AcDbSpline
210
0
220
0
230
0
 70
    8
 71
    2
 72
    6
 73
    3
 74
    0
 42
1e-07
 43
1e-07
 40
0
 40
0
 40
0
 40
1
 40
1
 40
1
 10
120.748
 20
108.65
 30
0
 10
120.677
 20
108.65
 30
0
 10
120.675
 20
108.65
 30
0
  0
LINE
  5
172
100
AcDbEntity
  8
ProjItem
  6
ByLayer
 62
  256
370
   -1
100
AcDbLine
 10
120.675
 20
107.95
 11
120.675
 21
108.65
  0
SPLINE
  5
173
100
AcDbEntity
  8
ProjItem
  6
ByLayer
 62
  256
370
   -1
100
AcDbSpline
210
0
220
0
230
0
 70
    8
 71
    2
 72
    6
 73
    3
 74
    0
 42
1e-07
 43
1e-07
 40
0
 40
0
 40
0
 40
1
 40
1
 40
1
 10
120.748
 20
107.95
 30
0
 10
120.677
 20
107.95
 30
0
 10
120.675
 20
107.95
 30
0
  0
SPLINE
  5
174
100
AcDbEntity
  8
ProjItem
  6
ByLayer
 62
  256
370
   -1
100
AcDbSpline
210
0
220
0
230
0
 70
    8
 71
    2
 72
    6
 73
    3
 74
    0
 42
1e-07
 43
1e-07
 40
0
 40
0
 40
0
 40
1
 40
1
 40
1
 10
120.675
 20
108.65
 30
0
 10
120.673
 20
108.65
 30
0
 10
120.602
 20
108.65
 30
0
  0
SPLINE
  5
175
100
AcDbEntity
  8
ProjItem
  6
ByLayer
 62
  256
370
   -1
100
AcDbSpline
210
0
220
0
230
0
 70
    8
 71
    2
 72
    6
 73
    3
 74
    0
 42
1e-07
 43
1e-07
 40
0
 40
0
 40
0
 40
1
 40
1
 40
1
 10
120.675
 20
107.95
 30
0
 10
120.673
 20
107.95
 30
0
 10
120.602
 20
107.95
 30
0
  0
SPLINE
  5
176
100
AcDbEntity
  8
ProjItem
  6
ByLayer
 62
  256
370
   -1
100
AcDbSpline
210
0
220
0
230
0
 70
    8
 71
    2
 72
    6
 73
    3
 74
    0
 42
1e-07
 43
1e-07
 40
0
 40
0
 40
0
 40
1
 40
1
 40
1
 10
120.748
 20
113.15
 30
0
 10
120.677
 20
113.15
 30
0
 10
120.675
 20
113.15
 30
0
  0
SPLINE
  5
177
100
AcDbEntity
  8
ProjItem
  6
ByLayer
 62
  256
370
   -1
100
AcDbSpline
210
0
220
0
230
0
 70
    8
 71
    2
 72
    6
 73
    3
 74
    0
 42
1e-07
 43
1e-07
 40
0
 40
0
 40
0
 40
1
 40
1
 40
1
 10
120.675
 20
113.15
 30
0
 10
120.673
 20
113.15
 30
0
 10
120.602
 20
113.15
 30
0
  0
LINE
  5
178
100
AcDbEntity
  8
ProjItem
  6
ByLayer
 62
  256
370
   -1
100
AcDbLine
 10
120.675
 20
113.15
 11
120.675
 21
112.45
  0
SPLINE
  5
179
100
AcDbEntity
  8
ProjItem
  6
ByLayer
 62
  256
370
   -1
100
AcDbSpline
210
0
220
0
230
0
 70
    8
 71
    2
 72
    6
 73
    3
 74
    0
 42
1e-07
 43
1e-07
 40
0
 40
0
 40
0
 40
1
 40
1
 40
1
 10
120.748
 20
112.45
 30
0
 10
120.677
 20
112.45
 30
0
 10
120.675
 20
112.45
 30
0
  0
SPLINE
  5
17A
100
AcDbEntity
  8
ProjItem
  6
ByLayer
 62
  256
370
   -1
100
AcDbSpline
210
0
220
0
230
0
 70
    8
 71
    2
 72
    6
 73
    3
 74
    0
 42
1e-07
 43
1e-07
 40
0
 40
0
 40
0
 40
1
 40
1
 40
1
 10
120.675
 20
112.45
 30
0
 10
120.673
 20
112.45
 30
0
 10
120.602
 20
112.45
 30
0
  0
LINE
  5
17B
100
AcDbEntity
  8
ProjItem
  6
ByLayer
 62
  256
370
   -1
100
AcDbLine
 10
129.7
 20
107.95
 11
129.7
 21
108.65
  0
LINE
  5
17C
100
AcDbEntity
  8
ProjItem
  6
ByLayer
 62
  256
370
   -1
100
AcDbLine
 10
120.675
 20
108.65
 11
120.675
 21
107.95
  0
SPLINE
  5
17D
100
AcDbEntity
  8
ProjItem
  6
ByLayer
 62
  256
370
   -1
100
AcDbSpline
210
0
220
0
230
0
 70
    8
 71
    2
 72
    6
 73
    3
 74
    0
 42
1e-07
 43
1e-07
 40
0
 40
0
 40
0
 40
1
 40
1
 40
1
 10
120.602
 20
107.95
 30
0
 10
120.528
 20
107.95
 30
0
 10
120.425
 20
107.95
 30
0
  0
SPLINE
  5
17E
100
AcDbEntity
  8
ProjItem
  6
ByLayer
 62
  256
370
   -1
100
AcDbSpline
210
0
220
0
230
0
 70
    8
 71
    2
 72
    6
 73
    3
 74
    0
 42
1e-07
 43
1e-07
 40
0
 40
0
 40
0
 40
1
 40
1
 40
1
 10
120.602
 20
108.65
 30
0
 10
120.528
 20
108.65
 30
0
 10
120.425
 20
108.65
 30
0
  0
LINE
  5
17F
100
AcDbEntity
  8
ProjItem
  6
ByLayer
 62
  256
370
   -1
100
AcDbLine
 10
120.425
 20
108.65
 11
119.7
 21
108.65
  0
LINE
  5
180
100
AcDbEntity
  8
ProjItem
  6
ByLayer
 62
  256
370
   -1
100
AcDbLine
 10
120.425
 20
107.95
 11
119.7
 21
107.95
  0
SPLINE
  5
181
100
AcDbEntity
  8
ProjItem
  6
ByLayer
 62
  256
370
   -1
100
AcDbSpline
210
0
220
0
230
0
 70
    8
 71
    2
 72
    6
 73
    3
 74
    0
 42
1e-07
 43
1e-07
 40
0
 40
0
 40
0
 40
1
 40
1
 40
1
 10
120.602
 20
112.45
 30
0
 10
120.528
 20
112.45
 30
0
 10
120.425
 20
112.45
 30
0
  0
SPLINE
  5
182
100
AcDbEntity
  8
ProjItem
  6
ByLayer
 62
  256
370
   -1
100
AcDbSpline
210
0
220
0
230
0
 70
    8
 71
    2
 72
    6
 73
    3
 74
    0
 42
1e-07
 43
1e-07
 40
0
 40
0
 40
0
 40
1
 40
1
 40
1
 10
120.602
 20
113.15
 30
0
 10
120.528
 20
113.15
 30
0
 10
120.425
 20
113.15
 30
0
  0
LINE
  5
183
100
AcDbEntity
  8
ProjItem
  6
ByLayer
 62
  256
370
   -1
100
AcDbLine
 10
120.425
 20
113.15
 11
119.7
 21
113.15
  0
LINE
  5
184
100
AcDbEntity
  8
ProjItem
  6
ByLayer
 62
  256
370
   -1
100
AcDbLine
 10
120.425
 20
112.45
 11
119.7
 21
112.45
  0
LINE
  5
185
100
AcDbEntity
  8
ProjItem
  6
ByLayer
 62
  256
370
   -1
100
AcDbLine
 10
119.7
 20
107.95
 11
119.7
 21
108.65
  0
LINE
  5
186
100
AcDbEntity
  8
ProjItem
  6
ByLayer
 62
  256
370
   -1
100
AcDbLine
 10
119.7
 20
113.15
 11
119.7
 21
112.45
  0
LINE
  5
187
100
AcDbEntity
  8
ProjItem
  6
ByLayer
 62
  256
370
   -1
100
AcDbLine
 10
128.2
 20
102.1
 11
121.2
 21
102.1
  0
LINE
  5
188
100
AcDbEntity
  8
ProjItem
  6
ByLayer
 62
  256
370
   -1
100
AcDbLine
 10
121.2
 20
105.151
 11
121.2
 21
102.1
  0
LINE
  5
189
100
AcDbEntity
  8
ProjItem
  6
ByLayer
 62
  256
370
   -1
100
AcDbLine
 10
121.7
 20
105.151
 11
121.2
 21
105.151
  0
LINE
  5
18A
100
AcDbEntity
  8
ProjItem
  6
ByLayer
 62
  256
370
   -1
100
AcDbLine
 10
121.7
 20
105.151
 11
121.7
 21
105.8
  0
LINE
  5
18B
100
AcDbEntity
  8
ProjItem
  6
ByLayer
 62
  256
370
   -1
100
AcDbLine
 10
127.7
 20
105.8
 11
121.7
 21
105.8
  0
LINE
  5
18C
100
AcDbEntity
  8
ProjItem
  6
ByLayer
 62
  256
370
   -1
100
AcDbLine
 10
127.7
 20
105.151
 11
127.7
 21
105.8
  0
LINE
  5
18D
100
AcDbEntity
  8
ProjItem
  6
ByLayer
 62
  256
370
   -1
100
AcDbLine
 10
128.2
 20
105.151
 11
127.7
 21
105.151
  0
LINE
  5
18E
100
AcDbEntity
  8
ProjItem
  6
ByLayer
 62
  256
370
   -1
100
AcDbLine
 10
128.2
 20
102.1
 11
128.2
 21
105.151
  0
LINE
  5
18F
100
AcDbEntity
  8
ProjItem
  6
ByLayer
 62
  256
370
   -1
100
AcDbLine
 10
128.2
 20
105.151
 11
128.2
 21
105.8
  0
LINE
  5
190
100
AcDbEntity
  8
ProjItem
  6
ByLayer
 62
  256
370
   -1
100
AcDbLine
 10
128.2
 20
105.8
 11
128.2
 21
106.35
  0
LINE
  5
191
100
AcDbEntity
  8
ProjItem
  6
ByLayer
 62
  256
370
   -1
100
AcDbLine
 10
121.2
 20
105.8
 11
121.2
 21
106.35
  0
LINE
  5
192
100
AcDbEntity
  8
ProjItem
  6
ByLayer
 62
  256
370
   -1
100
AcDbLine
 10
121.2
 20
105.151
 11
121.2
 21
105.8
  0
LINE
  5
193
100
AcDbEntity
  8
ProjItem
  6
ByLayer
 62
  256
370
   -1
100
AcDbLine
 10
127.7
 20
105.8
 11
128.2
 21
105.8
  0
LINE
  5
194
100
AcDbEntity
  8
ProjItem
  6
ByLayer
 62
  256
370
   -1
100
AcDbLine
 10
127.7
 20
106.35
 11
128.2
 21
106.35
  0
LINE
  5
195
100
AcDbEntity
  8
ProjItem
  6
ByLayer
 62
  256
370
   -1
100
AcDbLine
 10
121.7
 20
106.35
 11
127.7
 21
106.35
  0
LINE
  5
196
100
AcDbEntity
  8
ProjItem
  6
ByLayer
 62
  256
370
   -1
100
AcDbLine
 10
121.7
 20
106.35
 11
121.2
 21
106.35
  0
LINE
  5
197
100
AcDbEntity
  8
ProjItem
  6
ByLayer
 62
  256
370
   -1
100
AcDbLine
 10
121.7
 20
105.8
 11
121.2
 21
105.8
  0
LINE
  5
198
100
AcDbEntity
  8
ProjItem
  6
ByLayer
 62
  256
370
   -1
100
AcDbLine
 10
121.7
 20
106.35
 11
121.7
 21
105.8
  0
LINE
  5
199
100
AcDbEntity
  8
ProjItem
  6
ByLayer
 62
  256
370
   -1
100
AcDbLine
 10
127.7
 20
106.35
 11
127.7
 21
105.8
  0
LINE
  5
19A
100
AcDbEntity
  8
ProjItem
  6
ByLayer
 62
  256
370
   -1
100
AcDbLine
 10
122.8
 20
106.35
 11
122.8
 21
107.05
  0
LINE
  5
19B
100
AcDbEntity
  8
ProjItem
  6
ByLayer
 62
  256
370
   -1
100
AcDbLine
 10
122.6
 20
107.05
 11
122.8
 21
107.05
  0
LINE
  5
19C
100
AcDbEntity
  8
ProjItem
  6
ByLayer
 62
  256
370
   -1
100
AcDbLine
 10
122.6
 20
106.35
 11
122.6
 21
107.05
  0
LINE
  5
19D
100
AcDbEntity
  8
ProjItem
  6
ByLayer
 62
  256
370
   -1
100
AcDbLine
 10
126.8
 20
106.35
 11
126.8
 21
107.05
  0
LINE
  5
19E
100
AcDbEntity
  8
ProjItem
  6
ByLayer
 62
  256
370
   -1
100
AcDbLine
 10
126.6
 20
107.05
 11
126.8
 21
107.05
  0
LINE
  5
19F
100
AcDbEntity
  8
ProjItem
  6
ByLayer
 62
  256
370
   -1
100
AcDbLine
 10
126.6
 20
106.35
 11
126.6
 21
107.05
  0
LINE
  5
1A0
100
AcDbEntity
  8
ProjItem
  6
ByLayer
 62
  256
370
   -1
100
AcDbLine
 10
125.8
 20
106.35
 11
125.8
 21
107.05
  0
LINE
  5
1A1
100
AcDbEntity
  8
ProjItem
  6
ByLayer
 62
  256
370
   -1
100
AcDbLine
 10
125.8
 20
107.05
 11
125.6
 21
107.05
  0
LINE
  5
1A2
100
AcDbEntity
  8
ProjItem
  6
ByLayer
 62
  256
370
   -1
100
AcDbLine
 10
125.6
 20
107.05
 11
125.6
 21
106.35
  0
LINE
  5
1A3
100
AcDbEntity
  8
ProjItem
  6
ByLayer
 62
  256
370
   -1
100
AcDbLine
 10
124.8
 20
106.35
 11
124.8
 21
107.05
  0
LINE
  5
1A4
100
AcDbEntity
  8
ProjItem
  6
ByLayer
 62
  256
370
   -1
100
AcDbLine
 10
124.8
 20
107.05
 11
124.6
 21
107.05
  0
LINE
  5
1A5
100
AcDbEntity
  8
ProjItem
  6
ByLayer
 62
  256
370
   -1
100
AcDbLine
 10
124.6
 20
107.05
 11
124.6
 21
106.35
  0
LINE
  5
1A6
100
AcDbEntity
  8
ProjItem
  6
ByLayer
 62
  256
370
   -1
100
AcDbLine
 10
123.8
 20
106.35
 11
123.8
 21
107.05
  0
LINE
  5
1A7
100
AcDbEntity
  8
ProjItem
  6
ByLayer
 62
  256
370
   -1
100
AcDbLine
 10
123.8
 20
107.05
 11
123.6
 21
107.05
  0
LINE
  5
1A8
100
AcDbEntity
  8
ProjItem
  6
ByLayer
 62
  256
370
   -1
100
AcDbLine
 10
123.6
 20
107.05
 11
123.6
 21
106.35
  0
LINE
  5
1A9
100
AcDbEntity
  8
ProjItem
  6
ByLayer
 62
  256
370
   -1
100
AcDbLine
 10
129.25
 20
105.55
 11
128.75
 21
105.55
  0
LINE
  5
1AA
100
AcDbEntity
  8
ProjItem
  6
ByLayer
 62
  256
370
   -1
100
AcDbLine
 10
128.75
 20
105.55
 11
128.75
 21
105.35
  0
LINE
  5
1AB
100
AcDbEntity
  8
ProjItem
  6
ByLayer
 62
  256
370
   -1
100
AcDbLine
 10
129.25
 20
105.35
 11
128.75
 21
105.35
  0
LINE
  5
1AC
100
AcDbEntity
  8
ProjItem
  6
ByLayer
 62
  256
370
   -1
100
AcDbLine
 10
129.25
 20
105.55
 11
129.25
 21
105.35
  0
LINE
  5
1AD
100
AcDbEntity
  8
ProjItem
  6
ByLayer
 62
  256
370
   -1
100
AcDbLine
 10
129.25
 20
106.15
 11
128.75
 21
106.15
  0
LINE
  5
1AE
100
AcDbEntity
  8
ProjItem
  6
ByLayer
 62
  256
370
   -1
100
AcDbLine
 10
128.75
 20
106.15
 11
128.75
 21
106.35
  0
LINE
  5
1AF
100
AcDbEntity
  8
ProjItem
  6
ByLayer
 62
  256
370
   -1
100
AcDbLine
 10
129.25
 20
106.35
 11
128.75
 21
106.35
  0
LINE
  5
1B0
100
AcDbEntity
  8
ProjItem
  6
ByLayer
 62
  256
370
   -1
100
AcDbLine
 10
129.25
 20
106.15
 11
129.25
 21
106.35
  0
LINE
  5
1B1
100
AcDbEntity
  8
ProjItem
  6
ByLayer
 62
  256
370
   -1
100
AcDbLine
 10
129.25
 20
106.15
 11
128.75
 21
106.15
  0
LINE
  5
1B2
100
AcDbEntity
  8
ProjItem
  6
ByLayer
 62
  256
370
   -1
100
AcDbLine
 10
128.75
 20
106.15
 11
128.75
 21
105.55
  0
LINE
  5
1B3
100
AcDbEntity
  8
ProjItem
  6
ByLayer
 62
  256
370
   -1
100
AcDbLine
 10
129.25
 20
105.55
 11
128.75
 21
105.55
  0
LINE
  5
1B4
100
AcDbEntity
  8
ProjItem
  6
ByLayer
 62
  256
370
   -1
100
AcDbLine
 10
129.25
 20
106.15
 11
129.25
 21
105.55
  0
LINE
  5
1B5
100
AcDbEntity
  8
ProjItem
  6
ByLayer
 62
  256
370
   -1
100
AcDbLine
 10
127.7
 20
113.15
 11
128.475
 21
113.15
  0
SPLINE
  5
1B6
100
AcDbEntity
  8
ProjItem
  6
ByLayer
 62
  256
370
   -1
100
AcDbSpline
210
0
220
0
230
0
 70
    8
 71
    2
 72
    6
 73
    3
 74
    0
 42
1e-07
 43
1e-07
 40
0
 40
0
 40
0
 40
1
 40
1
 40
1
 10
128.475
 20
113.15
 30
0
 10
128.578
 20
113.15
 30
0
 10
128.652
 20
113.15
 30
0
  0
SPLINE
  5
1B7
100
AcDbEntity
  8
ProjItem
  6
ByLayer
 62
  256
370
   -1
100
AcDbSpline
210
0
220
0
230
0
 70
    8
 71
    2
 72
    6
 73
    3
 74
    0
 42
1e-07
 43
1e-07
 40
0
 40
0
 40
0
 40
1
 40
1
 40
1
 10
128.652
 20
113.15
 30
0
 10
128.723
 20
113.15
 30
0
 10
128.725
 20
113.15
 30
0
  0
SPLINE
  5
1B8
100
AcDbEntity
  8
ProjItem
  6
ByLayer
 62
  256
370
   -1
100
AcDbSpline
210
0
220
0
230
0
 70
    8
 71
    2
 72
    6
 73
    3
 74
    0
 42
1e-07
 43
1e-07
 40
0
 40
0
 40
0
 40
1
 40
1
 40
1
 10
128.725
 20
113.15
 30
0
 10
128.727
 20
113.15
 30
0
 10
128.798
 20
113.15
 30
0
  0
SPLINE
  5
1B9
100
AcDbEntity
  8
ProjItem
  6
ByLayer
 62
  256
370
   -1
100
AcDbSpline
210
0
220
0
230
0
 70
    8
 71
    2
 72
    6
 73
    3
 74
    0
 42
1e-07
 43
1e-07
 40
0
 40
0
 40
0
 40
1
 40
1
 40
1
 10
128.475
 20
112.45
 30
0
 10
128.578
 20
112.45
 30
0
 10
128.652
 20
112.45
 30
0
  0
SPLINE
  5
1BA
100
AcDbEntity
  8
ProjItem
  6
ByLayer
 62
  256
370
   -1
100
AcDbSpline
210
0
220
0
230
0
 70
    8
 71
    2
 72
    6
 73
    3
 74
    0
 42
1e-07
 43
1e-07
 40
0
 40
0
 40
0
 40
1
 40
1
 40
1
 10
128.652
 20
112.45
 30
0
 10
128.723
 20
112.45
 30
0
 10
128.725
 20
112.45
 30
0
  0
LINE
  5
1BB
100
AcDbEntity
  8
ProjItem
  6
ByLayer
 62
  256
370
   -1
100
AcDbLine
 10
128.725
 20
113.15
 11
128.725
 21
112.45
  0
LINE
  5
1BC
100
AcDbEntity
  8
ProjItem
  6
ByLayer
 62
  256
370
   -1
100
AcDbLine
 10
127.7
 20
112.45
 11
128.475
 21
112.45
  0
LINE
  5
1BD
100
AcDbEntity
  8
ProjItem
  6
ByLayer
 62
  256
370
   -1
100
AcDbLine
 10
128.725
 20
112.45
 11
128.725
 21
113.15
  0
SPLINE
  5
1BE
100
AcDbEntity
  8
ProjItem
  6
ByLayer
 62
  256
370
   -1
100
AcDbSpline
210
0
220
0
230
0
 70
    8
 71
    2
 72
    6
 73
    3
 74
    0
 42
1e-07
 43
1e-07
 40
0
 40
0
 40
0
 40
1
 40
1
 40
1
 10
128.798
 20
113.15
 30
0
 10
128.872
 20
113.15
 30
0
 10
128.975
 20
113.15
 30
0
  0
SPLINE
  5
1BF
100
AcDbEntity
  8
ProjItem
  6
ByLayer
 62
  256
370
   -1
100
AcDbSpline
210
0
220
0
230
0
 70
    8
 71
    2
 72
    6
 73
    3
 74
    0
 42
1e-07
 43
1e-07
 40
0
 40
0
 40
0
 40
1
 40
1
 40
1
 10
128.798
 20
112.45
 30
0
 10
128.872
 20
112.45
 30
0
 10
128.975
 20
112.45
 30
0
  0
SPLINE
  5
1C0
100
AcDbEntity
  8
ProjItem
  6
ByLayer
 62
  256
370
   -1
100
AcDbSpline
210
0
220
0
230
0
 70
    8
 71
    2
 72
    6
 73
    3
 74
    0
 42
1e-07
 43
1e-07
 40
0
 40
0
 40
0
 40
1
 40
1
 40
1
 10
128.725
 20
112.45
 30
0
 10
128.727
 20
112.45
 30
0
 10
128.798
 20
112.45
 30
0
  0
LINE
  5
1C1
100
AcDbEntity
  8
ProjItem
  6
ByLayer
 62
  256
370
   -1
100
AcDbLine
 10
128.975
 20
113.15
 11
129.7
 21
113.15
  0
LINE
  5
1C2
100
AcDbEntity
  8
ProjItem
  6
ByLayer
 62
  256
370
   -1
100
AcDbLine
 10
127.7
 20
113.45
 11
127.7
 21
107.65
  0
LINE
  5
1C3
100
AcDbEntity
  8
ProjItem
  6
ByLayer
 62
  256
370
   -1
100
AcDbLine
 10
127.7
 20
107.95
 11
128.475
 21
107.95
  0
SPLINE
  5
1C4
100
AcDbEntity
  8
ProjItem
  6
ByLayer
 62
  256
370
   -1
100
AcDbSpline
210
0
220
0
230
0
 70
    8
 71
    2
 72
    6
 73
    3
 74
    0
 42
1e-07
 43
1e-07
 40
0
 40
0
 40
0
 40
1
 40
1
 40
1
 10
128.475
 20
107.95
 30
0
 10
128.578
 20
107.95
 30
0
 10
128.652
 20
107.95
 30
0
  0
SPLINE
  5
1C5
100
AcDbEntity
  8
ProjItem
  6
ByLayer
 62
  256
370
   -1
100
AcDbSpline
210
0
220
0
230
0
 70
    8
 71
    2
 72
    6
 73
    3
 74
    0
 42
1e-07
 43
1e-07
 40
0
 40
0
 40
0
 40
1
 40
1
 40
1
 10
128.475
 20
108.65
 30
0
 10
128.578
 20
108.65
 30
0
 10
128.652
 20
108.65
 30
0
  0
LINE
  5
1C6
100
AcDbEntity
  8
ProjItem
  6
ByLayer
 62
  256
370
   -1
100
AcDbLine
 10
127.7
 20
108.65
 11
128.475
 21
108.65
  0
LINE
  5
1C7
100
AcDbEntity
  8
ProjItem
  6
ByLayer
 62
  256
370
   -1
100
AcDbLine
 10
128.975
 20
112.45
 11
129.7
 21
112.45
  0
LINE
  5
1C8
100
AcDbEntity
  8
ProjItem
  6
ByLayer
 62
  256
370
   -1
100
AcDbLine
 10
129.7
 20
113.15
 11
129.7
 21
112.45
  0
ARC
  5
1C9
100
AcDbEntity
  8
ProjItem
  6
ByLayer
 62
  256
370
   -1
100
AcDbCircle
 10
127.6
 20
113.45
 40
0.1
100
AcDbArc
 50
0
 51
90
  0
ARC
  5
1CA
100
AcDbEntity
  8
ProjItem
  6
ByLayer
 62
  256
370
   -1
100
AcDbCircle
 10
127.6
 20
107.65
 40
0.1
100
AcDbArc
 50
-90
 51
0
  0
LINE
  5
1CB
100
AcDbEntity
  8
ProjItem
  6
ByLayer
 62
  256
370
   -1
100
AcDbLine
 10
127.6
 20
107.55
 11
121.8
 21
107.55
  0
ARC
  5
1CC
100
AcDbEntity
  8
ProjItem
  6
ByLayer
 62
  256
370
   -1
100
AcDbCircle
 10
121.8
 20
107.65
 40
0.1
100
AcDbArc
 50
180
 51
-90
  0
LINE
  5
1CD
100
AcDbEntity
  8
ProjItem
  6
ByLayer
 62
  256
370
   -1
100
AcDbLine
 10
121.7
 20
107.65
 11
121.7
 21
113.45
  0
ARC
  5
1CE
100
AcDbEntity
  8
ProjItem
  6
ByLayer
 62
  256
370
   -1
100
AcDbCircle
 10
121.8
 20
113.45
 40
0.1
100
AcDbArc
 50
90
 51
180
  0
LINE
  5
1CF
100
AcDbEntity
  8
ProjItem
  6
ByLayer
 62
  256
370
   -1
100
AcDbLine
 10
121.8
 20
113.55
 11
127.6
 21
113.55
  0
CIRCLE
  5
1D0
100
AcDbEntity
  8
ProjItem
  6
ByLayer
 62
  256
370
   -1
100
AcDbCircle
 10
124.7
 20
110.55
 40
1.75
  0
SPLINE
  5
1D1
100
AcDbEntity
  8
ProjItem
  6
ByLayer
 62
  256
370
   -1
100
AcDbSpline
210
0
220
0
230
0
 70
    8
 71
    2
 72
    6
 73
    3
 74
    0
 42
1e-07
 43
1e-07
 40
0
 40
0
 40
0
 40
1
 40
1
 40
1
 10
128.652
 20
107.95
 30
0
 10
128.723
 20
107.95
 30
0
 10
128.725
 20
107.95
 30
0
  0
SPLINE
  5
1D2
100
AcDbEntity
  8
ProjItem
  6
ByLayer
 62
  256
370
   -1
100
AcDbSpline
210
0
220
0
230
0
 70
    8
 71
    2
 72
    6
 73
    3
 74
    0
 42
1e-07
 43
1e-07
 40
0
 40
0
 40
0
 40
1
 40
1
 40
1
 10
128.725
 20
107.95
 30
0
 10
128.727
 20
107.95
 30
0
 10
128.798
 20
107.95
 30
0
  0
LINE
  5
1D3
100
AcDbEntity
  8
ProjItem
  6
ByLayer
 62
  256
370
   -1
100
AcDbLine
 10
128.725
 20
107.95
 11
128.725
 21
108.65
  0
SPLINE
  5
1D4
100
AcDbEntity
  8
ProjItem
  6
ByLayer
 62
  256
370
   -1
100
AcDbSpline
210
0
220
0
230
0
 70
    8
 71
    2
 72
    6
 73
    3
 74
    0
 42
1e-07
 43
1e-07
 40
0
 40
0
 40
0
 40
1
 40
1
 40
1
 10
128.652
 20
108.65
 30
0
 10
128.723
 20
108.65
 30
0
 10
128.725
 20
108.65
 30
0
  0
SPLINE
  5
1D5
100
AcDbEntity
  8
ProjItem
  6
ByLayer
 62
  256
370
   -1
100
AcDbSpline
210
0
220
0
230
0
 70
    8
 71
    2
 72
    6
 73
    3
 74
    0
 42
1e-07
 43
1e-07
 40
0
 40
0
 40
0
 40
1
 40
1
 40
1
 10
128.725
 20
108.65
 30
0
 10
128.727
 20
108.65
 30
0
 10
128.798
 20
108.65
 30
0
  0
LINE
  5
1D6
100
AcDbEntity
  8
ProjItem
  6
ByLayer
 62
  256
370
   -1
100
AcDbLine
 10
121.7
 20
107.95
 11
120.925
 21
107.95
  0
LINE
  5
1D7
100
AcDbEntity
  8
ProjItem
  6
ByLayer
 62
  256
370
   -1
100
AcDbLine
 10
121.7
 20
108.65
 11
120.925
 21
108.65
  0
SPLINE
  5
1D8
100
AcDbEntity
  8
ProjItem
  6
ByLayer
 62
  256
370
   -1
100
AcDbSpline
210
0
220
0
230
0
 70
    8
 71
    2
 72
    6
 73
    3
 74
    0
 42
1e-07
 43
1e-07
 40
0
 40
0
 40
0
 40
1
 40
1
 40
1
 10
120.925
 20
108.65
 30
0
 10
120.822
 20
108.65
 30
0
 10
120.748
 20
108.65
 30
0
  0
SPLINE
  5
1D9
100
AcDbEntity
  8
ProjItem
  6
ByLayer
 62
  256
370
   -1
100
AcDbSpline
210
0
220
0
230
0
 70
    8
 71
    2
 72
    6
 73
    3
 74
    0
 42
1e-07
 43
1e-07
 40
0
 40
0
 40
0
 40
1
 40
1
 40
1
 10
120.925
 20
107.95
 30
0
 10
120.822
 20
107.95
 30
0
 10
120.748
 20
107.95
 30
0
  0
LINE
  5
1DA
100
AcDbEntity
  8
ProjItem
  6
ByLayer
 62
  256
370
   -1
100
AcDbLine
 10
121.7
 20
113.15
 11
120.925
 21
113.15
  0
SPLINE
  5
1DB
100
AcDbEntity
  8
ProjItem
  6
ByLayer
 62
  256
370
   -1
100
AcDbSpline
210
0
220
0
230
0
 70
    8
 71
    2
 72
    6
 73
    3
 74
    0
 42
1e-07
 43
1e-07
 40
0
 40
0
 40
0
 40
1
 40
1
 40
1
 10
120.925
 20
113.15
 30
0
 10
120.822
 20
113.15
 30
0
 10
120.748
 20
113.15
 30
0
  0
LINE
  5
1DC
100
AcDbEntity
  8
ProjItem
  6
ByLayer
 62
  256
370
   -1
100
AcDbLine
 10
121.7
 20
112.45
 11
120.925
 21
112.45
  0
SPLINE
  5
1DD
100
AcDbEntity
  8
ProjItem
  6
ByLayer
 62
  256
370
   -1
100
AcDbSpline
210
0
220
0
230
0
 70
    8
 71
    2
 72
    6
 73
    3
 74
    0
 42
1e-07
 43
1e-07
 40
0
 40
0
 40
0
 40
1
 40
1
 40
1
 10
120.925
 20
112.45
 30
0
 10
120.822
 20
112.45
 30
0
 10
120.748
 20
112.45
 30
0
  0
CIRCLE
  5
1DE
100
AcDbEntity
  8
ProjItem
  6
ByLayer
 62
  256
370
   -1
100
AcDbCircle
 10
124.7
 20
110.55
 40
1.65
  0
SPLINE
  5
1DF
100
AcDbEntity
  8
ProjItem
  6
ByLayer
 62
  256
370
   -1
100
AcDbSpline
210
0
220
0
230
0
 70
    8
 71
    2
 72
    6
 73
    3
 74
    0
 42
1e-07
 43
1e-07
 40
0
 40
0
 40
0
 40
1
 40
1
 40
1
 10
128.798
 20
108.65
 30
0
 10
128.872
 20
108.65
 30
0
 10
128.975
 20
108.65
 30
0
  0
SPLINE
  5
1E0
100
AcDbEntity
  8
ProjItem
  6
ByLayer
 62
  256
370
   -1
100
AcDbSpline
210
0
220
0
230
0
 70
    8
 71
    2
 72
    6
 73
    3
 74
    0
 42
1e-07
 43
1e-07
 40
0
 40
0
 40
0
 40
1
 40
1
 40
1
 10
128.798
 20
107.95
 30
0
 10
128.872
 20
107.95
 30
0
 10
128.975
 20
107.95
 30
0
  0
LINE
  5
1E1
100
AcDbEntity
  8
ProjItem
  6
ByLayer
 62
  256
370
   -1
100
AcDbLine
 10
128.975
 20
107.95
 11
129.7
 21
107.95
  0
LINE
  5
1E2
100
AcDbEntity
  8
ProjItem
  6
ByLayer
 62
  256
370
   -1
100
AcDbLine
 10
128.975
 20
108.65
 11
129.7
 21
108.65
  0
SPLINE
  5
1E3
100
AcDbEntity
  8
ProjItem
  6
ByLayer
 62
  256
370
   -1
100
AcDbSpline
210
0
220
0
230
0
 70
    8
 71
    2
 72
    6
 73
    3
 74
    0
 42
1e-07
 43
1e-07
 40
0
 40
0
 40
0
 40
1
 40
1
 40
1
 10
120.748
 20
108.65
 30
0
 10
120.677
 20
108.65
 30
0
 10
120.675
 20
108.65
 30
0
  0
LINE
  5
1E4
100
AcDbEntity
  8
ProjItem
  6
ByLayer
 62
  256
370
   -1
100
AcDbLine
 10
120.675
 20
107.95
 11
120.675
 21
108.65
  0
SPLINE
  5
1E5
100
AcDbEntity
  8
ProjItem
  6
ByLayer
 62
  256
370
   -1
100
AcDbSpline
210
0
220
0
230
0
 70
    8
 71
    2
 72
    6
 73
    3
 74
    0
 42
1e-07
 43
1e-07
 40
0
 40
0
 40
0
 40
1
 40
1
 40
1
 10
120.748
 20
107.95
 30
0
 10
120.677
 20
107.95
 30
0
 10
120.675
 20
107.95
 30
0
  0
SPLINE
  5
1E6
100
AcDbEntity
  8
ProjItem
  6
ByLayer
 62
  256
370
   -1
100
AcDbSpline
210
0
220
0
230
0
 70
    8
 71
    2
 72
    6
 73
    3
 74
    0
 42
1e-07
 43
1e-07
 40
0
 40
0
 40
0
 40
1
 40
1
 40
1
 10
120.675
 20
108.65
 30
0
 10
120.673
 20
108.65
 30
0
 10
120.602
 20
108.65
 30
0
  0
SPLINE
  5
1E7
100
AcDbEntity
  8
ProjItem
  6
ByLayer
 62
  256
370
   -1
100
AcDbSpline
210
0
220
0
230
0
 70
    8
 71
    2
 72
    6
 73
    3
 74
    0
 42
1e-07
 43
1e-07
 40
0
 40
0
 40
0
 40
1
 40
1
 40
1
 10
120.675
 20
107.95
 30
0
 10
120.673
 20
107.95
 30
0
 10
120.602
 20
107.95
 30
0
  0
SPLINE
  5
1E8
100
AcDbEntity
  8
ProjItem
  6
ByLayer
 62
  256
370
   -1
100
AcDbSpline
210
0
220
0
230
0
 70
    8
 71
    2
 72
    6
 73
    3
 74
    0
 42
1e-07
 43
1e-07
 40
0
 40
0
 40
0
 40
1
 40
1
 40
1
 10
120.748
 20
113.15
 30
0
 10
120.677
 20
113.15
 30
0
 10
120.675
 20
113.15
 30
0
  0
SPLINE
  5
1E9
100
AcDbEntity
  8
ProjItem
  6
ByLayer
 62
  256
370
   -1
100
AcDbSpline
210
0
220
0
230
0
 70
    8
 71
    2
 72
    6
 73
    3
 74
    0
 42
1e-07
 43
1e-07
 40
0
 40
0
 40
0
 40
1
 40
1
 40
1
 10
120.675
 20
113.15
 30
0
 10
120.673
 20
113.15
 30
0
 10
120.602
 20
113.15
 30
0
  0
LINE
  5
1EA
100
AcDbEntity
  8
ProjItem
  6
ByLayer
 62
  256
370
   -1
100
AcDbLine
 10
120.675
 20
113.15
 11
120.675
 21
112.45
  0
SPLINE
  5
1EB
100
AcDbEntity
  8
ProjItem
  6
ByLayer
 62
  256
370
   -1
100
AcDbSpline
210
0
220
0
230
0
 70
    8
 71
    2
 72
    6
 73
    3
 74
    0
 42
1e-07
 43
1e-07
 40
0
 40
0
 40
0
 40
1
 40
1
 40
1
 10
120.748
 20
112.45
 30
0
 10
120.677
 20
112.45
 30
0
 10
120.675
 20
112.45
 30
0
  0
SPLINE
  5
1EC
100
AcDbEntity
  8
ProjItem
  6
ByLayer
 62
  256
370
   -1
100
AcDbSpline
210
0
220
0
230
0
 70
    8
 71
    2
 72
    6
 73
    3
 74
    0
 42
1e-07
 43
1e-07
 40
0
 40
0
 40
0
 40
1
 40
1
 40
1
 10
120.675
 20
112.45
 30
0
 10
120.673
 20
112.45
 30
0
 10
120.602
 20
112.45
 30
0
  0
LINE
  5
1ED
100
AcDbEntity
  8
ProjItem
  6
ByLayer
 62
  256
370
   -1
100
AcDbLine
 10
129.7
 20
107.95
 11
129.7
 21
108.65
  0
LINE
  5
1EE
100
AcDbEntity
  8
ProjItem
  6
ByLayer
 62
  256
370
   -1
100
AcDbLine
 10
120.675
 20
108.65
 11
120.675
 21
107.95
  0
SPLINE
  5
1EF
100
AcDbEntity
  8
ProjItem
  6
ByLayer
 62
  256
370
   -1
100
AcDbSpline
210
0
220
0
230
0
 70
    8
 71
    2
 72
    6
 73
    3
 74
    0
 42
1e-07
 43
1e-07
 40
0
 40
0
 40
0
 40
1
 40
1
 40
1
 10
120.602
 20
107.95
 30
0
 10
120.528
 20
107.95
 30
0
 10
120.425
 20
107.95
 30
0
  0
SPLINE
  5
1F0
100
AcDbEntity
  8
ProjItem
  6
ByLayer
 62
  256
370
   -1
100
AcDbSpline
210
0
220
0
230
0
 70
    8
 71
    2
 72
    6
 73
    3
 74
    0
 42
1e-07
 43
1e-07
 40
0
 40
0
 40
0
 40
1
 40
1
 40
1
 10
120.602
 20
108.65
 30
0
 10
120.528
 20
108.65
 30
0
 10
120.425
 20
108.65
 30
0
  0
LINE
  5
1F1
100
AcDbEntity
  8
ProjItem
  6
ByLayer
 62
  256
370
   -1
100
AcDbLine
 10
120.425
 20
108.65
 11
119.7
 21
108.65
  0
LINE
  5
1F2
100
AcDbEntity
  8
ProjItem
  6
ByLayer
 62
  256
370
   -1
100
AcDbLine
 10
120.425
 20
107.95
 11
119.7
 21
107.95
  0
SPLINE
  5
1F3
100
AcDbEntity
  8
ProjItem
  6
ByLayer
 62
  256
370
   -1
100
AcDbSpline
210
0
220
0
230
0
 70
    8
 71
    2
 72
    6
 73
    3
 74
    0
 42
1e-07
 43
1e-07
 40
0
 40
0
 40
0
 40
1
 40
1
 40
1
 10
120.602
 20
112.45
 30
0
 10
120.528
 20
112.45
 30
0
 10
120.425
 20
112.45
 30
0
  0
SPLINE
  5
1F4
100
AcDbEntity
  8
ProjItem
  6
ByLayer
 62
  256
370
   -1
100
AcDbSpline
210
0
220
0
230
0
 70
    8
 71
    2
 72
    6
 73
    3
 74
    0
 42
1e-07
 43
1e-07
 40
0
 40
0
 40
0
 40
1
 40
1
 40
1
 10
120.602
 20
113.15
 30
0
 10
120.528
 20
113.15
 30
0
 10
120.425
 20
113.15
 30
0
  0
LINE
  5
1F5
100
AcDbEntity
  8
ProjItem
  6
ByLayer
 62
  256
370
   -1
100
AcDbLine
 10
120.425
 20
113.15
 11
119.7
 21
113.15
  0
LINE
  5
1F6
100
AcDbEntity
  8
ProjItem
  6
ByLayer
 62
  256
370
   -1
100
AcDbLine
 10
120.425
 20
112.45
 11
119.7
 21
112.45
  0
LINE
  5
1F7
100
AcDbEntity
  8
ProjItem
  6
ByLayer
 62
  256
370
   -1
100
AcDbLine
 10
119.7
 20
107.95
 11
119.7
 21
108.65
  0
LINE
  5
1F8
100
AcDbEntity
  8
ProjItem
  6
ByLayer
 62
  256
370
   -1
100
AcDbLine
 10
119.7
 20
113.15
 11
119.7
 21
112.45
  0
LINE
  5
1F9
100
AcDbEntity
  8
ProjItem
  6
ByLayer
 62
  256
370
   -1
100
AcDbLine
 10
124
 20
106.35
 11
124
 21
107.25
  0
LINE
  5
1FA
100
AcDbEntity
  8
ProjItem
  6
ByLayer
 62
  256
370
   -1
100
AcDbLine
 10
124
 20
107.25
 11
123.4
 21
107.25
  0
LINE
  5
1FB
100
AcDbEntity
  8
ProjItem
  6
ByLayer
 62
  256
370
   -1
100
AcDbLine
 10
123.4
 20
107.25
 11
123.4
 21
106.35
  0
LINE
  5
1FC
100
AcDbEntity
  8
ProjItem
  6
ByLayer
 62
  256
370
   -1
100
AcDbLine
 10
121.2
 20
103.55
 11
121.004
 21
103.55
  0
CIRCLE
  5
1FD
100
AcDbEntity
  8
ProjItem
  6
ByLayer
 62
  256
370
   -1
100
AcDbCircle
 10
121.004
 20
103.546
 40
0.004
  0
LINE
  5
1FE
100
AcDbEntity
  8
ProjItem
  6
ByLayer
 62
  256
370
   -1
100
AcDbLine
 10
121
 20
103.546
 11
121
 21
102.154
  0
CIRCLE
  5
1FF
100
AcDbEntity
  8
ProjItem
  6
ByLayer
 62
  256
370
   -1
100
AcDbCircle
 10
121.004
 20
102.154
 40
0.004
  0
LINE
  5
200
100
AcDbEntity
  8
ProjItem
  6
ByLayer
 62
  256
370
   -1
100
AcDbLine
 10
121.004
 20
102.15
 11
121.2
 21
102.15
  0
LINE
  5
201
100
AcDbEntity
  8
ProjItem
  6
ByLayer
 62
  256
370
   -1
100
AcDbLine
 10
128.4
 20
102.15
 11
128.4
 21
103.55
  0
LINE
  5
202
100
AcDbEntity
  8
ProjItem
  6
ByLayer
 62
  256
370
   -1
100
AcDbLine
 10
128.4
 20
103.55
 11
128.2
 21
103.55
  0
LINE
  5
203
100
AcDbEntity
  8
ProjItem
  6
ByLayer
 62
  256
370
   -1
100
AcDbLine
 10
128.2
 20
102.15
 11
128.4
 21
102.15
  0
LINE
  5
204
100
AcDbEntity
  8
ProjItem
  6
ByLayer
 62
  256
370
   -1
100
AcDbLine
 10
125
 20
106.35
 11
125
 21
107.25
  0
LINE
  5
205
100
AcDbEntity
  8
ProjItem
  6
ByLayer
 62
  256
370
   -1
100
AcDbLine
 10
125
 20
107.25
 11
124.4
 21
107.25
  0
LINE
  5
206
100
AcDbEntity
  8
ProjItem
  6
ByLayer
 62
  256
370
   -1
100
AcDbLine
 10
124.4
 20
107.25
 11
124.4
 21
106.35
  0
LINE
  5
207
100
AcDbEntity
  8
ProjItem
  6
ByLayer
 62
  256
370
   -1
100
AcDbLine
 10
126
 20
106.35
 11
126
 21
107.25
  0
LINE
  5
208
100
AcDbEntity
  8
ProjItem
  6
ByLayer
 62
  256
370
   -1
100
AcDbLine
 10
126
 20
107.25
 11
125.4
 21
107.25
  0
LINE
  5
209
100
AcDbEntity
  8
ProjItem
  6
ByLayer
 62
  256
370
   -1
100
AcDbLine
 10
125.4
 20
107.25
 11
125.4
 21
106.35
  0
LINE
  5
20A
100
AcDbEntity
  8
ProjItem
  6
ByLayer
 62
  256
370
   -1
100
AcDbLine
 10
127
 20
106.35
 11
127
 21
107.25
  0
LINE
  5
20B
100
AcDbEntity
  8
ProjItem
  6
ByLayer
 62
  256
370
   -1
100
AcDbLine
 10
127
 20
107.25
 11
126.4
 21
107.25
  0
LINE
  5
20C
100
AcDbEntity
  8
ProjItem
  6
ByLayer
 62
  256
370
   -1
100
AcDbLine
 10
126.4
 20
107.25
 11
126.4
 21
106.35
  0
LINE
  5
20D
100
AcDbEntity
  8
ProjItem
  6
ByLayer
 62
  256
370
   -1
100
AcDbLine
 10
123
 20
106.35
 11
123
 21
107.25
  0
LINE
  5
20E
100
AcDbEntity
  8
ProjItem
  6
ByLayer
 62
  256
370
   -1
100
AcDbLine
 10
123
 20
107.25
 11
122.4
 21
107.25
  0
LINE
  5
20F
100
AcDbEntity
  8
ProjItem
  6
ByLayer
 62
  256
370
   -1
100
AcDbLine
 10
122.4
 20
107.25
 11
122.4
 21
106.35
  0
LINE
  5
210
100
AcDbEntity
  8
ProjItem
  6
ByLayer
 62
  256
370
   -1
100
AcDbLine
 10
128.725
 20
106.775
 11
128.725
 21
106.125
  0
LINE
  5
211
100
AcDbEntity
  8
ProjItem
  6
ByLayer
 62
  256
370
   -1
100
AcDbLine
 10
128.725
 20
106.125
 11
128.75
 21
106.125
  0
LINE
  5
212
100
AcDbEntity
  8
ProjItem
  6
ByLayer
 62
  256
370
   -1
100
AcDbLine
 10
129.25
 20
106.125
 11
129.275
 21
106.125
  0
LINE
  5
213
100
AcDbEntity
  8
ProjItem
  6
ByLayer
 62
  256
370
   -1
100
AcDbLine
 10
129.275
 20
106.125
 11
129.275
 21
106.775
  0
LINE
  5
214
100
AcDbEntity
  8
ProjItem
  6
ByLayer
 62
  256
370
   -1
100
AcDbLine
 10
129.275
 20
106.775
 11
128.725
 21
106.775
  0
LINE
  5
215
100
AcDbEntity
  8
ProjItem
  6
ByLayer
 62
  256
370
   -1
100
AcDbLine
 10
128.725
 20
105.575
 11
128.725
 21
104.925
  0
LINE
  5
216
100
AcDbEntity
  8
ProjItem
  6
ByLayer
 62
  256
370
   -1
100
AcDbLine
 10
128.725
 20
104.925
 11
129.275
 21
104.925
  0
LINE
  5
217
100
AcDbEntity
  8
ProjItem
  6
ByLayer
 62
  256
370
   -1
100
AcDbLine
 10
129.275
 20
104.925
 11
129.275
 21
105.575
  0
LINE
  5
218
100
AcDbEntity
  8
ProjItem
  6
ByLayer
 62
  256
370
   -1
100
AcDbLine
 10
129.275
 20
105.575
 11
129.25
 21
105.575
  0
LINE
  5
219
100
AcDbEntity
  8
ProjItem
  6
ByLayer
 62
  256
370
   -1
100
AcDbLine
 10
128.75
 20
105.575
 11
128.725
 21
105.575
  0
LINE
  5
21A
100
AcDbEntity
  8
ProjItem
  6
ByLayer
 62
  256
370
   -1
100
AcDbLine
 10
121.15
 20
109
 11
119.05
 21
109
  0
LINE
  5
21B
100
AcDbEntity
  8
ProjItem
  6
ByLayer
 62
  256
370
   -1
100
AcDbLine
 10
119.05
 20
109
 11
119.05
 21
107.6
  0
LINE
  5
21C
100
AcDbEntity
  8
ProjItem
  6
ByLayer
 62
  256
370
   -1
100
AcDbLine
 10
119.05
 20
107.6
 11
121.15
 21
107.6
  0
LINE
  5
21D
100
AcDbEntity
  8
ProjItem
  6
ByLayer
 62
  256
370
   -1
100
AcDbLine
 10
121.15
 20
107.6
 11
121.15
 21
107.95
  0
LINE
  5
21E
100
AcDbEntity
  8
ProjItem
  6
ByLayer
 62
  256
370
   -1
100
AcDbLine
 10
121.15
 20
108.65
 11
121.15
 21
109
  0
LINE
  5
21F
100
AcDbEntity
  8
ProjItem
  6
ByLayer
 62
  256
370
   -1
100
AcDbLine
 10
121.15
 20
113.5
 11
119.05
 21
113.5
  0
LINE
  5
220
100
AcDbEntity
  8
ProjItem
  6
ByLayer
 62
  256
370
   -1
100
AcDbLine
 10
119.05
 20
113.5
 11
119.05
 21
112.1
  0
LINE
  5
221
100
AcDbEntity
  8
ProjItem
  6
ByLayer
 62
  256
370
   -1
100
AcDbLine
 10
119.05
 20
112.1
 11
121.15
 21
112.1
  0
LINE
  5
222
100
AcDbEntity
  8
ProjItem
  6
ByLayer
 62
  256
370
   -1
100
AcDbLine
 10
121.15
 20
112.1
 11
121.15
 21
112.45
  0
LINE
  5
223
100
AcDbEntity
  8
ProjItem
  6
ByLayer
 62
  256
370
   -1
100
AcDbLine
 10
121.15
 20
113.15
 11
121.15
 21
113.5
  0
LINE
  5
224
100
AcDbEntity
  8
ProjItem
  6
ByLayer
 62
  256
370
   -1
100
AcDbLine
 10
130.35
 20
113.5
 11
128.25
 21
113.5
  0
LINE
  5
225
100
AcDbEntity
  8
ProjItem
  6
ByLayer
 62
  256
370
   -1
100
AcDbLine
 10
128.25
 20
113.5
 11
128.25
 21
113.15
  0
LINE
  5
226
100
AcDbEntity
  8
ProjItem
  6
ByLayer
 62
  256
370
   -1
100
AcDbLine
 10
128.25
 20
112.45
 11
128.25
 21
112.1
  0
LINE
  5
227
100
AcDbEntity
  8
ProjItem
  6
ByLayer
 62
  256
370
   -1
100
AcDbLine
 10
128.25
 20
112.1
 11
130.35
 21
112.1
  0
LINE
  5
228
100
AcDbEntity
  8
ProjItem
  6
ByLayer
 62
  256
370
   -1
100
AcDbLine
 10
130.35
 20
112.1
 11
130.35
 21
113.5
  0
LINE
  5
229
100
AcDbEntity
  8
ProjItem
  6
ByLayer
 62
  256
370
   -1
100
AcDbLine
 10
130.35
 20
109
 11
128.25
 21
109
  0
LINE
  5
22A
100
AcDbEntity
  8
ProjItem
  6
ByLayer
 62
  256
370
   -1
100
AcDbLine
 10
128.25
 20
109
 11
128.25
 21
108.65
  0
LINE
  5
22B
100
AcDbEntity
  8
ProjItem
  6
ByLayer
 62
  256
370
   -1
100
AcDbLine
 10
128.25
 20
107.95
 11
128.25
 21
107.6
  0
LINE
  5
22C
100
AcDbEntity
  8
ProjItem
  6
ByLayer
 62
  256
370
   -1
100
AcDbLine
 10
128.25
 20
107.6
 11
130.35
 21
107.6
  0
LINE
  5
22D
100
AcDbEntity
  8
ProjItem
  6
ByLayer
 62
  256
370
   -1
100
AcDbLine
 10
130.35
 20
107.6
 11
130.35
 21
109
  0
LINE
  5
22E
100
AcDbEntity
  8
ProjItem
  6
ByLayer
 62
  256
370
   -1
100
AcDbLine
 10
124
 20
106.35
 11
124
 21
107.25
  0
LINE
  5
22F
100
AcDbEntity
  8
ProjItem
  6
ByLayer
 62
  256
370
   -1
100
AcDbLine
 10
124
 20
107.25
 11
123.4
 21
107.25
  0
LINE
  5
230
100
AcDbEntity
  8
ProjItem
  6
ByLayer
 62
  256
370
   -1
100
AcDbLine
 10
123.4
 20
107.25
 11
123.4
 21
106.35
  0
LINE
  5
231
100
AcDbEntity
  8
ProjItem
  6
ByLayer
 62
  256
370
   -1
100
AcDbLine
 10
121.2
 20
103.55
 11
121.004
 21
103.55
  0
CIRCLE
  5
232
100
AcDbEntity
  8
ProjItem
  6
ByLayer
 62
  256
370
   -1
100
AcDbCircle
 10
121.004
 20
103.546
 40
0.004
  0
LINE
  5
233
100
AcDbEntity
  8
ProjItem
  6
ByLayer
 62
  256
370
   -1
100
AcDbLine
 10
121
 20
103.546
 11
121
 21
102.154
  0
CIRCLE
  5
234
100
AcDbEntity
  8
ProjItem
  6
ByLayer
 62
  256
370
   -1
100
AcDbCircle
 10
121.004
 20
102.154
 40
0.004
  0
LINE
  5
235
100
AcDbEntity
  8
ProjItem
  6
ByLayer
 62
  256
370
   -1
100
AcDbLine
 10
121.004
 20
102.15
 11
121.2
 21
102.15
  0
LINE
  5
236
100
AcDbEntity
  8
ProjItem
  6
ByLayer
 62
  256
370
   -1
100
AcDbLine
 10
128.4
 20
102.15
 11
128.4
 21
103.55
  0
LINE
  5
237
100
AcDbEntity
  8
ProjItem
  6
ByLayer
 62
  256
370
   -1
100
AcDbLine
 10
128.4
 20
103.55
 11
128.2
 21
103.55
  0
LINE
  5
238
100
AcDbEntity
  8
ProjItem
  6
ByLayer
 62
  256
370
   -1
100
AcDbLine
 10
128.2
 20
102.15
 11
128.4
 21
102.15
  0
LINE
  5
239
100
AcDbEntity
  8
ProjItem
  6
ByLayer
 62
  256
370
   -1
100
AcDbLine
 10
125
 20
106.35
 11
125
 21
107.25
  0
LINE
  5
23A
100
AcDbEntity
  8
ProjItem
  6
ByLayer
 62
  256
370
   -1
100
AcDbLine
 10
125
 20
107.25
 11
124.4
 21
107.25
  0
LINE
  5
23B
100
AcDbEntity
  8
ProjItem
  6
ByLayer
 62
  256
370
   -1
100
AcDbLine
 10
124.4
 20
107.25
 11
124.4
 21
106.35
  0
LINE
  5
23C
100
AcDbEntity
  8
ProjItem
  6
ByLayer
 62
  256
370
   -1
100
AcDbLine
 10
126
 20
106.35
 11
126
 21
107.25
  0
LINE
  5
23D
100
AcDbEntity
  8
ProjItem
  6
ByLayer
 62
  256
370
   -1
100
AcDbLine
 10
126
 20
107.25
 11
125.4
 21
107.25
  0
LINE
  5
23E
100
AcDbEntity
  8
ProjItem
  6
ByLayer
 62
  256
370
   -1
100
AcDbLine
 10
125.4
 20
107.25
 11
125.4
 21
106.35
  0
LINE
  5
23F
100
AcDbEntity
  8
ProjItem
  6
ByLayer
 62
  256
370
   -1
100
AcDbLine
 10
127
 20
106.35
 11
127
 21
107.25
  0
LINE
  5
240
100
AcDbEntity
  8
ProjItem
  6
ByLayer
 62
  256
370
   -1
100
AcDbLine
 10
127
 20
107.25
 11
126.4
 21
107.25
  0
LINE
  5
241
100
AcDbEntity
  8
ProjItem
  6
ByLayer
 62
  256
370
   -1
100
AcDbLine
 10
126.4
 20
107.25
 11
126.4
 21
106.35
  0
LINE
  5
242
100
AcDbEntity
  8
ProjItem
  6
ByLayer
 62
  256
370
   -1
100
AcDbLine
 10
123
 20
106.35
 11
123
 21
107.25
  0
LINE
  5
243
100
AcDbEntity
  8
ProjItem
  6
ByLayer
 62
  256
370
   -1
100
AcDbLine
 10
123
 20
107.25
 11
122.4
 21
107.25
  0
LINE
  5
244
100
AcDbEntity
  8
ProjItem
  6
ByLayer
 62
  256
370
   -1
100
AcDbLine
 10
122.4
 20
107.25
 11
122.4
 21
106.35
  0
LINE
  5
245
100
AcDbEntity
  8
ProjItem
  6
ByLayer
 62
  256
370
   -1
100
AcDbLine
 10
128.725
 20
106.775
 11
128.725
 21
106.125
  0
LINE
  5
246
100
AcDbEntity
  8
ProjItem
  6
ByLayer
 62
  256
370
   -1
100
AcDbLine
 10
128.725
 20
106.125
 11
128.75
 21
106.125
  0
LINE
  5
247
100
AcDbEntity
  8
ProjItem
  6
ByLayer
 62
  256
370
   -1
100
AcDbLine
 10
129.25
 20
106.125
 11
129.275
 21
106.125
  0
LINE
  5
248
100
AcDbEntity
  8
ProjItem
  6
ByLayer
 62
  256
370
   -1
100
AcDbLine
 10
129.275
 20
106.125
 11
129.275
 21
106.775
  0
LINE
  5
249
100
AcDbEntity
  8
ProjItem
  6
ByLayer
 62
  256
370
   -1
100
AcDbLine
 10
129.275
 20
106.775
 11
128.725
 21
106.775
  0
LINE
  5
24A
100
AcDbEntity
  8
ProjItem
  6
ByLayer
 62
  256
370
   -1
100
AcDbLine
 10
128.725
 20
105.575
 11
128.725
 21
104.925
  0
LINE
  5
24B
100
AcDbEntity
  8
ProjItem
  6
ByLayer
 62
  256
370
   -1
100
AcDbLine
 10
128.725
 20
104.925
 11
129.275
 21
104.925
  0
LINE
  5
24C
100
AcDbEntity
  8
ProjItem
  6
ByLayer
 62
  256
370
   -1
100
AcDbLine
 10
129.275
 20
104.925
 11
129.275
 21
105.575
  0
LINE
  5
24D
100
AcDbEntity
  8
ProjItem
  6
ByLayer
 62
  256
370
   -1
100
AcDbLine
 10
129.275
 20
105.575
 11
129.25
 21
105.575
  0
LINE
  5
24E
100
AcDbEntity
  8
ProjItem
  6
ByLayer
 62
  256
370
   -1
100
AcDbLine
 10
128.75
 20
105.575
 11
128.725
 21
105.575
  0
LINE
  5
24F
100
AcDbEntity
  8
ProjItem
  6
ByLayer
 62
  256
370
   -1
100
AcDbLine
 10
121.15
 20
109
 11
119.05
 21
109
  0
LINE
  5
250
100
AcDbEntity
  8
ProjItem
  6
ByLayer
 62
  256
370
   -1
100
AcDbLine
 10
119.05
 20
109
 11
119.05
 21
107.6
  0
LINE
  5
251
100
AcDbEntity
  8
ProjItem
  6
ByLayer
 62
  256
370
   -1
100
AcDbLine
 10
119.05
 20
107.6
 11
121.15
 21
107.6
  0
LINE
  5
252
100
AcDbEntity
  8
ProjItem
  6
ByLayer
 62
  256
370
   -1
100
AcDbLine
 10
121.15
 20
107.6
 11
121.15
 21
107.95
  0
LINE
  5
253
100
AcDbEntity
  8
ProjItem
  6
ByLayer
 62
  256
370
   -1
100
AcDbLine
 10
121.15
 20
108.65
 11
121.15
 21
109
  0
LINE
  5
254
100
AcDbEntity
  8
ProjItem
  6
ByLayer
 62
  256
370
   -1
100
AcDbLine
 10
121.15
 20
113.5
 11
119.05
 21
113.5
  0
LINE
  5
255
100
AcDbEntity
  8
ProjItem
  6
ByLayer
 62
  256
370
   -1
100
AcDbLine
 10
119.05
 20
113.5
 11
119.05
 21
112.1
  0
LINE
  5
256
100
AcDbEntity
  8
ProjItem
  6
ByLayer
 62
  256
370
   -1
100
AcDbLine
 10
119.05
 20
112.1
 11
121.15
 21
112.1
  0
LINE
  5
257
100
AcDbEntity
  8
ProjItem
  6
ByLayer
 62
  256
370
   -1
100
AcDbLine
 10
121.15
 20
112.1
 11
121.15
 21
112.45
  0
LINE
  5
258
100
AcDbEntity
  8
ProjItem
  6
ByLayer
 62
  256
370
   -1
100
AcDbLine
 10
121.15
 20
113.15
 11
121.15
 21
113.5
  0
LINE
  5
259
100
AcDbEntity
  8
ProjItem
  6
ByLayer
 62
  256
370
   -1
100
AcDbLine
 10
130.35
 20
113.5
 11
128.25
 21
113.5
  0
LINE
  5
25A
100
AcDbEntity
  8
ProjItem
  6
ByLayer
 62
  256
370
   -1
100
AcDbLine
 10
128.25
 20
113.5
 11
128.25
 21
113.15
  0
LINE
  5
25B
100
AcDbEntity
  8
ProjItem
  6
ByLayer
 62
  256
370
   -1
100
AcDbLine
 10
128.25
 20
112.45
 11
128.25
 21
112.1
  0
LINE
  5
25C
100
AcDbEntity
  8
ProjItem
  6
ByLayer
 62
  256
370
   -1
100
AcDbLine
 10
128.25
 20
112.1
 11
130.35
 21
112.1
  0
LINE
  5
25D
100
AcDbEntity
  8
ProjItem
  6
ByLayer
 62
  256
370
   -1
100
AcDbLine
 10
130.35
 20
112.1
 11
130.35
 21
113.5
  0
LINE
  5
25E
100
AcDbEntity
  8
ProjItem
  6
ByLayer
 62
  256
370
   -1
100
AcDbLine
 10
130.35
 20
109
 11
128.25
 21
109
  0
LINE
  5
25F
100
AcDbEntity
  8
ProjItem
  6
ByLayer
 62
  256
370
   -1
100
AcDbLine
 10
128.25
 20
109
 11
128.25
 21
108.65
  0
LINE
  5
260
100
AcDbEntity
  8
ProjItem
  6
ByLayer
 62
  256
370
   -1
100
AcDbLine
 10
128.25
 20
107.95
 11
128.25
 21
107.6
  0
LINE
  5
261
100
AcDbEntity
  8
ProjItem
  6
ByLayer
 62
  256
370
   -1
100
AcDbLine
 10
128.25
 20
107.6
 11
130.35
 21
107.6
  0
LINE
  5
262
100
AcDbEntity
  8
ProjItem
  6
ByLayer
 62
  256
370
   -1
100
AcDbLine
 10
130.35
 20
107.6
 11
130.35
 21
109
  0
LINE
  5
263
100
AcDbEntity
  8
ProjItem
  6
ByLayer
 62
  256
370
   -1
100
AcDbLine
 10
128.475
 20
113.15
 11
128.475
 21
112.45
  0
LINE
  5
264
100
AcDbEntity
  8
ProjItem
  6
ByLayer
 62
  256
370
   -1
100
AcDbLine
 10
128.975
 20
112.45
 11
128.975
 21
113.15
  0
LINE
  5
265
100
AcDbEntity
  8
ProjItem
  6
ByLayer
 62
  256
370
   -1
100
AcDbLine
 10
128.475
 20
107.95
 11
128.475
 21
108.65
  0
LINE
  5
266
100
AcDbEntity
  8
ProjItem
  6
ByLayer
 62
  256
370
   -1
100
AcDbLine
 10
120.925
 20
107.95
 11
120.925
 21
108.65
  0
LINE
  5
267
100
AcDbEntity
  8
ProjItem
  6
ByLayer
 62
  256
370
   -1
100
AcDbLine
 10
120.925
 20
113.15
 11
120.925
 21
112.45
  0
LINE
  5
268
100
AcDbEntity
  8
ProjItem
  6
ByLayer
 62
  256
370
   -1
100
AcDbLine
 10
128.975
 20
108.65
 11
128.975
 21
107.95
  0
LINE
  5
269
100
AcDbEntity
  8
ProjItem
  6
ByLayer
 62
  256
370
   -1
100
AcDbLine
 10
120.425
 20
108.65
 11
120.425
 21
107.95
  0
LINE
  5
26A
100
AcDbEntity
  8
ProjItem
  6
ByLayer
 62
  256
370
   -1
100
AcDbLine
 10
120.425
 20
112.45
 11
120.425
 21
113.15
  0
LINE
  5
26B
100
AcDbEntity
  8
ProjItem
  6
ByLayer
 62
  256
370
   -1
100
AcDbLine
 10
128.475
 20
113.15
 11
128.475
 21
112.45
  0
LINE
  5
26C
100
AcDbEntity
  8
ProjItem
  6
ByLayer
 62
  256
370
   -1
100
AcDbLine
 10
128.975
 20
112.45
 11
128.975
 21
113.15
  0
LINE
  5
26D
100
AcDbEntity
  8
ProjItem
  6
ByLayer
 62
  256
370
   -1
100
AcDbLine
 10
128.475
 20
107.95
 11
128.475
 21
108.65
  0
LINE
  5
26E
100
AcDbEntity
  8
ProjItem
  6
ByLayer
 62
  256
370
   -1
100
AcDbLine
 10
120.925
 20
107.95
 11
120.925
 21
108.65
  0
LINE
  5
26F
100
AcDbEntity
  8
ProjItem
  6
ByLayer
 62
  256
370
   -1
100
AcDbLine
 10
120.925
 20
113.15
 11
120.925
 21
112.45
  0
LINE
  5
270
100
AcDbEntity
  8
ProjItem
  6
ByLayer
 62
  256
370
   -1
100
AcDbLine
 10
128.975
 20
108.65
 11
128.975
 21
107.95
  0
LINE
  5
271
100
AcDbEntity
  8
ProjItem
  6
ByLayer
 62
  256
370
   -1
100
AcDbLine
 10
120.425
 20
108.65
 11
120.425
 21
107.95
  0
LINE
  5
272
100
AcDbEntity
  8
ProjItem
  6
ByLayer
 62
  256
370
   -1
100
AcDbLine
 10
120.425
 20
112.45
 11
120.425
 21
113.15
  0
LINE
  5
273
100
AcDbEntity
  8
ProjItem
  6
ByLayer
 62
  256
370
   -1
100
AcDbLine
 10
123.05
 20
110.55
 11
122.95
 21
110.55
  0
LINE
  5
274
100
AcDbEntity
  8
ProjItem
  6
ByLayer
 62
  256
370
   -1
100
AcDbLine
 10
123.05
 20
110.55
 11
122.95
 21
110.55
  0
LINE
  5
275
100
AcDbEntity
  8
ProjItem001
  6
ByLayer
 62
  256
370
   -1
100
AcDbLine
 10
135.7
 20
101.95
 11
136.3
 21
101.95
  0
LINE
  5
276
100
AcDbEntity
  8
ProjItem001
  6
ByLayer
 62
  256
370
   -1
100
AcDbLine
 10
135.7
 20
113.95
 11
136.3
 21
113.95
  0
LINE
  5
277
100
AcDbEntity
  8
ProjItem001
  6
ByLayer
 62
  256
370
   -1
100
AcDbLine
 10
136.3
 20
113.95
 11
136.3
 21
101.95
  0
LINE
  5
278
100
AcDbEntity
  8
ProjItem001
  6
ByLayer
 62
  256
370
   -1
100
AcDbLine
 10
135.7
 20
113.95
 11
135.7
 21
101.95
  0
LINE
  5
279
100
AcDbEntity
  8
ProjItem001
  6
ByLayer
 62
  256
370
   -1
100
AcDbLine
 10
135.7
 20
101.95
 11
136.3
 21
101.95
  0
LINE
  5
27A
100
AcDbEntity
  8
ProjItem001
  6
ByLayer
 62
  256
370
   -1
100
AcDbLine
 10
135.7
 20
113.95
 11
136.3
 21
113.95
  0
LINE
  5
27B
100
AcDbEntity
  8
ProjItem001
  6
ByLayer
 62
  256
370
   -1
100
AcDbLine
 10
136.3
 20
113.95
 11
136.3
 21
101.95
  0
LINE
  5
27C
100
AcDbEntity
  8
ProjItem001
  6
ByLayer
 62
  256
370
   -1
100
AcDbLine
 10
135.7
 20
113.95
 11
135.7
 21
101.95
  0
LINE
  5
27D
100
AcDbEntity
  8
ProjItem001
  6
ByLayer
 62
  256
370
   -1
100
AcDbLine
 10
137.555
 20
102.1
 11
139.195
 21
102.1
  0
LINE
  5
27E
100
AcDbEntity
  8
ProjItem001
  6
ByLayer
 62
  256
370
   -1
100
AcDbLine
 10
139.195
 20
105.151
 11
139.195
 21
102.1
  0
LINE
  5
27F
100
AcDbEntity
  8
ProjItem001
  6
ByLayer
 62
  256
370
   -1
100
AcDbLine
 10
139.195
 20
105.151
 11
139.195
 21
105.8
  0
LINE
  5
280
100
AcDbEntity
  8
ProjItem001
  6
ByLayer
 62
  256
370
   -1
100
AcDbLine
 10
137.555
 20
102.1
 11
136.305
 21
102.1
  0
LINE
  5
281
100
AcDbEntity
  8
ProjItem001
  6
ByLayer
 62
  256
370
   -1
100
AcDbLine
 10
136.305
 20
102.1
 11
136.3
 21
102.1
  0
LINE
  5
282
100
AcDbEntity
  8
ProjItem001
  6
ByLayer
 62
  256
370
   -1
100
AcDbLine
 10
137.555
 20
102.6
 11
137.555
 21
102.1
  0
LINE
  5
283
100
AcDbEntity
  8
ProjItem001
  6
ByLayer
 62
  256
370
   -1
100
AcDbLine
 10
136.905
 20
102.6
 11
137.555
 21
102.6
  0
LINE
  5
284
100
AcDbEntity
  8
ProjItem001
  6
ByLayer
 62
  256
370
   -1
100
AcDbLine
 10
136.905
 20
103.6
 11
136.905
 21
102.6
  0
LINE
  5
285
100
AcDbEntity
  8
ProjItem001
  6
ByLayer
 62
  256
370
   -1
100
AcDbLine
 10
136.3
 20
103.6
 11
136.905
 21
103.6
  0
LINE
  5
286
100
AcDbEntity
  8
ProjItem001
  6
ByLayer
 62
  256
370
   -1
100
AcDbLine
 10
137.755
 20
106.35
 11
136.3
 21
106.35
  0
LINE
  5
287
100
AcDbEntity
  8
ProjItem001
  6
ByLayer
 62
  256
370
   -1
100
AcDbLine
 10
137.755
 20
105.8
 11
137.755
 21
106.35
  0
LINE
  5
288
100
AcDbEntity
  8
ProjItem001
  6
ByLayer
 62
  256
370
   -1
100
AcDbLine
 10
138.755
 20
105.8
 11
137.755
 21
105.8
  0
LINE
  5
289
100
AcDbEntity
  8
ProjItem001
  6
ByLayer
 62
  256
370
   -1
100
AcDbLine
 10
138.755
 20
105.151
 11
138.755
 21
105.8
  0
LINE
  5
28A
100
AcDbEntity
  8
ProjItem001
  6
ByLayer
 62
  256
370
   -1
100
AcDbLine
 10
139.195
 20
105.151
 11
138.755
 21
105.151
  0
LINE
  5
28B
100
AcDbEntity
  8
ProjItem001
  6
ByLayer
 62
  256
370
   -1
100
AcDbLine
 10
138.755
 20
105.8
 11
139.195
 21
105.8
  0
LINE
  5
28C
100
AcDbEntity
  8
ProjItem001
  6
ByLayer
 62
  256
370
   -1
100
AcDbLine
 10
138.755
 20
106.35
 11
137.755
 21
106.35
  0
LINE
  5
28D
100
AcDbEntity
  8
ProjItem001
  6
ByLayer
 62
  256
370
   -1
100
AcDbLine
 10
138.755
 20
106.35
 11
138.755
 21
105.8
  0
LINE
  5
28E
100
AcDbEntity
  8
ProjItem001
  6
ByLayer
 62
  256
370
   -1
100
AcDbLine
 10
136.495
 20
106.35
 11
136.495
 21
107.05
  0
LINE
  5
28F
100
AcDbEntity
  8
ProjItem001
  6
ByLayer
 62
  256
370
   -1
100
AcDbLine
 10
136.495
 20
107.05
 11
136.3
 21
107.05
  0
LINE
  5
290
100
AcDbEntity
  8
ProjItem001
  6
ByLayer
 62
  256
370
   -1
100
AcDbLine
 10
136.3
 20
107.05
 11
136.3
 21
107.05
  0
SPLINE
  5
291
100
AcDbEntity
  8
ProjItem001
  6
ByLayer
 62
  256
370
   -1
100
AcDbSpline
210
0
220
0
230
0
 70
    8
 71
    3
 72
    8
 73
    4
 74
    0
 42
1e-07
 43
1e-07
 40
0
 40
0
 40
0
 40
0
 40
1.5708
 40
1.5708
 40
1.5708
 40
1.5708
 10
136.53
 20
107.65
 30
0
 10
136.53
 20
107.597
 30
0
 10
136.53
 20
107.549
 30
0
 10
136.53
 20
107.55
 30
0
  0
LINE
  5
292
100
AcDbEntity
  8
ProjItem001
  6
ByLayer
 62
  256
370
   -1
100
AcDbLine
 10
136.53
 20
107.65
 11
136.53
 21
107.95
  0
LINE
  5
293
100
AcDbEntity
  8
ProjItem001
  6
ByLayer
 62
  256
370
   -1
100
AcDbLine
 10
136.53
 20
108.65
 11
136.53
 21
112.45
  0
LINE
  5
294
100
AcDbEntity
  8
ProjItem001
  6
ByLayer
 62
  256
370
   -1
100
AcDbLine
 10
136.53
 20
113.15
 11
136.53
 21
113.45
  0
SPLINE
  5
295
100
AcDbEntity
  8
ProjItem001
  6
ByLayer
 62
  256
370
   -1
100
AcDbSpline
210
0
220
0
230
0
 70
    8
 71
    3
 72
    8
 73
    4
 74
    0
 42
1e-07
 43
1e-07
 40
4.71239
 40
4.71239
 40
4.71239
 40
4.71239
 40
6.28319
 40
6.28319
 40
6.28319
 40
6.28319
 10
136.53
 20
113.55
 30
0
 10
136.53
 20
113.551
 30
0
 10
136.53
 20
113.503
 30
0
 10
136.53
 20
113.45
 30
0
  0
LINE
  5
296
100
AcDbEntity
  8
ProjItem001
  6
ByLayer
 62
  256
370
   -1
100
AcDbLine
 10
136.53
 20
107.55
 11
139.95
 21
107.55
  0
LINE
  5
297
100
AcDbEntity
  8
ProjItem001
  6
ByLayer
 62
  256
370
   -1
100
AcDbLine
 10
136.53
 20
107.55
 11
139.95
 21
107.55
  0
LINE
  5
298
100
AcDbEntity
  8
ProjItem001
  6
ByLayer
 62
  256
370
   -1
100
AcDbLine
 10
136.53
 20
113.55
 11
139.95
 21
113.55
  0
LINE
  5
299
100
AcDbEntity
  8
ProjItem001
  6
ByLayer
 62
  256
370
   -1
100
AcDbLine
 10
139.95
 20
107.55
 11
140.1
 21
107.55
  0
SPLINE
  5
29A
100
AcDbEntity
  8
ProjItem001
  6
ByLayer
 62
  256
370
   -1
100
AcDbSpline
210
0
220
0
230
0
 70
    8
 71
    3
 72
    8
 73
    4
 74
    0
 42
1e-07
 43
1e-07
 40
0
 40
0
 40
0
 40
0
 40
1.5708
 40
1.5708
 40
1.5708
 40
1.5708
 10
140.1
 20
107.65
 30
0
 10
140.1
 20
107.597
 30
0
 10
140.1
 20
107.549
 30
0
 10
140.1
 20
107.55
 30
0
  0
LINE
  5
29B
100
AcDbEntity
  8
ProjItem001
  6
ByLayer
 62
  256
370
   -1
100
AcDbLine
 10
140.1
 20
107.65
 11
140.1
 21
113.45
  0
SPLINE
  5
29C
100
AcDbEntity
  8
ProjItem001
  6
ByLayer
 62
  256
370
   -1
100
AcDbSpline
210
0
220
0
230
0
 70
    8
 71
    3
 72
    8
 73
    4
 74
    0
 42
1e-07
 43
1e-07
 40
4.71239
 40
4.71239
 40
4.71239
 40
4.71239
 40
6.28319
 40
6.28319
 40
6.28319
 40
6.28319
 10
140.1
 20
113.55
 30
0
 10
140.1
 20
113.551
 30
0
 10
140.1
 20
113.503
 30
0
 10
140.1
 20
113.45
 30
0
  0
LINE
  5
29D
100
AcDbEntity
  8
ProjItem001
  6
ByLayer
 62
  256
370
   -1
100
AcDbLine
 10
139.95
 20
107.55
 11
140.1
 21
107.55
  0
LINE
  5
29E
100
AcDbEntity
  8
ProjItem001
  6
ByLayer
 62
  256
370
   -1
100
AcDbLine
 10
137.78
 20
107.95
 11
137.78
 21
108.65
  0
SPLINE
  5
29F
100
AcDbEntity
  8
ProjItem001
  6
ByLayer
 62
  256
370
   -1
100
AcDbSpline
210
0
220
0
230
0
 70
    8
 71
    2
 72
    6
 73
    3
 74
    0
 42
1e-07
 43
1e-07
 40
0
 40
0
 40
0
 40
1
 40
1
 40
1
 10
137.78
 20
108.65
 30
0
 10
137.778
 20
108.65
 30
0
 10
137.707
 20
108.65
 30
0
  0
SPLINE
  5
2A0
100
AcDbEntity
  8
ProjItem001
  6
ByLayer
 62
  256
370
   -1
100
AcDbSpline
210
0
220
0
230
0
 70
    8
 71
    2
 72
    6
 73
    3
 74
    0
 42
1e-07
 43
1e-07
 40
0
 40
0
 40
0
 40
1
 40
1
 40
1
 10
137.78
 20
107.95
 30
0
 10
137.778
 20
107.95
 30
0
 10
137.707
 20
107.95
 30
0
  0
SPLINE
  5
2A1
100
AcDbEntity
  8
ProjItem001
  6
ByLayer
 62
  256
370
   -1
100
AcDbSpline
210
0
220
0
230
0
 70
    8
 71
    2
 72
    6
 73
    3
 74
    0
 42
1e-07
 43
1e-07
 40
0
 40
0
 40
0
 40
1
 40
1
 40
1
 10
137.78
 20
113.15
 30
0
 10
137.778
 20
113.15
 30
0
 10
137.707
 20
113.15
 30
0
  0
LINE
  5
2A2
100
AcDbEntity
  8
ProjItem001
  6
ByLayer
 62
  256
370
   -1
100
AcDbLine
 10
137.78
 20
113.15
 11
137.78
 21
112.45
  0
SPLINE
  5
2A3
100
AcDbEntity
  8
ProjItem001
  6
ByLayer
 62
  256
370
   -1
100
AcDbSpline
210
0
220
0
230
0
 70
    8
 71
    2
 72
    6
 73
    3
 74
    0
 42
1e-07
 43
1e-07
 40
0
 40
0
 40
0
 40
1
 40
1
 40
1
 10
137.78
 20
112.45
 30
0
 10
137.778
 20
112.45
 30
0
 10
137.707
 20
112.45
 30
0
  0
LINE
  5
2A4
100
AcDbEntity
  8
ProjItem001
  6
ByLayer
 62
  256
370
   -1
100
AcDbLine
 10
139.95
 20
113.55
 11
140.1
 21
113.55
  0
SPLINE
  5
2A5
100
AcDbEntity
  8
ProjItem001
  6
ByLayer
 62
  256
370
   -1
100
AcDbSpline
210
0
220
0
230
0
 70
    8
 71
    3
 72
   41
 73
   37
 74
    0
 42
1e-07
 43
1e-07
 40
0
 40
0
 40
0
 40
0
 40
0.336599
 40
0.336599
 40
0.336599
 40
0.448799
 40
0.448799
 40
0.448799
 40
0.560999
 40
0.560999
 40
0.560999
 40
0.673198
 40
0.673198
 40
0.673198
 40
0.785398
 40
0.785398
 40
0.785398
 40
0.897598
 40
0.897598
 40
0.897598
 40
1.0098
 40
1.0098
 40
1.0098
 40
1.122
 40
1.122
 40
1.122
 40
1.2342
 40
1.2342
 40
1.2342
 40
1.3464
 40
1.3464
 40
1.3464
 40
1.4586
 40
1.4586
 40
1.4586
 40
1.5708
 40
1.5708
 40
1.5708
 40
1.5708
 10
146.03
 20
110.55
 30
0
 10
146.03
 20
110.735
 30
0
 10
146.03
 20
110.919
 30
0
 10
146.03
 20
111.095
 30
0
 10
146.03
 20
111.152
 30
0
 10
146.03
 20
111.209
 30
0
 10
146.03
 20
111.266
 30
0
 10
146.03
 20
111.32
 30
0
 10
146.03
 20
111.374
 30
0
 10
146.03
 20
111.428
 30
0
 10
146.03
 20
111.478
 30
0
 10
146.03
 20
111.528
 30
0
 10
146.03
 20
111.579
 30
0
 10
146.03
 20
111.625
 30
0
 10
146.03
 20
111.671
 30
0
 10
146.03
 20
111.717
 30
0
 10
146.03
 20
111.758
 30
0
 10
146.03
 20
111.799
 30
0
 10
146.03
 20
111.84
 30
0
 10
146.03
 20
111.876
 30
0
 10
146.03
 20
111.911
 30
0
 10
146.03
 20
111.947
 30
0
 10
146.03
 20
111.977
 30
0
 10
146.03
 20
112.007
 30
0
 10
146.03
 20
112.037
 30
0
 10
146.03
 20
112.06
 30
0
 10
146.03
 20
112.084
 30
0
 10
146.03
 20
112.107
 30
0
 10
146.03
 20
112.124
 30
0
 10
146.03
 20
112.142
 30
0
 10
146.03
 20
112.159
 30
0
 10
146.03
 20
112.169
 30
0
 10
146.03
 20
112.179
 30
0
 10
146.03
 20
112.19
 30
0
 10
146.03
 20
112.193
 30
0
 10
146.03
 20
112.197
 30
0
 10
146.03
 20
112.2
 30
0
  0
SPLINE
  5
2A6
100
AcDbEntity
  8
ProjItem001
  6
ByLayer
 62
  256
370
   -1
100
AcDbSpline
210
0
220
0
230
0
 70
    8
 71
    2
 72
   28
 73
   25
 74
    0
 42
1e-07
 43
1e-07
 40
0
 40
0
 40
0
 40
0.04347826086956522
 40
0.08695652173913043
 40
0.1304347826086956
 40
0.1739130434782609
 40
0.2173913043478261
 40
0.2608695652173913
 40
0.3043478260869565
 40
0.3478260869565217
 40
0.391304347826087
 40
0.4347826086956522
 40
0.4782608695652174
 40
0.5217391304347826
 40
0.5652173913043478
 40
0.6086956521739131
 40
0.6521739130434783
 40
0.6956521739130435
 40
0.7391304347826086
 40
0.7826086956521739
 40
0.8260869565217391
 40
0.8695652173913043
 40
0.9130434782608695
 40
0.9565217391304348
 40
1
 40
1
 40
1
 10
146.03
 20
108.9
 30
0
 10
146.03
 20
108.905
 30
0
 10
146.03
 20
108.91
 30
0
 10
146.03
 20
108.926
 30
0
 10
146.03
 20
108.941
 30
0
 10
146.03
 20
108.967
 30
0
 10
146.03
 20
108.993
 30
0
 10
146.03
 20
109.028
 30
0
 10
146.03
 20
109.063
 30
0
 10
146.03
 20
109.108
 30
0
 10
146.03
 20
109.153
 30
0
 10
146.03
 20
109.206
 30
0
 10
146.03
 20
109.26
 30
0
 10
146.03
 20
109.322
 30
0
 10
146.03
 20
109.383
 30
0
 10
146.03
 20
109.452
 30
0
 10
146.03
 20
109.521
 30
0
 10
146.03
 20
109.597
 30
0
 10
146.03
 20
109.672
 30
0
 10
146.03
 20
109.753
 30
0
 10
146.03
 20
109.834
 30
0
 10
146.03
 20
110.003
 30
0
 10
146.03
 20
110.183
 30
0
 10
146.03
 20
110.365
 30
0
 10
146.03
 20
110.55
 30
0
  0
SPLINE
  5
2A7
100
AcDbEntity
  8
ProjItem001
  6
ByLayer
 62
  256
370
   -1
100
AcDbSpline
210
0
220
0
230
0
 70
    8
 71
    2
 72
    6
 73
    3
 74
    0
 42
1e-07
 43
1e-07
 40
0
 40
0
 40
0
 40
1
 40
1
 40
1
 10
137.707
 20
108.65
 30
0
 10
137.633
 20
108.65
 30
0
 10
137.53
 20
108.65
 30
0
  0
SPLINE
  5
2A8
100
AcDbEntity
  8
ProjItem001
  6
ByLayer
 62
  256
370
   -1
100
AcDbSpline
210
0
220
0
230
0
 70
    8
 71
    2
 72
    6
 73
    3
 74
    0
 42
1e-07
 43
1e-07
 40
0
 40
0
 40
0
 40
1
 40
1
 40
1
 10
137.707
 20
107.95
 30
0
 10
137.633
 20
107.95
 30
0
 10
137.53
 20
107.95
 30
0
  0
SPLINE
  5
2A9
100
AcDbEntity
  8
ProjItem001
  6
ByLayer
 62
  256
370
   -1
100
AcDbSpline
210
0
220
0
230
0
 70
    8
 71
    2
 72
    6
 73
    3
 74
    0
 42
1e-07
 43
1e-07
 40
0
 40
0
 40
0
 40
1
 40
1
 40
1
 10
136.805
 20
108.65
 30
0
 10
136.702
 20
108.65
 30
0
 10
136.628
 20
108.65
 30
0
  0
LINE
  5
2AA
100
AcDbEntity
  8
ProjItem001
  6
ByLayer
 62
  256
370
   -1
100
AcDbLine
 10
137.53
 20
108.65
 11
136.805
 21
108.65
  0
LINE
  5
2AB
100
AcDbEntity
  8
ProjItem001
  6
ByLayer
 62
  256
370
   -1
100
AcDbLine
 10
137.53
 20
107.95
 11
136.805
 21
107.95
  0
SPLINE
  5
2AC
100
AcDbEntity
  8
ProjItem001
  6
ByLayer
 62
  256
370
   -1
100
AcDbSpline
210
0
220
0
230
0
 70
    8
 71
    2
 72
    6
 73
    3
 74
    0
 42
1e-07
 43
1e-07
 40
0
 40
0
 40
0
 40
1
 40
1
 40
1
 10
136.805
 20
107.95
 30
0
 10
136.702
 20
107.95
 30
0
 10
136.628
 20
107.95
 30
0
  0
SPLINE
  5
2AD
100
AcDbEntity
  8
ProjItem001
  6
ByLayer
 62
  256
370
   -1
100
AcDbSpline
210
0
220
0
230
0
 70
    8
 71
    2
 72
    6
 73
    3
 74
    0
 42
1e-07
 43
1e-07
 40
0
 40
0
 40
0
 40
1
 40
1
 40
1
 10
137.707
 20
113.15
 30
0
 10
137.633
 20
113.15
 30
0
 10
137.53
 20
113.15
 30
0
  0
LINE
  5
2AE
100
AcDbEntity
  8
ProjItem001
  6
ByLayer
 62
  256
370
   -1
100
AcDbLine
 10
137.53
 20
113.15
 11
136.805
 21
113.15
  0
SPLINE
  5
2AF
100
AcDbEntity
  8
ProjItem001
  6
ByLayer
 62
  256
370
   -1
100
AcDbSpline
210
0
220
0
230
0
 70
    8
 71
    2
 72
    6
 73
    3
 74
    0
 42
1e-07
 43
1e-07
 40
0
 40
0
 40
0
 40
1
 40
1
 40
1
 10
136.805
 20
113.15
 30
0
 10
136.702
 20
113.15
 30
0
 10
136.628
 20
113.15
 30
0
  0
SPLINE
  5
2B0
100
AcDbEntity
  8
ProjItem001
  6
ByLayer
 62
  256
370
   -1
100
AcDbSpline
210
0
220
0
230
0
 70
    8
 71
    2
 72
    6
 73
    3
 74
    0
 42
1e-07
 43
1e-07
 40
0
 40
0
 40
0
 40
1
 40
1
 40
1
 10
137.707
 20
112.45
 30
0
 10
137.633
 20
112.45
 30
0
 10
137.53
 20
112.45
 30
0
  0
SPLINE
  5
2B1
100
AcDbEntity
  8
ProjItem001
  6
ByLayer
 62
  256
370
   -1
100
AcDbSpline
210
0
220
0
230
0
 70
    8
 71
    2
 72
    6
 73
    3
 74
    0
 42
1e-07
 43
1e-07
 40
0
 40
0
 40
0
 40
1
 40
1
 40
1
 10
136.805
 20
112.45
 30
0
 10
136.702
 20
112.45
 30
0
 10
136.628
 20
112.45
 30
0
  0
LINE
  5
2B2
100
AcDbEntity
  8
ProjItem001
  6
ByLayer
 62
  256
370
   -1
100
AcDbLine
 10
137.53
 20
112.45
 11
136.805
 21
112.45
  0
SPLINE
  5
2B3
100
AcDbEntity
  8
ProjItem001
  6
ByLayer
 62
  256
370
   -1
100
AcDbSpline
210
0
220
0
230
0
 70
    8
 71
    2
 72
    6
 73
    3
 74
    0
 42
1e-07
 43
1e-07
 40
0
 40
0
 40
0
 40
1
 40
1
 40
1
 10
136.628
 20
107.95
 30
0
 10
136.557
 20
107.95
 30
0
 10
136.555
 20
107.95
 30
0
  0
SPLINE
  5
2B4
100
AcDbEntity
  8
ProjItem001
  6
ByLayer
 62
  256
370
   -1
100
AcDbSpline
210
0
220
0
230
0
 70
    8
 71
    2
 72
    6
 73
    3
 74
    0
 42
1e-07
 43
1e-07
 40
0
 40
0
 40
0
 40
1
 40
1
 40
1
 10
136.628
 20
108.65
 30
0
 10
136.557
 20
108.65
 30
0
 10
136.555
 20
108.65
 30
0
  0
LINE
  5
2B5
100
AcDbEntity
  8
ProjItem001
  6
ByLayer
 62
  256
370
   -1
100
AcDbLine
 10
136.555
 20
108.65
 11
136.305
 21
108.65
  0
LINE
  5
2B6
100
AcDbEntity
  8
ProjItem001
  6
ByLayer
 62
  256
370
   -1
100
AcDbLine
 10
136.305
 20
107.95
 11
136.555
 21
107.95
  0
SPLINE
  5
2B7
100
AcDbEntity
  8
ProjItem001
  6
ByLayer
 62
  256
370
   -1
100
AcDbSpline
210
0
220
0
230
0
 70
    8
 71
    2
 72
    6
 73
    3
 74
    0
 42
1e-07
 43
1e-07
 40
0
 40
0
 40
0
 40
1
 40
1
 40
1
 10
136.628
 20
112.45
 30
0
 10
136.557
 20
112.45
 30
0
 10
136.555
 20
112.45
 30
0
  0
SPLINE
  5
2B8
100
AcDbEntity
  8
ProjItem001
  6
ByLayer
 62
  256
370
   -1
100
AcDbSpline
210
0
220
0
230
0
 70
    8
 71
    2
 72
    6
 73
    3
 74
    0
 42
1e-07
 43
1e-07
 40
0
 40
0
 40
0
 40
1
 40
1
 40
1
 10
136.628
 20
113.15
 30
0
 10
136.557
 20
113.15
 30
0
 10
136.555
 20
113.15
 30
0
  0
LINE
  5
2B9
100
AcDbEntity
  8
ProjItem001
  6
ByLayer
 62
  256
370
   -1
100
AcDbLine
 10
136.305
 20
113.15
 11
136.555
 21
113.15
  0
LINE
  5
2BA
100
AcDbEntity
  8
ProjItem001
  6
ByLayer
 62
  256
370
   -1
100
AcDbLine
 10
136.555
 20
112.45
 11
136.305
 21
112.45
  0
LINE
  5
2BB
100
AcDbEntity
  8
ProjItem001
  6
ByLayer
 62
  256
370
   -1
100
AcDbLine
 10
136.305
 20
108.65
 11
136.305
 21
107.95
  0
LINE
  5
2BC
100
AcDbEntity
  8
ProjItem001
  6
ByLayer
 62
  256
370
   -1
100
AcDbLine
 10
136.555
 20
107.95
 11
136.555
 21
108.65
  0
LINE
  5
2BD
100
AcDbEntity
  8
ProjItem001
  6
ByLayer
 62
  256
370
   -1
100
AcDbLine
 10
136.305
 20
112.45
 11
136.305
 21
113.15
  0
LINE
  5
2BE
100
AcDbEntity
  8
ProjItem001
  6
ByLayer
 62
  256
370
   -1
100
AcDbLine
 10
136.555
 20
113.15
 11
136.555
 21
112.45
  0
LINE
  5
2BF
100
AcDbEntity
  8
ProjItem001
  6
ByLayer
 62
  256
370
   -1
100
AcDbLine
 10
137.555
 20
102.1
 11
139.195
 21
102.1
  0
LINE
  5
2C0
100
AcDbEntity
  8
ProjItem001
  6
ByLayer
 62
  256
370
   -1
100
AcDbLine
 10
139.195
 20
105.151
 11
139.195
 21
102.1
  0
LINE
  5
2C1
100
AcDbEntity
  8
ProjItem001
  6
ByLayer
 62
  256
370
   -1
100
AcDbLine
 10
139.195
 20
105.151
 11
139.195
 21
105.8
  0
LINE
  5
2C2
100
AcDbEntity
  8
ProjItem001
  6
ByLayer
 62
  256
370
   -1
100
AcDbLine
 10
137.555
 20
102.1
 11
136.305
 21
102.1
  0
LINE
  5
2C3
100
AcDbEntity
  8
ProjItem001
  6
ByLayer
 62
  256
370
   -1
100
AcDbLine
 10
136.305
 20
102.1
 11
136.3
 21
102.1
  0
LINE
  5
2C4
100
AcDbEntity
  8
ProjItem001
  6
ByLayer
 62
  256
370
   -1
100
AcDbLine
 10
137.555
 20
102.6
 11
137.555
 21
102.1
  0
LINE
  5
2C5
100
AcDbEntity
  8
ProjItem001
  6
ByLayer
 62
  256
370
   -1
100
AcDbLine
 10
136.905
 20
102.6
 11
137.555
 21
102.6
  0
LINE
  5
2C6
100
AcDbEntity
  8
ProjItem001
  6
ByLayer
 62
  256
370
   -1
100
AcDbLine
 10
136.905
 20
103.6
 11
136.905
 21
102.6
  0
LINE
  5
2C7
100
AcDbEntity
  8
ProjItem001
  6
ByLayer
 62
  256
370
   -1
100
AcDbLine
 10
136.3
 20
103.6
 11
136.905
 21
103.6
  0
LINE
  5
2C8
100
AcDbEntity
  8
ProjItem001
  6
ByLayer
 62
  256
370
   -1
100
AcDbLine
 10
137.755
 20
106.35
 11
136.3
 21
106.35
  0
LINE
  5
2C9
100
AcDbEntity
  8
ProjItem001
  6
ByLayer
 62
  256
370
   -1
100
AcDbLine
 10
137.755
 20
105.8
 11
137.755
 21
106.35
  0
LINE
  5
2CA
100
AcDbEntity
  8
ProjItem001
  6
ByLayer
 62
  256
370
   -1
100
AcDbLine
 10
138.755
 20
105.8
 11
137.755
 21
105.8
  0
LINE
  5
2CB
100
AcDbEntity
  8
ProjItem001
  6
ByLayer
 62
  256
370
   -1
100
AcDbLine
 10
138.755
 20
105.151
 11
138.755
 21
105.8
  0
LINE
  5
2CC
100
AcDbEntity
  8
ProjItem001
  6
ByLayer
 62
  256
370
   -1
100
AcDbLine
 10
139.195
 20
105.151
 11
138.755
 21
105.151
  0
LINE
  5
2CD
100
AcDbEntity
  8
ProjItem001
  6
ByLayer
 62
  256
370
   -1
100
AcDbLine
 10
138.755
 20
105.8
 11
139.195
 21
105.8
  0
LINE
  5
2CE
100
AcDbEntity
  8
ProjItem001
  6
ByLayer
 62
  256
370
   -1
100
AcDbLine
 10
138.755
 20
106.35
 11
137.755
 21
106.35
  0
LINE
  5
2CF
100
AcDbEntity
  8
ProjItem001
  6
ByLayer
 62
  256
370
   -1
100
AcDbLine
 10
138.755
 20
106.35
 11
138.755
 21
105.8
  0
LINE
  5
2D0
100
AcDbEntity
  8
ProjItem001
  6
ByLayer
 62
  256
370
   -1
100
AcDbLine
 10
136.495
 20
106.35
 11
136.495
 21
107.05
  0
LINE
  5
2D1
100
AcDbEntity
  8
ProjItem001
  6
ByLayer
 62
  256
370
   -1
100
AcDbLine
 10
136.495
 20
107.05
 11
136.3
 21
107.05
  0
LINE
  5
2D2
100
AcDbEntity
  8
ProjItem001
  6
ByLayer
 62
  256
370
   -1
100
AcDbLine
 10
136.3
 20
107.05
 11
136.3
 21
107.05
  0
SPLINE
  5
2D3
100
AcDbEntity
  8
ProjItem001
  6
ByLayer
 62
  256
370
   -1
100
AcDbSpline
210
0
220
0
230
0
 70
    8
 71
    3
 72
    8
 73
    4
 74
    0
 42
1e-07
 43
1e-07
 40
0
 40
0
 40
0
 40
0
 40
1.5708
 40
1.5708
 40
1.5708
 40
1.5708
 10
136.53
 20
107.65
 30
0
 10
136.53
 20
107.597
 30
0
 10
136.53
 20
107.549
 30
0
 10
136.53
 20
107.55
 30
0
  0
LINE
  5
2D4
100
AcDbEntity
  8
ProjItem001
  6
ByLayer
 62
  256
370
   -1
100
AcDbLine
 10
136.53
 20
107.65
 11
136.53
 21
107.95
  0
LINE
  5
2D5
100
AcDbEntity
  8
ProjItem001
  6
ByLayer
 62
  256
370
   -1
100
AcDbLine
 10
136.53
 20
108.65
 11
136.53
 21
112.45
  0
LINE
  5
2D6
100
AcDbEntity
  8
ProjItem001
  6
ByLayer
 62
  256
370
   -1
100
AcDbLine
 10
136.53
 20
113.15
 11
136.53
 21
113.45
  0
SPLINE
  5
2D7
100
AcDbEntity
  8
ProjItem001
  6
ByLayer
 62
  256
370
   -1
100
AcDbSpline
210
0
220
0
230
0
 70
    8
 71
    3
 72
    8
 73
    4
 74
    0
 42
1e-07
 43
1e-07
 40
4.71239
 40
4.71239
 40
4.71239
 40
4.71239
 40
6.28319
 40
6.28319
 40
6.28319
 40
6.28319
 10
136.53
 20
113.55
 30
0
 10
136.53
 20
113.551
 30
0
 10
136.53
 20
113.503
 30
0
 10
136.53
 20
113.45
 30
0
  0
LINE
  5
2D8
100
AcDbEntity
  8
ProjItem001
  6
ByLayer
 62
  256
370
   -1
100
AcDbLine
 10
136.53
 20
107.55
 11
139.95
 21
107.55
  0
LINE
  5
2D9
100
AcDbEntity
  8
ProjItem001
  6
ByLayer
 62
  256
370
   -1
100
AcDbLine
 10
136.53
 20
107.55
 11
139.95
 21
107.55
  0
LINE
  5
2DA
100
AcDbEntity
  8
ProjItem001
  6
ByLayer
 62
  256
370
   -1
100
AcDbLine
 10
136.53
 20
113.55
 11
139.95
 21
113.55
  0
LINE
  5
2DB
100
AcDbEntity
  8
ProjItem001
  6
ByLayer
 62
  256
370
   -1
100
AcDbLine
 10
139.95
 20
107.55
 11
140.1
 21
107.55
  0
SPLINE
  5
2DC
100
AcDbEntity
  8
ProjItem001
  6
ByLayer
 62
  256
370
   -1
100
AcDbSpline
210
0
220
0
230
0
 70
    8
 71
    3
 72
    8
 73
    4
 74
    0
 42
1e-07
 43
1e-07
 40
0
 40
0
 40
0
 40
0
 40
1.5708
 40
1.5708
 40
1.5708
 40
1.5708
 10
140.1
 20
107.65
 30
0
 10
140.1
 20
107.597
 30
0
 10
140.1
 20
107.549
 30
0
 10
140.1
 20
107.55
 30
0
  0
LINE
  5
2DD
100
AcDbEntity
  8
ProjItem001
  6
ByLayer
 62
  256
370
   -1
100
AcDbLine
 10
140.1
 20
107.65
 11
140.1
 21
113.45
  0
SPLINE
  5
2DE
100
AcDbEntity
  8
ProjItem001
  6
ByLayer
 62
  256
370
   -1
100
AcDbSpline
210
0
220
0
230
0
 70
    8
 71
    3
 72
    8
 73
    4
 74
    0
 42
1e-07
 43
1e-07
 40
4.71239
 40
4.71239
 40
4.71239
 40
4.71239
 40
6.28319
 40
6.28319
 40
6.28319
 40
6.28319
 10
140.1
 20
113.55
 30
0
 10
140.1
 20
113.551
 30
0
 10
140.1
 20
113.503
 30
0
 10
140.1
 20
113.45
 30
0
  0
LINE
  5
2DF
100
AcDbEntity
  8
ProjItem001
  6
ByLayer
 62
  256
370
   -1
100
AcDbLine
 10
139.95
 20
107.55
 11
140.1
 21
107.55
  0
LINE
  5
2E0
100
AcDbEntity
  8
ProjItem001
  6
ByLayer
 62
  256
370
   -1
100
AcDbLine
 10
137.78
 20
107.95
 11
137.78
 21
108.65
  0
SPLINE
  5
2E1
100
AcDbEntity
  8
ProjItem001
  6
ByLayer
 62
  256
370
   -1
100
AcDbSpline
210
0
220
0
230
0
 70
    8
 71
    2
 72
    6
 73
    3
 74
    0
 42
1e-07
 43
1e-07
 40
0
 40
0
 40
0
 40
1
 40
1
 40
1
 10
137.78
 20
108.65
 30
0
 10
137.778
 20
108.65
 30
0
 10
137.707
 20
108.65
 30
0
  0
SPLINE
  5
2E2
100
AcDbEntity
  8
ProjItem001
  6
ByLayer
 62
  256
370
   -1
100
AcDbSpline
210
0
220
0
230
0
 70
    8
 71
    2
 72
    6
 73
    3
 74
    0
 42
1e-07
 43
1e-07
 40
0
 40
0
 40
0
 40
1
 40
1
 40
1
 10
137.78
 20
107.95
 30
0
 10
137.778
 20
107.95
 30
0
 10
137.707
 20
107.95
 30
0
  0
SPLINE
  5
2E3
100
AcDbEntity
  8
ProjItem001
  6
ByLayer
 62
  256
370
   -1
100
AcDbSpline
210
0
220
0
230
0
 70
    8
 71
    2
 72
    6
 73
    3
 74
    0
 42
1e-07
 43
1e-07
 40
0
 40
0
 40
0
 40
1
 40
1
 40
1
 10
137.78
 20
113.15
 30
0
 10
137.778
 20
113.15
 30
0
 10
137.707
 20
113.15
 30
0
  0
LINE
  5
2E4
100
AcDbEntity
  8
ProjItem001
  6
ByLayer
 62
  256
370
   -1
100
AcDbLine
 10
137.78
 20
113.15
 11
137.78
 21
112.45
  0
SPLINE
  5
2E5
100
AcDbEntity
  8
ProjItem001
  6
ByLayer
 62
  256
370
   -1
100
AcDbSpline
210
0
220
0
230
0
 70
    8
 71
    2
 72
    6
 73
    3
 74
    0
 42
1e-07
 43
1e-07
 40
0
 40
0
 40
0
 40
1
 40
1
 40
1
 10
137.78
 20
112.45
 30
0
 10
137.778
 20
112.45
 30
0
 10
137.707
 20
112.45
 30
0
  0
LINE
  5
2E6
100
AcDbEntity
  8
ProjItem001
  6
ByLayer
 62
  256
370
   -1
100
AcDbLine
 10
139.95
 20
113.55
 11
140.1
 21
113.55
  0
SPLINE
  5
2E7
100
AcDbEntity
  8
ProjItem001
  6
ByLayer
 62
  256
370
   -1
100
AcDbSpline
210
0
220
0
230
0
 70
    8
 71
    3
 72
   41
 73
   37
 74
    0
 42
1e-07
 43
1e-07
 40
0
 40
0
 40
0
 40
0
 40
0.336599
 40
0.336599
 40
0.336599
 40
0.448799
 40
0.448799
 40
0.448799
 40
0.560999
 40
0.560999
 40
0.560999
 40
0.673198
 40
0.673198
 40
0.673198
 40
0.785398
 40
0.785398
 40
0.785398
 40
0.897598
 40
0.897598
 40
0.897598
 40
1.0098
 40
1.0098
 40
1.0098
 40
1.122
 40
1.122
 40
1.122
 40
1.2342
 40
1.2342
 40
1.2342
 40
1.3464
 40
1.3464
 40
1.3464
 40
1.4586
 40
1.4586
 40
1.4586
 40
1.5708
 40
1.5708
 40
1.5708
 40
1.5708
 10
146.03
 20
110.55
 30
0
 10
146.03
 20
110.735
 30
0
 10
146.03
 20
110.919
 30
0
 10
146.03
 20
111.095
 30
0
 10
146.03
 20
111.152
 30
0
 10
146.03
 20
111.209
 30
0
 10
146.03
 20
111.266
 30
0
 10
146.03
 20
111.32
 30
0
 10
146.03
 20
111.374
 30
0
 10
146.03
 20
111.428
 30
0
 10
146.03
 20
111.478
 30
0
 10
146.03
 20
111.528
 30
0
 10
146.03
 20
111.579
 30
0
 10
146.03
 20
111.625
 30
0
 10
146.03
 20
111.671
 30
0
 10
146.03
 20
111.717
 30
0
 10
146.03
 20
111.758
 30
0
 10
146.03
 20
111.799
 30
0
 10
146.03
 20
111.84
 30
0
 10
146.03
 20
111.876
 30
0
 10
146.03
 20
111.911
 30
0
 10
146.03
 20
111.947
 30
0
 10
146.03
 20
111.977
 30
0
 10
146.03
 20
112.007
 30
0
 10
146.03
 20
112.037
 30
0
 10
146.03
 20
112.06
 30
0
 10
146.03
 20
112.084
 30
0
 10
146.03
 20
112.107
 30
0
 10
146.03
 20
112.124
 30
0
 10
146.03
 20
112.142
 30
0
 10
146.03
 20
112.159
 30
0
 10
146.03
 20
112.169
 30
0
 10
146.03
 20
112.179
 30
0
 10
146.03
 20
112.19
 30
0
 10
146.03
 20
112.193
 30
0
 10
146.03
 20
112.197
 30
0
 10
146.03
 20
112.2
 30
0
  0
SPLINE
  5
2E8
100
AcDbEntity
  8
ProjItem001
  6
ByLayer
 62
  256
370
   -1
100
AcDbSpline
210
0
220
0
230
0
 70
    8
 71
    2
 72
   28
 73
   25
 74
    0
 42
1e-07
 43
1e-07
 40
0
 40
0
 40
0
 40
0.04347826086956522
 40
0.08695652173913043
 40
0.1304347826086956
 40
0.1739130434782609
 40
0.2173913043478261
 40
0.2608695652173913
 40
0.3043478260869565
 40
0.3478260869565217
 40
0.391304347826087
 40
0.4347826086956522
 40
0.4782608695652174
 40
0.5217391304347826
 40
0.5652173913043478
 40
0.6086956521739131
 40
0.6521739130434783
 40
0.6956521739130435
 40
0.7391304347826086
 40
0.7826086956521739
 40
0.8260869565217391
 40
0.8695652173913043
 40
0.9130434782608695
 40
0.9565217391304348
 40
1
 40
1
 40
1
 10
146.03
 20
108.9
 30
0
 10
146.03
 20
108.905
 30
0
 10
146.03
 20
108.91
 30
0
 10
146.03
 20
108.926
 30
0
 10
146.03
 20
108.941
 30
0
 10
146.03
 20
108.967
 30
0
 10
146.03
 20
108.993
 30
0
 10
146.03
 20
109.028
 30
0
 10
146.03
 20
109.063
 30
0
 10
146.03
 20
109.108
 30
0
 10
146.03
 20
109.153
 30
0
 10
146.03
 20
109.206
 30
0
 10
146.03
 20
109.26
 30
0
 10
146.03
 20
109.322
 30
0
 10
146.03
 20
109.383
 30
0
 10
146.03
 20
109.452
 30
0
 10
146.03
 20
109.521
 30
0
 10
146.03
 20
109.597
 30
0
 10
146.03
 20
109.672
 30
0
 10
146.03
 20
109.753
 30
0
 10
146.03
 20
109.834
 30
0
 10
146.03
 20
110.003
 30
0
 10
146.03
 20
110.183
 30
0
 10
146.03
 20
110.365
 30
0
 10
146.03
 20
110.55
 30
0
  0
SPLINE
  5
2E9
100
AcDbEntity
  8
ProjItem001
  6
ByLayer
 62
  256
370
   -1
100
AcDbSpline
210
0
220
0
230
0
 70
    8
 71
    2
 72
    6
 73
    3
 74
    0
 42
1e-07
 43
1e-07
 40
0
 40
0
 40
0
 40
1
 40
1
 40
1
 10
137.707
 20
108.65
 30
0
 10
137.633
 20
108.65
 30
0
 10
137.53
 20
108.65
 30
0
  0
SPLINE
  5
2EA
100
AcDbEntity
  8
ProjItem001
  6
ByLayer
 62
  256
370
   -1
100
AcDbSpline
210
0
220
0
230
0
 70
    8
 71
    2
 72
    6
 73
    3
 74
    0
 42
1e-07
 43
1e-07
 40
0
 40
0
 40
0
 40
1
 40
1
 40
1
 10
137.707
 20
107.95
 30
0
 10
137.633
 20
107.95
 30
0
 10
137.53
 20
107.95
 30
0
  0
SPLINE
  5
2EB
100
AcDbEntity
  8
ProjItem001
  6
ByLayer
 62
  256
370
   -1
100
AcDbSpline
210
0
220
0
230
0
 70
    8
 71
    2
 72
    6
 73
    3
 74
    0
 42
1e-07
 43
1e-07
 40
0
 40
0
 40
0
 40
1
 40
1
 40
1
 10
136.805
 20
108.65
 30
0
 10
136.702
 20
108.65
 30
0
 10
136.628
 20
108.65
 30
0
  0
LINE
  5
2EC
100
AcDbEntity
  8
ProjItem001
  6
ByLayer
 62
  256
370
   -1
100
AcDbLine
 10
137.53
 20
108.65
 11
136.805
 21
108.65
  0
LINE
  5
2ED
100
AcDbEntity
  8
ProjItem001
  6
ByLayer
 62
  256
370
   -1
100
AcDbLine
 10
137.53
 20
107.95
 11
136.805
 21
107.95
  0
SPLINE
  5
2EE
100
AcDbEntity
  8
ProjItem001
  6
ByLayer
 62
  256
370
   -1
100
AcDbSpline
210
0
220
0
230
0
 70
    8
 71
    2
 72
    6
 73
    3
 74
    0
 42
1e-07
 43
1e-07
 40
0
 40
0
 40
0
 40
1
 40
1
 40
1
 10
136.805
 20
107.95
 30
0
 10
136.702
 20
107.95
 30
0
 10
136.628
 20
107.95
 30
0
  0
SPLINE
  5
2EF
100
AcDbEntity
  8
ProjItem001
  6
ByLayer
 62
  256
370
   -1
100
AcDbSpline
210
0
220
0
230
0
 70
    8
 71
    2
 72
    6
 73
    3
 74
    0
 42
1e-07
 43
1e-07
 40
0
 40
0
 40
0
 40
1
 40
1
 40
1
 10
137.707
 20
113.15
 30
0
 10
137.633
 20
113.15
 30
0
 10
137.53
 20
113.15
 30
0
  0
LINE
  5
2F0
100
AcDbEntity
  8
ProjItem001
  6
ByLayer
 62
  256
370
   -1
100
AcDbLine
 10
137.53
 20
113.15
 11
136.805
 21
113.15
  0
SPLINE
  5
2F1
100
AcDbEntity
  8
ProjItem001
  6
ByLayer
 62
  256
370
   -1
100
AcDbSpline
210
0
220
0
230
0
 70
    8
 71
    2
 72
    6
 73
    3
 74
    0
 42
1e-07
 43
1e-07
 40
0
 40
0
 40
0
 40
1
 40
1
 40
1
 10
136.805
 20
113.15
 30
0
 10
136.702
 20
113.15
 30
0
 10
136.628
 20
113.15
 30
0
  0
SPLINE
  5
2F2
100
AcDbEntity
  8
ProjItem001
  6
ByLayer
 62
  256
370
   -1
100
AcDbSpline
210
0
220
0
230
0
 70
    8
 71
    2
 72
    6
 73
    3
 74
    0
 42
1e-07
 43
1e-07
 40
0
 40
0
 40
0
 40
1
 40
1
 40
1
 10
137.707
 20
112.45
 30
0
 10
137.633
 20
112.45
 30
0
 10
137.53
 20
112.45
 30
0
  0
SPLINE
  5
2F3
100
AcDbEntity
  8
ProjItem001
  6
ByLayer
 62
  256
370
   -1
100
AcDbSpline
210
0
220
0
230
0
 70
    8
 71
    2
 72
    6
 73
    3
 74
    0
 42
1e-07
 43
1e-07
 40
0
 40
0
 40
0
 40
1
 40
1
 40
1
 10
136.805
 20
112.45
 30
0
 10
136.702
 20
112.45
 30
0
 10
136.628
 20
112.45
 30
0
  0
LINE
  5
2F4
100
AcDbEntity
  8
ProjItem001
  6
ByLayer
 62
  256
370
   -1
100
AcDbLine
 10
137.53
 20
112.45
 11
136.805
 21
112.45
  0
SPLINE
  5
2F5
100
AcDbEntity
  8
ProjItem001
  6
ByLayer
 62
  256
370
   -1
100
AcDbSpline
210
0
220
0
230
0
 70
    8
 71
    2
 72
    6
 73
    3
 74
    0
 42
1e-07
 43
1e-07
 40
0
 40
0
 40
0
 40
1
 40
1
 40
1
 10
136.628
 20
107.95
 30
0
 10
136.557
 20
107.95
 30
0
 10
136.555
 20
107.95
 30
0
  0
SPLINE
  5
2F6
100
AcDbEntity
  8
ProjItem001
  6
ByLayer
 62
  256
370
   -1
100
AcDbSpline
210
0
220
0
230
0
 70
    8
 71
    2
 72
    6
 73
    3
 74
    0
 42
1e-07
 43
1e-07
 40
0
 40
0
 40
0
 40
1
 40
1
 40
1
 10
136.628
 20
108.65
 30
0
 10
136.557
 20
108.65
 30
0
 10
136.555
 20
108.65
 30
0
  0
LINE
  5
2F7
100
AcDbEntity
  8
ProjItem001
  6
ByLayer
 62
  256
370
   -1
100
AcDbLine
 10
136.555
 20
108.65
 11
136.305
 21
108.65
  0
LINE
  5
2F8
100
AcDbEntity
  8
ProjItem001
  6
ByLayer
 62
  256
370
   -1
100
AcDbLine
 10
136.305
 20
107.95
 11
136.555
 21
107.95
  0
SPLINE
  5
2F9
100
AcDbEntity
  8
ProjItem001
  6
ByLayer
 62
  256
370
   -1
100
AcDbSpline
210
0
220
0
230
0
 70
    8
 71
    2
 72
    6
 73
    3
 74
    0
 42
1e-07
 43
1e-07
 40
0
 40
0
 40
0
 40
1
 40
1
 40
1
 10
136.628
 20
112.45
 30
0
 10
136.557
 20
112.45
 30
0
 10
136.555
 20
112.45
 30
0
  0
SPLINE
  5
2FA
100
AcDbEntity
  8
ProjItem001
  6
ByLayer
 62
  256
370
   -1
100
AcDbSpline
210
0
220
0
230
0
 70
    8
 71
    2
 72
    6
 73
    3
 74
    0
 42
1e-07
 43
1e-07
 40
0
 40
0
 40
0
 40
1
 40
1
 40
1
 10
136.628
 20
113.15
 30
0
 10
136.557
 20
113.15
 30
0
 10
136.555
 20
113.15
 30
0
  0
LINE
  5
2FB
100
AcDbEntity
  8
ProjItem001
  6
ByLayer
 62
  256
370
   -1
100
AcDbLine
 10
136.305
 20
113.15
 11
136.555
 21
113.15
  0
LINE
  5
2FC
100
AcDbEntity
  8
ProjItem001
  6
ByLayer
 62
  256
370
   -1
100
AcDbLine
 10
136.555
 20
112.45
 11
136.305
 21
112.45
  0
LINE
  5
2FD
100
AcDbEntity
  8
ProjItem001
  6
ByLayer
 62
  256
370
   -1
100
AcDbLine
 10
136.305
 20
108.65
 11
136.305
 21
107.95
  0
LINE
  5
2FE
100
AcDbEntity
  8
ProjItem001
  6
ByLayer
 62
  256
370
   -1
100
AcDbLine
 10
136.555
 20
107.95
 11
136.555
 21
108.65
  0
LINE
  5
2FF
100
AcDbEntity
  8
ProjItem001
  6
ByLayer
 62
  256
370
   -1
100
AcDbLine
 10
136.305
 20
112.45
 11
136.305
 21
113.15
  0
LINE
  5
300
100
AcDbEntity
  8
ProjItem001
  6
ByLayer
 62
  256
370
   -1
100
AcDbLine
 10
136.555
 20
113.15
 11
136.555
 21
112.45
  0
LINE
  5
301
100
AcDbEntity
  8
ProjItem001
  6
ByLayer
 62
  256
370
   -1
100
AcDbLine
 10
136.3
 20
103.55
 11
136.3
 21
103.55
  0
SPLINE
  5
302
100
AcDbEntity
  8
ProjItem001
  6
ByLayer
 62
  256
370
   -1
100
AcDbSpline
210
0
220
0
230
0
 70
    8
 71
    1
 72
    4
 73
    2
 74
    0
 42
1e-07
 43
1e-07
 40
0
 40
0
 40
1.5708
 40
1.5708
 10
136.3
 20
103.55
 30
0
 10
136.3
 20
103.546
 30
0
  0
SPLINE
  5
303
100
AcDbEntity
  8
ProjItem001
  6
ByLayer
 62
  256
370
   -1
100
AcDbSpline
210
0
220
0
230
0
 70
    8
 71
    1
 72
    4
 73
    2
 74
    0
 42
1e-07
 43
1e-07
 40
0
 40
0
 40
1.5708
 40
1.5708
 10
136.3
 20
103.55
 30
0
 10
136.3
 20
103.546
 30
0
  0
LINE
  5
304
100
AcDbEntity
  8
ProjItem001
  6
ByLayer
 62
  256
370
   -1
100
AcDbLine
 10
136.3
 20
103.546
 11
136.3
 21
102.154
  0
LINE
  5
305
100
AcDbEntity
  8
ProjItem001
  6
ByLayer
 62
  256
370
   -1
100
AcDbLine
 10
136.3
 20
103.546
 11
136.3
 21
102.154
  0
SPLINE
  5
306
100
AcDbEntity
  8
ProjItem001
  6
ByLayer
 62
  256
370
   -1
100
AcDbSpline
210
0
220
0
230
0
 70
    8
 71
    1
 72
    4
 73
    2
 74
    0
 42
1e-07
 43
1e-07
 40
0
 40
0
 40
1.5708
 40
1.5708
 10
136.3
 20
102.154
 30
0
 10
136.3
 20
102.15
 30
0
  0
LINE
  5
307
100
AcDbEntity
  8
ProjItem001
  6
ByLayer
 62
  256
370
   -1
100
AcDbLine
 10
136.3
 20
102.15
 11
136.3
 21
102.15
  0
SPLINE
  5
308
100
AcDbEntity
  8
ProjItem001
  6
ByLayer
 62
  256
370
   -1
100
AcDbSpline
210
0
220
0
230
0
 70
    8
 71
    1
 72
    4
 73
    2
 74
    0
 42
1e-07
 43
1e-07
 40
0
 40
0
 40
1.5708
 40
1.5708
 10
136.3
 20
102.154
 30
0
 10
136.3
 20
102.15
 30
0
  0
LINE
  5
309
100
AcDbEntity
  8
ProjItem001
  6
ByLayer
 62
  256
370
   -1
100
AcDbLine
 10
136.3
 20
107.25
 11
136.3
 21
107.25
  0
LINE
  5
30A
100
AcDbEntity
  8
ProjItem001
  6
ByLayer
 62
  256
370
   -1
100
AcDbLine
 10
136.3
 20
107.25
 11
136.3
 21
106.35
  0
LINE
  5
30B
100
AcDbEntity
  8
ProjItem001
  6
ByLayer
 62
  256
370
   -1
100
AcDbLine
 10
136.3
 20
107.25
 11
136.3
 21
106.35
  0
LINE
  5
30C
100
AcDbEntity
  8
ProjItem001
  6
ByLayer
 62
  256
370
   -1
100
AcDbLine
 10
136.3
 20
109
 11
136.3
 21
109
  0
LINE
  5
30D
100
AcDbEntity
  8
ProjItem001
  6
ByLayer
 62
  256
370
   -1
100
AcDbLine
 10
136.3
 20
109
 11
136.3
 21
107.6
  0
LINE
  5
30E
100
AcDbEntity
  8
ProjItem001
  6
ByLayer
 62
  256
370
   -1
100
AcDbLine
 10
136.3
 20
107.6
 11
136.3
 21
107.6
  0
LINE
  5
30F
100
AcDbEntity
  8
ProjItem001
  6
ByLayer
 62
  256
370
   -1
100
AcDbLine
 10
136.3
 20
109
 11
136.3
 21
107.6
  0
LINE
  5
310
100
AcDbEntity
  8
ProjItem001
  6
ByLayer
 62
  256
370
   -1
100
AcDbLine
 10
136.3
 20
113.5
 11
136.3
 21
113.5
  0
LINE
  5
311
100
AcDbEntity
  8
ProjItem001
  6
ByLayer
 62
  256
370
   -1
100
AcDbLine
 10
136.3
 20
113.5
 11
136.3
 21
112.1
  0
LINE
  5
312
100
AcDbEntity
  8
ProjItem001
  6
ByLayer
 62
  256
370
   -1
100
AcDbLine
 10
136.3
 20
112.1
 11
136.3
 21
112.1
  0
LINE
  5
313
100
AcDbEntity
  8
ProjItem001
  6
ByLayer
 62
  256
370
   -1
100
AcDbLine
 10
136.3
 20
113.5
 11
136.3
 21
112.1
  0
LINE
  5
314
100
AcDbEntity
  8
ProjItem001
  6
ByLayer
 62
  256
370
   -1
100
AcDbLine
 10
136.3
 20
103.55
 11
136.3
 21
103.55
  0
SPLINE
  5
315
100
AcDbEntity
  8
ProjItem001
  6
ByLayer
 62
  256
370
   -1
100
AcDbSpline
210
0
220
0
230
0
 70
    8
 71
    1
 72
    4
 73
    2
 74
    0
 42
1e-07
 43
1e-07
 40
0
 40
0
 40
1.5708
 40
1.5708
 10
136.3
 20
103.55
 30
0
 10
136.3
 20
103.546
 30
0
  0
SPLINE
  5
316
100
AcDbEntity
  8
ProjItem001
  6
ByLayer
 62
  256
370
   -1
100
AcDbSpline
210
0
220
0
230
0
 70
    8
 71
    1
 72
    4
 73
    2
 74
    0
 42
1e-07
 43
1e-07
 40
0
 40
0
 40
1.5708
 40
1.5708
 10
136.3
 20
103.55
 30
0
 10
136.3
 20
103.546
 30
0
  0
LINE
  5
317
100
AcDbEntity
  8
ProjItem001
  6
ByLayer
 62
  256
370
   -1
100
AcDbLine
 10
136.3
 20
103.546
 11
136.3
 21
102.154
  0
LINE
  5
318
100
AcDbEntity
  8
ProjItem001
  6
ByLayer
 62
  256
370
   -1
100
AcDbLine
 10
136.3
 20
103.546
 11
136.3
 21
102.154
  0
SPLINE
  5
319
100
AcDbEntity
  8
ProjItem001
  6
ByLayer
 62
  256
370
   -1
100
AcDbSpline
210
0
220
0
230
0
 70
    8
 71
    1
 72
    4
 73
    2
 74
    0
 42
1e-07
 43
1e-07
 40
0
 40
0
 40
1.5708
 40
1.5708
 10
136.3
 20
102.154
 30
0
 10
136.3
 20
102.15
 30
0
  0
LINE
  5
31A
100
AcDbEntity
  8
ProjItem001
  6
ByLayer
 62
  256
370
   -1
100
AcDbLine
 10
136.3
 20
102.15
 11
136.3
 21
102.15
  0
SPLINE
  5
31B
100
AcDbEntity
  8
ProjItem001
  6
ByLayer
 62
  256
370
   -1
100
AcDbSpline
210
0
220
0
230
0
 70
    8
 71
    1
 72
    4
 73
    2
 74
    0
 42
1e-07
 43
1e-07
 40
0
 40
0
 40
1.5708
 40
1.5708
 10
136.3
 20
102.154
 30
0
 10
136.3
 20
102.15
 30
0
  0
LINE
  5
31C
100
AcDbEntity
  8
ProjItem001
  6
ByLayer
 62
  256
370
   -1
100
AcDbLine
 10
136.3
 20
107.25
 11
136.3
 21
107.25
  0
LINE
  5
31D
100
AcDbEntity
  8
ProjItem001
  6
ByLayer
 62
  256
370
   -1
100
AcDbLine
 10
136.3
 20
107.25
 11
136.3
 21
106.35
  0
LINE
  5
31E
100
AcDbEntity
  8
ProjItem001
  6
ByLayer
 62
  256
370
   -1
100
AcDbLine
 10
136.3
 20
107.25
 11
136.3
 21
106.35
  0
LINE
  5
31F
100
AcDbEntity
  8
ProjItem001
  6
ByLayer
 62
  256
370
   -1
100
AcDbLine
 10
136.3
 20
109
 11
136.3
 21
109
  0
LINE
  5
320
100
AcDbEntity
  8
ProjItem001
  6
ByLayer
 62
  256
370
   -1
100
AcDbLine
 10
136.3
 20
109
 11
136.3
 21
107.6
  0
LINE
  5
321
100
AcDbEntity
  8
ProjItem001
  6
ByLayer
 62
  256
370
   -1
100
AcDbLine
 10
136.3
 20
107.6
 11
136.3
 21
107.6
  0
LINE
  5
322
100
AcDbEntity
  8
ProjItem001
  6
ByLayer
 62
  256
370
   -1
100
AcDbLine
 10
136.3
 20
109
 11
136.3
 21
107.6
  0
LINE
  5
323
100
AcDbEntity
  8
ProjItem001
  6
ByLayer
 62
  256
370
   -1
100
AcDbLine
 10
136.3
 20
113.5
 11
136.3
 21
113.5
  0
LINE
  5
324
100
AcDbEntity
  8
ProjItem001
  6
ByLayer
 62
  256
370
   -1
100
AcDbLine
 10
136.3
 20
113.5
 11
136.3
 21
112.1
  0
LINE
  5
325
100
AcDbEntity
  8
ProjItem001
  6
ByLayer
 62
  256
370
   -1
100
AcDbLine
 10
136.3
 20
112.1
 11
136.3
 21
112.1
  0
LINE
  5
326
100
AcDbEntity
  8
ProjItem001
  6
ByLayer
 62
  256
370
   -1
100
AcDbLine
 10
136.3
 20
113.5
 11
136.3
 21
112.1
  0
LINE
  5
327
100
AcDbEntity
  8
ProjItem001
  6
ByLayer
 62
  256
370
   -1
100
AcDbLine
 10
146.03
 20
112.2
 11
140.1
 21
112.3
  0
LINE
  5
328
100
AcDbEntity
  8
ProjItem001
  6
ByLayer
 62
  256
370
   -1
100
AcDbLine
 10
146.03
 20
108.9
 11
140.1
 21
108.8
  0
LINE
  5
329
100
AcDbEntity
  8
ProjItem001
  6
ByLayer
 62
  256
370
   -1
100
AcDbLine
 10
146.03
 20
112.2
 11
140.1
 21
112.3
  0
LINE
  5
32A
100
AcDbEntity
  8
ProjItem001
  6
ByLayer
 62
  256
370
   -1
100
AcDbLine
 10
146.03
 20
108.9
 11
140.1
 21
108.8
  0
LINE
  5
32B
100
AcDbEntity
  8
ProjItem001
  6
ByLayer
 62
  256
370
   -1
100
AcDbLine
 10
136.53
 20
107.65
 11
139.95
 21
107.65
  0
LINE
  5
32C
100
AcDbEntity
  8
ProjItem001
  6
ByLayer
 62
  256
370
   -1
100
AcDbLine
 10
136.53
 20
113.45
 11
139.95
 21
113.45
  0
LINE
  5
32D
100
AcDbEntity
  8
ProjItem001
  6
ByLayer
 62
  256
370
   -1
100
AcDbLine
 10
139.95
 20
107.65
 11
140.1
 21
107.65
  0
LINE
  5
32E
100
AcDbEntity
  8
ProjItem001
  6
ByLayer
 62
  256
370
   -1
100
AcDbLine
 10
139.95
 20
113.45
 11
140.1
 21
113.45
  0
LINE
  5
32F
100
AcDbEntity
  8
ProjItem001
  6
ByLayer
 62
  256
370
   -1
100
AcDbLine
 10
137.53
 20
107.95
 11
137.53
 21
108.65
  0
LINE
  5
330
100
AcDbEntity
  8
ProjItem001
  6
ByLayer
 62
  256
370
   -1
100
AcDbLine
 10
137.53
 20
113.15
 11
137.53
 21
112.45
  0
LINE
  5
331
100
AcDbEntity
  8
ProjItem001
  6
ByLayer
 62
  256
370
   -1
100
AcDbLine
 10
136.805
 20
108.65
 11
136.805
 21
107.95
  0
LINE
  5
332
100
AcDbEntity
  8
ProjItem001
  6
ByLayer
 62
  256
370
   -1
100
AcDbLine
 10
136.805
 20
112.45
 11
136.805
 21
113.15
  0
LINE
  5
333
100
AcDbEntity
  8
ProjItem001
  6
ByLayer
 62
  256
370
   -1
100
AcDbLine
 10
136.53
 20
107.65
 11
139.95
 21
107.65
  0
LINE
  5
334
100
AcDbEntity
  8
ProjItem001
  6
ByLayer
 62
  256
370
   -1
100
AcDbLine
 10
136.53
 20
113.45
 11
139.95
 21
113.45
  0
LINE
  5
335
100
AcDbEntity
  8
ProjItem001
  6
ByLayer
 62
  256
370
   -1
100
AcDbLine
 10
139.95
 20
107.65
 11
140.1
 21
107.65
  0
LINE
  5
336
100
AcDbEntity
  8
ProjItem001
  6
ByLayer
 62
  256
370
   -1
100
AcDbLine
 10
139.95
 20
113.45
 11
140.1
 21
113.45
  0
LINE
  5
337
100
AcDbEntity
  8
ProjItem001
  6
ByLayer
 62
  256
370
   -1
100
AcDbLine
 10
137.53
 20
107.95
 11
137.53
 21
108.65
  0
LINE
  5
338
100
AcDbEntity
  8
ProjItem001
  6
ByLayer
 62
  256
370
   -1
100
AcDbLine
 10
137.53
 20
113.15
 11
137.53
 21
112.45
  0
LINE
  5
339
100
AcDbEntity
  8
ProjItem001
  6
ByLayer
 62
  256
370
   -1
100
AcDbLine
 10
136.805
 20
108.65
 11
136.805
 21
107.95
  0
LINE
  5
33A
100
AcDbEntity
  8
ProjItem001
  6
ByLayer
 62
  256
370
   -1
100
AcDbLine
 10
136.805
 20
112.45
 11
136.805
 21
113.15
  0
LINE
  5
33B
100
AcDbEntity
  8
ProjItem001
  6
ByLayer
 62
  256
370
   -1
100
AcDbLine
 10
136.3
 20
103.546
 11
136.3
 21
103.546
  0
LINE
  5
33C
100
AcDbEntity
  8
ProjItem001
  6
ByLayer
 62
  256
370
   -1
100
AcDbLine
 10
136.3
 20
102.154
 11
136.3
 21
102.154
  0
LINE
  5
33D
100
AcDbEntity
  8
ProjItem001
  6
ByLayer
 62
  256
370
   -1
100
AcDbLine
 10
136.3
 20
103.546
 11
136.3
 21
103.546
  0
LINE
  5
33E
100
AcDbEntity
  8
ProjItem001
  6
ByLayer
 62
  256
370
   -1
100
AcDbLine
 10
136.3
 20
102.154
 11
136.3
 21
102.154
  0
SPLINE
  5
33F
100
AcDbEntity
  8
ProjItem001
  6
ByLayer
 62
  256
370
   -1
100
AcDbSpline
210
0
220
0
230
0
 70
    8
 71
    3
 72
    8
 73
    4
 74
    0
 42
1e-07
 43
1e-07
 40
0
 40
0
 40
0
 40
0
 40
1.5708
 40
1.5708
 40
1.5708
 40
1.5708
 10
139.95
 20
107.65
 30
0
 10
139.95
 20
107.597
 30
0
 10
139.95
 20
107.549
 30
0
 10
139.95
 20
107.55
 30
0
  0
LINE
  5
340
100
AcDbEntity
  8
ProjItem001
  6
ByLayer
 62
  256
370
   -1
100
AcDbLine
 10
139.95
 20
107.65
 11
139.95
 21
113.45
  0
SPLINE
  5
341
100
AcDbEntity
  8
ProjItem001
  6
ByLayer
 62
  256
370
   -1
100
AcDbSpline
210
0
220
0
230
0
 70
    8
 71
    3
 72
    8
 73
    4
 74
    0
 42
1e-07
 43
1e-07
 40
4.71239
 40
4.71239
 40
4.71239
 40
4.71239
 40
6.28319
 40
6.28319
 40
6.28319
 40
6.28319
 10
139.95
 20
113.55
 30
0
 10
139.95
 20
113.551
 30
0
 10
139.95
 20
113.503
 30
0
 10
139.95
 20
113.45
 30
0
  0
LINE
  5
342
100
AcDbEntity
  8
ProjItem001
  6
ByLayer
 62
  256
370
   -1
100
AcDbLine
 10
146.03
 20
110.55
 11
140.1
 21
110.55
  0
SPLINE
  5
343
100
AcDbEntity
  8
ProjItem001
  6
ByLayer
 62
  256
370
   -1
100
AcDbSpline
210
0
220
0
230
0
 70
    8
 71
    3
 72
    8
 73
    4
 74
    0
 42
1e-07
 43
1e-07
 40
0
 40
0
 40
0
 40
0
 40
1.5708
 40
1.5708
 40
1.5708
 40
1.5708
 10
139.95
 20
107.65
 30
0
 10
139.95
 20
107.597
 30
0
 10
139.95
 20
107.549
 30
0
 10
139.95
 20
107.55
 30
0
  0
LINE
  5
344
100
AcDbEntity
  8
ProjItem001
  6
ByLayer
 62
  256
370
   -1
100
AcDbLine
 10
139.95
 20
107.65
 11
139.95
 21
113.45
  0
SPLINE
  5
345
100
AcDbEntity
  8
ProjItem001
  6
ByLayer
 62
  256
370
   -1
100
AcDbSpline
210
0
220
0
230
0
 70
    8
 71
    3
 72
    8
 73
    4
 74
    0
 42
1e-07
 43
1e-07
 40
4.71239
 40
4.71239
 40
4.71239
 40
4.71239
 40
6.28319
 40
6.28319
 40
6.28319
 40
6.28319
 10
139.95
 20
113.55
 30
0
 10
139.95
 20
113.551
 30
0
 10
139.95
 20
113.503
 30
0
 10
139.95
 20
113.45
 30
0
  0
LINE
  5
346
100
AcDbEntity
  8
ProjItem001
  6
ByLayer
 62
  256
370
   -1
100
AcDbLine
 10
146.03
 20
110.55
 11
140.1
 21
110.55
  0
LINE
  5
347
100
AcDbEntity
  8
ProjItem002
  6
ByLayer
 62
  256
370
   -1
100
AcDbLine
 10
163.865
 20
101.95
 11
151.865
 21
101.95
  0
LINE
  5
348
100
AcDbEntity
  8
ProjItem002
  6
ByLayer
 62
  256
370
   -1
100
AcDbLine
 10
163.865
 20
113.95
 11
163.865
 21
101.95
  0
LINE
  5
349
100
AcDbEntity
  8
ProjItem002
  6
ByLayer
 62
  256
370
   -1
100
AcDbLine
 10
151.865
 20
101.95
 11
151.865
 21
113.95
  0
LINE
  5
34A
100
AcDbEntity
  8
ProjItem002
  6
ByLayer
 62
  256
370
   -1
100
AcDbLine
 10
151.865
 20
113.95
 11
163.865
 21
113.95
  0
CIRCLE
  5
34B
100
AcDbEntity
  8
ProjItem002
  6
ByLayer
 62
  256
370
   -1
100
AcDbCircle
 10
162.365
 20
110.45
 40
0.751
  0
CIRCLE
  5
34C
100
AcDbEntity
  8
ProjItem002
  6
ByLayer
 62
  256
370
   -1
100
AcDbCircle
 10
153.365
 20
110.45
 40
0.751
  0
LINE
  5
34D
100
AcDbEntity
  8
ProjItem002
  6
ByLayer
 62
  256
370
   -1
100
AcDbLine
 10
163.865
 20
101.95
 11
151.865
 21
101.95
  0
LINE
  5
34E
100
AcDbEntity
  8
ProjItem002
  6
ByLayer
 62
  256
370
   -1
100
AcDbLine
 10
163.865
 20
113.95
 11
163.865
 21
101.95
  0
LINE
  5
34F
100
AcDbEntity
  8
ProjItem002
  6
ByLayer
 62
  256
370
   -1
100
AcDbLine
 10
151.865
 20
101.95
 11
151.865
 21
113.95
  0
LINE
  5
350
100
AcDbEntity
  8
ProjItem002
  6
ByLayer
 62
  256
370
   -1
100
AcDbLine
 10
151.865
 20
113.95
 11
163.865
 21
113.95
  0
CIRCLE
  5
351
100
AcDbEntity
  8
ProjItem002
  6
ByLayer
 62
  256
370
   -1
100
AcDbCircle
 10
162.365
 20
110.45
 40
0.751
  0
CIRCLE
  5
352
100
AcDbEntity
  8
ProjItem002
  6
ByLayer
 62
  256
370
   -1
100
AcDbCircle
 10
153.365
 20
110.45
 40
0.751
  0
ENDBLK
  5
93
330
91
100
AcDbEntity
  8
0
100
AcDbBlockEnd
  0
ENDSEC
  0
SECTION
  2
ENTITIES
  0
LWPOLYLINE
  5
353
100
AcDbEntity
  8
0
  6
ByLayer
 62
    7
370
   -1
100
AcDbPolyline
 90
    2
 70
    0
 43
0
 10
0.140079
 20
107.394775
 10
3.277269
 20
107.394775
  0
LWPOLYLINE
  5
354
100
AcDbEntity
  8
0
  6
ByLayer
 62
    7
370
   -1
100
AcDbPolyline
 90
    2
 70
    0
 43
0
 10
138.983326
 20
213.302216
 10
138.983326
 20
215.90002
  0
LWPOLYLINE
  5
355
100
AcDbEntity
  8
0
  6
ByLayer
 62
    7
370
   -1
100
AcDbPolyline
 90
    2
 70
    0
 43
0
 10
273.511583
 20
107.394775
 10
276.706053
 20
107.394775
  0
LWPOLYLINE
  5
356
100
AcDbEntity
  8
0
  6
ByLayer
 62
    7
370
   -1
100
AcDbPolyline
 90
    4
 70
    1
 43
0
 10
0.090159
 20
215.80482
 10
276.706052
 20
215.80482
 10
276.706052
 20
0.09016
 10
0.090159
 20
0.09016
  0
LWPOLYLINE
  5
357
100
AcDbEntity
  8
0
  6
ByLayer
 62
    7
370
   -1
100
AcDbPolyline
 90
    4
 70
    1
 43
0
 10
3.283779
 20
213.314325
 10
273.512431
 20
213.314325
 10
273.512431
 20
2.580656
 10
3.283779
 20
2.580656
  0
SPLINE
  5
358
100
AcDbEntity
  8
0
  6
ByLayer
 62
    7
370
   -1
100
AcDbSpline
210
0
220
0
230
0
 70
    8
 71
    3
 72
    8
 73
    4
 74
    0
 42
1e-07
 43
1e-07
 40
0
 40
0
 40
0
 40
0
 40
1
 40
1
 40
1
 40
1
 10
195.113259
 20
40.583992
 30
0
 10
265.921022
 20
40.583992
 30
0
 10
265.921022
 20
40.806662
 30
0
 10
265.921022
 20
40.806662
 30
0
  0
LWPOLYLINE
  5
359
100
AcDbEntity
  8
0
  6
ByLayer
 62
    7
370
   -1
100
AcDbPolyline
 90
    2
 70
    0
 43
0
 10
138.983326
 20
0.09016
 10
138.983326
 20
2.68797
  0
LWPOLYLINE
  5
35A
100
AcDbEntity
  8
0
  6
ByLayer
 62
    7
370
   -1
100
AcDbPolyline
 90
    4
 70
    1
 43
0
 10
191.654079
 20
60.356283
 10
269.539611
 20
60.356283
 10
269.539611
 20
6.548934
 10
191.654079
 20
6.548934
  0
SPLINE
  5
35B
100
AcDbEntity
  8
0
  6
ByLayer
 62
    7
370
   -1
100
AcDbSpline
210
0
220
0
230
0
 70
    8
 71
    3
 72
    8
 73
    4
 74
    0
 42
1e-07
 43
1e-07
 40
0
 40
0
 40
0
 40
0
 40
1
 40
1
 40
1
 40
1
 10
195.113259
 20
15.13960281206198
 30
0
 10
265.921022
 20
15.13960281206198
 30
0
 10
265.921022
 20
15.36226281206198
 30
0
 10
265.921022
 20
15.36226281206198
 30
0
  0
MTEXT
  5
35C
100
AcDbEntity
  8
0
  6
ByLayer
 62
  256
370
   -1
100
AcDbMText
 10
193.5315491999793
 20
12.30264751102634
 30
0
 40
3
 41
72.06666539465414
 71
    1
 72
    1
  1
*NOTE: DIMENSIONS UNTOLERANCED\P
  7
standard
210
0
220
0
230
1
 50
0
 73
    2
 44
1
  0
INSERT
  5
35D
100
AcDbEntity
  8
0
  6
ByLayer
 62
  256
370
   -1
100
AcDbBlockReference
  2
Wireling_JOYSTICK_AST1028_REV2-DETAILED_DRAWING-DXF
 10
0.090159
 20
0.09016
 30
0
 41
1
 42
1
 43
0
 50
0
 70
    1
 71
    1
 44
0
 45
0
  0
LINE
  5
35E
100
AcDbEntity
  8
leader
  6
ByLayer
 62
  256
370
   -1
100
AcDbLine
 10
124.790159
 20
113.64016
 11
124.790159
 21
107.64016
  0
LINE
  5
35F
100
AcDbEntity
  8
leader
  6
ByLayer
 62
  256
370
   -1
100
AcDbLine
 10
124.790159
 20
102.19016
 11
124.790159
 21
106.44016
  0
LINE
  5
360
100
AcDbEntity
  8
leader
  6
ByLayer
 62
  256
370
   -1
100
AcDbLine
 10
136.390159
 20
110.64016
 11
146
 21
110.64016
  0
LINE
  5
361
100
AcDbEntity
  8
leader
  6
ByLayer
 62
  256
370
   -1
100
AcDbLine
 10
136.390159
 20
104.31516
 11
139.285159
 21
104.31516
  0
DIMENSION
  5
362
100
AcDbEntity
  8
dim
  6
ByLayer
 62
  256
370
   -1
100
AcDbDimension
  2
*D1
 10
124.790159
 20
100
 30
0
 11
121.790159
 21
100.9375
 31
0
 70
   32
 71
    5
 72
    0
  3
Standard
 53
0
210
0
220
0
230
1
100
AcDbAlignedDimension
 13
118.790159
 23
102.04016
 33
0
 14
124.790159
 24
102.19016
 34
0
100
AcDbRotatedDimension
  0
DIMENSION
  5
363
100
AcDbEntity
  8
dim
  6
ByLayer
 62
  256
370
   -1
100
AcDbDimension
  2
*D2
 10
128.290159
 20
96
 30
0
 11
124.790159
 21
96.9375
 31
0
 70
   32
 71
    5
 72
    0
  3
Standard
 53
0
210
0
220
0
230
1
100
AcDbAlignedDimension
 13
121.290159
 23
102.19016
 33
0
 14
128.290159
 24
102.19016
 34
0
100
AcDbRotatedDimension
  0
DIMENSION
  5
364
100
AcDbEntity
  8
dim
  6
ByLayer
 62
  256
370
   -1
100
AcDbDimension
  2
*D3
 10
118
 20
102.19016
 30
0
 11
117.0625
 21
104.31516
 31
0
 70
   32
 71
    5
 72
    0
  3
Standard
 53
0
210
0
220
0
230
1
100
AcDbAlignedDimension
 13
121.290159
 23
106.44016
 33
0
 14
121.290159
 24
102.19016
 34
0
 50
90
100
AcDbRotatedDimension
  0
MTEXT
  5
365
100
AcDbEntity
  8
0
  6
ByLayer
 62
  256
370
   -1
100
AcDbMText
 10
121.6966379512368
 20
92
 30
0
 40
1
 41
6.416666666666666
 71
    1
 72
    1
  1
TOP VIEW
  7
standard
210
0
220
0
230
1
 50
0
 73
    2
 44
1
  0
DIMENSION
  5
366
100
AcDbEntity
  8
dim
  6
ByLayer
 62
  256
370
   -1
100
AcDbDimension
  2
*D4
 10
126.540159
 20
117
 30
0
 11
124.790159
 21
117.9375
 31
0
 70
   32
 71
    5
 72
    0
  3
Standard
 53
0
210
0
220
0
230
1
100
AcDbAlignedDimension
 13
123.040159
 23
110.64016
 33
0
 14
126.540159
 24
110.64016
 34
0
100
AcDbRotatedDimension
  0
DIMENSION
  5
367
100
AcDbEntity
  8
dim
  6
ByLayer
 62
  256
370
   -1
100
AcDbDimension
  2
*D5
 10
124.790159
 20
115
 30
0
 11
121.790159
 21
115.9375
 31
0
 70
   32
 71
    5
 72
    0
  3
Standard
 53
0
210
0
220
0
230
1
100
AcDbAlignedDimension
 13
118.790159
 23
114.04016
 33
0
 14
124.790159
 24
113.64016
 34
0
100
AcDbRotatedDimension
  0
LINE
  5
368
100
AcDbEntity
  8
dim
  6
ByLayer
 62
  256
370
   -1
100
AcDbLine
 10
121.790159
 20
113.54016
 11
121.790159
 21
114.6511733075174
  0
LINE
  5
369
100
AcDbEntity
  8
dim
  6
ByLayer
 62
  256
370
   -1
100
AcDbLine
 10
121.790159
 20
116.7259699602637
 11
121.790159
 21
118
  0
DIMENSION
  5
36A
100
AcDbEntity
  8
dim
  6
ByLayer
 62
  256
370
   -1
100
AcDbDimension
  2
*D6
 10
127.790159
 20
119
 30
0
 11
124.790159
 21
119.9375
 31
0
 70
   32
 71
    5
 72
    0
  3
Standard
 53
0
210
0
220
0
230
1
100
AcDbAlignedDimension
 13
121.790159
 23
116.7259699602637
 33
0
 14
127.790159
 24
113.54016
 34
0
100
AcDbRotatedDimension
  0
DIMENSION
  5
36B
100
AcDbEntity
  8
dim
  6
ByLayer
 62
  256
370
   -1
100
AcDbDimension
  2
*D7
 10
139
 20
112.39016
 30
0
 11
138.0625
 21
110.64016
 31
0
 70
   32
 71
    5
 72
    0
  3
Standard
 53
0
210
0
220
0
230
1
100
AcDbAlignedDimension
 13
140.190159
 23
108.89016
 33
0
 14
140.190159
 24
112.39016
 34
0
 50
90
100
AcDbRotatedDimension
  0
DIMENSION
  5
36C
100
AcDbEntity
  8
dim
  6
ByLayer
 62
  256
370
   -1
100
AcDbDimension
  2
*D8
 10
148
 20
108.99016
 30
0
 11
147.0625
 21
110.64016
 31
0
 70
   32
 71
    5
 72
    0
  3
Standard
 53
0
210
0
220
0
230
1
100
AcDbAlignedDimension
 13
146.120159
 23
112.29016
 33
0
 14
146.120159
 24
108.99016
 34
0
 50
90
100
AcDbRotatedDimension
  0
DIMENSION
  5
36D
100
AcDbEntity
  8
dim
  6
ByLayer
 62
  256
370
   -1
100
AcDbDimension
  2
*D9
 10
135
 20
110.64016
 30
0
 11
134.0625
 21
112.34016
 31
0
 70
   32
 71
    5
 72
    0
  3
Standard
 53
0
210
0
220
0
230
1
100
AcDbAlignedDimension
 13
135.790159
 23
114.04016
 33
0
 14
136.390159
 24
110.64016
 34
0
 50
90
100
AcDbRotatedDimension
  0
DIMENSION
  5
36E
100
AcDbEntity
  8
dim
  6
ByLayer
 62
  256
370
   -1
100
AcDbDimension
  2
*D10
 10
139.285159
 20
100
 30
0
 11
137.837659
 21
100.9375
 31
0
 70
   32
 71
    5
 72
    0
  3
Standard
 53
0
210
0
220
0
230
1
100
AcDbAlignedDimension
 13
136.390159
 23
102.04016
 33
0
 14
139.285159
 24
102.19016
 34
0
100
AcDbRotatedDimension
  0
DIMENSION
  5
36F
100
AcDbEntity
  8
dim
  6
ByLayer
 62
  256
370
   -1
100
AcDbDimension
  2
*D11
 10
141
 20
104.31516
 30
0
 11
140.0625
 21
103.17766
 31
0
 70
   32
 71
    5
 72
    0
  3
Standard
 53
0
210
0
220
0
230
1
100
AcDbAlignedDimension
 13
136.390159
 23
102.04016
 33
0
 14
139.285159
 24
104.31516
 34
0
 50
90
100
AcDbRotatedDimension
  0
DIMENSION
  5
370
100
AcDbEntity
  8
dim
  6
ByLayer
 62
  256
370
   -1
100
AcDbDimension
  2
*D12
 10
136.390159
 20
100
 30
0
 11
133
 21
101
 31
0
 70
   32
 71
    5
 72
    0
  3
Standard
 53
0
210
0
220
0
230
1
100
AcDbAlignedDimension
 13
135.790159
 23
102.04016
 33
0
 14
136.390159
 24
102.04016
 34
0
100
AcDbRotatedDimension
  0
DIMENSION
  5
371
100
AcDbEntity
  8
dim
  6
ByLayer
 62
  256
370
   -1
100
AcDbDimension
  2
*D13
 10
153.455159
 20
110.54016
 30
0
 11
157.4232161277331
 21
109.2344810290776
 31
0
 70
   36
  1
2x R0.8
 71
    5
 72
    0
  3
Standard
 53
0
210
0
220
0
230
1
100
AcDbRadialDimension
 15
154.0976550485659
 25
110.1513157798074
 35
0
 40
0
  0
DIMENSION
  5
372
100
AcDbEntity
  8
dim
  6
ByLayer
 62
  256
370
   -1
100
AcDbDimension
  2
*D14
 10
163.955159
 20
119
 30
0
 11
157.9775795
 21
119.9375
 31
0
 70
   32
 71
    5
 72
    0
  3
Standard
 53
0
210
0
220
0
230
1
100
AcDbAlignedDimension
 13
152
 23
114
 33
0
 14
163.955159
 24
114.04016
 34
0
100
AcDbRotatedDimension
  0
DIMENSION
  5
373
100
AcDbEntity
  8
dim
  6
ByLayer
 62
  256
370
   -1
100
AcDbDimension
  2
*D15
 10
169
 20
102
 30
0
 11
168.0625
 21
108
 31
0
 70
   32
 71
    5
 72
    0
  3
Standard
 53
0
210
0
220
0
230
1
100
AcDbAlignedDimension
 13
164
 23
114
 33
0
 14
164
 24
102
 34
0
 50
90
100
AcDbRotatedDimension
  0
MTEXT
  5
374
100
AcDbEntity
  8
0
  6
ByLayer
 62
  256
370
   -1
100
AcDbMText
 10
153
 20
92
 30
0
 40
1
 41
9.194444444444445
 71
    1
 72
    1
  1
BOTTOM VIEW
  7
standard
210
0
220
0
230
1
 50
0
 73
    2
 44
1
  0
MTEXT
  5
375
100
AcDbEntity
  8
0
  6
ByLayer
 62
  256
370
   -1
100
AcDbMText
 10
138.5389095665434
 20
92
 30
0
 40
1
 41
6.638888676886801
 71
    1
 72
    1
  1
SIDE VIEW
  7
standard
210
0
220
0
230
1
 50
0
 73
    2
 44
1
  0
DIMENSION
  5
376
100
AcDbEntity
  8
dim
  6
ByLayer
 62
  256
370
   -1
100
AcDbDimension
  2
*D16
 10
162.455159
 20
110.54016
 30
0
 11
161.517659
 21
112.29016
 31
0
 70
   32
  1
2x 3.5
 71
    5
 72
    0
  3
Standard
 53
0
210
0
220
0
230
1
100
AcDbAlignedDimension
 13
163.955159
 23
114.04016
 33
0
 14
162.455159
 24
110.54016
 34
0
 50
90
100
AcDbRotatedDimension
  0
DIMENSION
  5
377
100
AcDbEntity
  8
dim
  6
ByLayer
 62
  256
370
   -1
100
AcDbDimension
  2
*D17
 10
162.455159
 20
110.54016
 30
0
 11
163.205159
 21
111.47766
 31
0
 70
   32
  1
2x 1.5
 71
    5
 72
    0
  3
Standard
 53
0
210
0
220
0
230
1
100
AcDbAlignedDimension
 13
163.955159
 23
114.04016
 33
0
 14
162.455159
 24
110.54016
 34
0
100
AcDbRotatedDimension
  0
MTEXT
  5
378
100
AcDbEntity
  8
0
  6
ByLayer
 62
  256
370
   -1
100
AcDbMText
 10
138.6513535055664
 20
126
 30
0
 40
1
 41
5.750000000000092
 71
    1
 72
    1
  1
UNIT: mm
  7
standard
210
0
220
0
230
1
 50
0
 73
    2
 44
1
  0
DIMENSION
  5
379
100
AcDbEntity
  8
dim
  6
ByLayer
 62
  256
370
   -1
100
AcDbDimension
  2
*D18
 10
146.120159
 20
118
 30
0
 11
141.255159
 21
118.9375
 31
0
 70
   32
 71
    5
 72
    0
  3
Standard
 53
0
210
0
220
0
230
1
100
AcDbAlignedDimension
 13
136.390159
 23
114.04016
 33
0
 14
146.120159
 24
112.29016
 34
0
100
AcDbRotatedDimension
  0
DIMENSION
  5
37A
100
AcDbEntity
  8
dim
  6
ByLayer
 62
  256
370
   -1
100
AcDbDimension
  2
*D19
 10
146.120159
 20
121
 30
0
 11
140.955159
 21
121.9375
 31
0
 70
   32
 71
    5
 72
    0
  3
Standard
 53
0
210
0
220
0
230
1
100
AcDbAlignedDimension
 13
135.790159
 23
114.04016
 33
0
 14
146.120159
 24
112.29016
 34
0
100
AcDbRotatedDimension
  0
DIMENSION
  5
37B
100
AcDbEntity
  8
dim
  6
ByLayer
 62
  256
370
   -1
100
AcDbDimension
  2
*D20
 10
140.190159
 20
115
 30
0
 11
138.290159
 21
115.9375
 31
0
 70
   32
 71
    5
 72
    0
  3
Standard
 53
0
210
0
220
0
230
1
100
AcDbAlignedDimension
 13
136.390159
 23
114.04016
 33
0
 14
140.190159
 24
113.64016
 34
0
100
AcDbRotatedDimension
  0
MTEXT
  5
37C
100
AcDbEntity
  8
0
  6
ByLayer
 62
  256
370
   -1
100
AcDbMText
 10
231.6634056522993
 20
46.17498974250736
 30
0
 40
4
 41
21.33333248532474
 71
    5
 72
    1
  1
AST1028
  7
standard
210
0
220
0
230
1
 50
0
 73
    2
 44
1
  0
MTEXT
  5
37D
100
AcDbEntity
  8
0
  6
ByLayer
 62
  256
370
   -1
100
AcDbMText
 10
195.113259
 20
27.58106258447588
 30
0
 40
2
 41
40.05555658413045
 71
    4
 72
    1
  1
PROJECT: Wirelings\P\PDATE: 8/14/2020\P\PAUTHOR NAME: Jason Marcum
  7
standard
210
0
220
0
230
1
 50
0
 73
    2
 44
1
  0
MTEXT
  5
37E
100
AcDbEntity
  8
0
  6
ByLayer
 62
  256
370
   -1
100
AcDbMText
 10
240.2022845263945
 20
27.80828678588498
 30
0
 40
2
 41
19.4999995759957
 71
    4
 72
    1
  1
SCALE: 1:1\P\PUNIT: mm\P\PREVISION: Rev1
  7
standard
210
0
220
0
230
1
 50
0
 73
    2
 44
1
  0
MTEXT
  5
37F
100
AcDbEntity
  8
0
  6
ByLayer
 62
  256
370
   -1
100
AcDbMText
 10
230.622678000926
 20
55.14118519194523
 30
0
 40
4.25
 41
72.01388888888889
 71
    5
 72
    1
  1
WIRELING LARGE BUTTON
  7
standard
210
0
220
0
230
1
 50
0
 73
    2
 44
1
  0
ENDSEC
  0
SECTION
  2
OBJECTS
  0
DICTIONARY
  5
C
330
0
100
AcDbDictionary
281
    1
  3
ACAD_GROUP
350
D
  0
DICTIONARY
  5
D
330
C
100
AcDbDictionary
281
    1
  0
PLOTSETTINGS
  5
380
  6
1x1
 40
0
 41
0
 42
0
 43
0
  0
ENDSEC
  0
EOF
